<svg width="325" height="193" viewBox="0 0 325 193" fill="none" xmlns="http://www.w3.org/2000/svg">
<rect x="0.899323" y="0.200195" width="324" height="192" rx="10" fill="url(#paint0_linear_588_2898)"/>
<path d="M32.3404 20.6308C32.7787 20.6308 33.199 20.4765 33.5089 20.202C33.8187 19.9274 33.9928 19.555 33.9928 19.1667C33.9928 18.7784 33.8187 18.406 33.5089 18.1314C33.199 17.8568 32.7787 17.7026 32.3404 17.7026C31.9021 17.7026 31.4818 17.8568 31.1719 18.1314C30.8621 18.406 30.688 18.7784 30.688 19.1667C30.688 19.555 30.8621 19.9274 31.1719 20.202C31.4818 20.4765 31.9021 20.6308 32.3404 20.6308ZM33.962 13.7104C33.5036 13.3804 32.931 13.2002 32.3404 13.2002C31.7498 13.2002 31.1772 13.3804 30.7188 13.7104L19.6981 21.6459C18.3585 22.6142 19.1297 24.5351 20.857 24.5351H21.3241V32.7342C20.0154 33.3257 19.1209 34.5301 19.1209 35.922V37.2241C19.1209 37.483 19.2369 37.7313 19.4435 37.9143C19.6501 38.0974 19.9303 38.2002 20.2225 38.2002H44.4583C44.7505 38.2002 45.0307 38.0974 45.2373 37.9143C45.4439 37.7313 45.5599 37.483 45.5599 37.2241V35.922C45.5599 34.5321 44.6654 33.3257 43.3567 32.7342V24.5351H43.8238C45.5511 24.5351 46.3223 22.6122 44.9805 21.6459L33.9642 13.7084L33.962 13.7104ZM32.1113 15.2253C32.1767 15.1784 32.2584 15.1528 32.3426 15.1528C32.4268 15.1528 32.5085 15.1784 32.5739 15.2253L42.786 22.5829H21.8925L32.1113 15.2233V15.2253ZM41.1534 32.3437H38.9502V24.5351H41.1534V32.3437ZM36.7469 32.3437H33.442V24.5351H36.7469V32.3437ZM31.2388 32.3437H27.9339V24.5351H31.2388V32.3437ZM41.5214 34.2959C42.5349 34.2959 43.3567 35.024 43.3567 35.922V36.248H21.3241V35.922C21.3241 35.024 22.1459 34.2959 23.1594 34.2959H41.5214ZM25.7306 32.3437H23.5274V24.5351H25.7306V32.3437Z" fill="white"/>
<path d="M54.1344 34.2002V22.5638H61.8389V24.5922H56.5946V27.365H61.3276V29.3934H56.5946V34.2002H54.1344ZM62.8119 22.5638H65.5676L68.221 27.5752H68.3347L70.9881 22.5638H73.7438L69.4994 30.0866V34.2002H67.0563V30.0866L62.8119 22.5638ZM77.5477 22.5638V34.2002H75.0875V22.5638H77.5477ZM83.275 34.2002V22.5638H87.9341C88.7902 22.5638 89.5042 22.6907 90.0761 22.9445C90.6481 23.1983 91.078 23.5506 91.3659 24.0013C91.6538 24.4483 91.7977 24.9635 91.7977 25.5468C91.7977 26.0013 91.7068 26.401 91.525 26.7456C91.3432 27.0866 91.0932 27.3669 90.775 27.5866C90.4606 27.8025 90.1008 27.9559 89.6955 28.0468V28.1604C90.1386 28.1794 90.5534 28.3044 90.9398 28.5354C91.3299 28.7665 91.6462 29.0903 91.8886 29.507C92.1311 29.9199 92.2523 30.4123 92.2523 30.9843C92.2523 31.6017 92.0989 32.1528 91.7921 32.6377C91.489 33.1188 91.0402 33.4994 90.4455 33.7797C89.8508 34.06 89.1178 34.2002 88.2466 34.2002H83.275ZM85.7352 32.1888H87.7409C88.4265 32.1888 88.9265 32.0581 89.2409 31.7968C89.5553 31.5316 89.7125 31.1794 89.7125 30.74C89.7125 30.418 89.6349 30.1339 89.4796 29.8877C89.3242 29.6415 89.1027 29.4483 88.8148 29.3081C88.5307 29.168 88.1917 29.0979 87.7977 29.0979H85.7352V32.1888ZM85.7352 27.4331H87.5591C87.8962 27.4331 88.1955 27.3744 88.4568 27.257C88.722 27.1358 88.9303 26.9653 89.0818 26.7456C89.2371 26.526 89.3148 26.2627 89.3148 25.9559C89.3148 25.5354 89.1652 25.1964 88.8659 24.9388C88.5705 24.6813 88.15 24.5525 87.6046 24.5525H85.7352V27.4331ZM95.8588 34.2002H93.2224L97.2395 22.5638H100.41L104.421 34.2002H101.785L98.8702 25.2229H98.7793L95.8588 34.2002ZM95.694 29.6263H101.921V31.5468H95.694V29.6263ZM115.555 22.5638V34.2002H113.43L108.367 26.8763H108.282V34.2002H105.822V22.5638H107.981L113.004 29.882H113.106V22.5638H115.555ZM117.588 34.2002V22.5638H120.048V27.6945H120.201L124.389 22.5638H127.338L123.019 27.7741L127.389 34.2002H124.445L121.258 29.4161L120.048 30.8934V34.2002H117.588Z" fill="white"/>
<path d="M26.6209 122.273L29.0499 129.381H29.1479L31.5769 122.273H33.0002L29.8595 131H28.3382L25.1976 122.273H26.6209ZM34.1071 131H32.7093L35.85 122.273H37.3713L40.5119 131H39.1142L36.6468 123.858H36.5787L34.1071 131ZM34.3414 127.582H38.8755V128.69H34.3414V127.582ZM41.7722 131V122.273H43.089V129.866H47.0435V131H41.7722ZM49.8624 122.273V131H48.5456V122.273H49.8624ZM54.6053 131H51.78V122.273H54.6948C55.5499 122.273 56.2843 122.447 56.8979 122.797C57.5115 123.143 57.9817 123.642 58.3084 124.293C58.638 124.94 58.8027 125.717 58.8027 126.624C58.8027 127.533 58.6365 128.314 58.3042 128.967C57.9746 129.621 57.4973 130.124 56.8723 130.476C56.2473 130.825 55.4917 131 54.6053 131ZM53.0968 129.849H54.5328C55.1976 129.849 55.7502 129.724 56.1905 129.474C56.6309 129.222 56.9604 128.857 57.1792 128.379C57.3979 127.899 57.5073 127.314 57.5073 126.624C57.5073 125.939 57.3979 125.358 57.1792 124.881C56.9632 124.403 56.6408 124.041 56.2118 123.794C55.7828 123.547 55.2502 123.423 54.6138 123.423H53.0968V129.849Z" fill="white"/>
<path d="M30.7223 172.382C30.7223 173.651 30.4817 174.73 30.0007 175.621C29.5234 176.511 28.8719 177.191 28.0461 177.66C27.2242 178.126 26.2999 178.359 25.2734 178.359C24.2393 178.359 23.3113 178.124 22.4893 177.655C21.6674 177.185 21.0177 176.505 20.5405 175.615C20.0632 174.725 19.8245 173.647 19.8245 172.382C19.8245 171.113 20.0632 170.034 20.5405 169.143C21.0177 168.253 21.6674 167.575 22.4893 167.109C23.3113 166.64 24.2393 166.405 25.2734 166.405C26.2999 166.405 27.2242 166.64 28.0461 167.109C28.8719 167.575 29.5234 168.253 30.0007 169.143C30.4817 170.034 30.7223 171.113 30.7223 172.382ZM28.228 172.382C28.228 171.56 28.1049 170.867 27.8586 170.302C27.6162 169.738 27.2734 169.31 26.8302 169.018C26.387 168.727 25.8681 168.581 25.2734 168.581C24.6787 168.581 24.1598 168.727 23.7166 169.018C23.2734 169.31 22.9287 169.738 22.6825 170.302C22.4401 170.867 22.3189 171.56 22.3189 172.382C22.3189 173.204 22.4401 173.897 22.6825 174.462C22.9287 175.026 23.2734 175.454 23.7166 175.746C24.1598 176.037 24.6787 176.183 25.2734 176.183C25.8681 176.183 26.387 176.037 26.8302 175.746C27.2734 175.454 27.6162 175.026 27.8586 174.462C28.1049 173.897 28.228 173.204 28.228 172.382ZM34.6924 175.689L34.6981 172.785H35.0504L37.8459 169.473H40.6243L36.8686 173.859H36.2947L34.6924 175.689ZM32.4993 178.2V166.564H34.9197V178.2H32.4993ZM37.9538 178.2L35.3856 174.399L36.9993 172.689L40.789 178.2H37.9538ZM45.4297 178.371C44.5319 178.371 43.7592 178.189 43.1115 177.825C42.4675 177.458 41.9713 176.939 41.6228 176.268C41.2744 175.594 41.1001 174.797 41.1001 173.876C41.1001 172.979 41.2744 172.191 41.6228 171.513C41.9713 170.835 42.4619 170.306 43.0944 169.927C43.7308 169.549 44.477 169.359 45.3331 169.359C45.9088 169.359 46.4448 169.452 46.941 169.638C47.441 169.82 47.8766 170.094 48.2478 170.462C48.6228 170.829 48.9145 171.291 49.1228 171.848C49.3312 172.401 49.4353 173.049 49.4353 173.791V174.456H42.066V172.956H47.1569C47.1569 172.607 47.0812 172.299 46.9297 172.03C46.7781 171.761 46.5679 171.551 46.299 171.399C46.0338 171.244 45.7251 171.166 45.3728 171.166C45.0054 171.166 44.6797 171.251 44.3956 171.422C44.1153 171.588 43.8956 171.814 43.7365 172.098C43.5774 172.378 43.496 172.691 43.4922 173.035V174.462C43.4922 174.893 43.5717 175.266 43.7308 175.581C43.8937 175.895 44.1228 176.138 44.4183 176.308C44.7138 176.479 45.0641 176.564 45.4694 176.564C45.7384 176.564 45.9846 176.526 46.2081 176.45C46.4316 176.374 46.6228 176.261 46.7819 176.109C46.941 175.958 47.0622 175.772 47.1456 175.552L49.3842 175.7C49.2706 176.238 49.0376 176.708 48.6853 177.109C48.3369 177.507 47.8861 177.818 47.3331 178.041C46.7838 178.261 46.1494 178.371 45.4297 178.371ZM54.9581 178.371C54.0641 178.371 53.2952 178.181 52.6513 177.802C52.0111 177.42 51.5187 176.89 51.174 176.212C50.8331 175.534 50.6626 174.753 50.6626 173.871C50.6626 172.977 50.835 172.193 51.1797 171.518C51.5281 170.84 52.0225 170.312 52.6626 169.933C53.3028 169.551 54.0641 169.359 54.9467 169.359C55.7081 169.359 56.3747 169.498 56.9467 169.774C57.5187 170.051 57.9713 170.439 58.3047 170.939C58.638 171.439 58.8217 172.026 58.8558 172.7H56.5717C56.5073 172.265 56.3369 171.914 56.0603 171.649C55.7876 171.38 55.4297 171.246 54.9865 171.246C54.6115 171.246 54.2838 171.348 54.0035 171.552C53.727 171.753 53.5111 172.047 53.3558 172.433C53.2005 172.82 53.1228 173.287 53.1228 173.837C53.1228 174.393 53.1986 174.867 53.3501 175.257C53.5054 175.647 53.7232 175.945 54.0035 176.149C54.2838 176.354 54.6115 176.456 54.9865 176.456C55.263 176.456 55.5111 176.399 55.7308 176.285C55.9543 176.172 56.138 176.007 56.2819 175.791C56.4297 175.571 56.5263 175.308 56.5717 175.001H58.8558C58.8179 175.668 58.6361 176.255 58.3103 176.763C57.9884 177.266 57.5433 177.66 56.9751 177.945C56.4069 178.229 55.7346 178.371 54.9581 178.371ZM62.826 173.155V178.2H60.4055V166.564H62.7578V171.013H62.8601C63.057 170.498 63.3752 170.094 63.8146 169.802C64.254 169.507 64.8051 169.359 65.468 169.359C66.0741 169.359 66.6025 169.492 67.0532 169.757C67.5078 170.018 67.8601 170.395 68.1101 170.888C68.3638 171.376 68.4888 171.962 68.4851 172.643V178.2H66.0646V173.075C66.0684 172.537 65.932 172.119 65.6555 171.82C65.3828 171.52 65.0002 171.371 64.5078 171.371C64.1782 171.371 63.8866 171.441 63.6328 171.581C63.3828 171.721 63.1858 171.926 63.0419 172.195C62.9017 172.46 62.8298 172.78 62.826 173.155ZM75.9865 174.484V169.473H78.4069V178.2H76.0831V176.615H75.9922C75.7952 177.126 75.4675 177.537 75.0092 177.848C74.5547 178.159 73.9997 178.314 73.3444 178.314C72.7611 178.314 72.2478 178.181 71.8047 177.916C71.3615 177.651 71.0149 177.274 70.7649 176.785C70.5187 176.297 70.3937 175.712 70.3899 175.03V169.473H72.8103V174.598C72.8141 175.113 72.9524 175.52 73.2251 175.82C73.4978 176.119 73.8634 176.268 74.3217 176.268C74.6134 176.268 74.8861 176.202 75.1399 176.07C75.3937 175.933 75.5982 175.732 75.7535 175.467C75.9126 175.202 75.9903 174.874 75.9865 174.484ZM82.5362 175.689L82.5419 172.785H82.8942L85.6896 169.473H88.468L84.7123 173.859H84.1385L82.5362 175.689ZM80.343 178.2V166.564H82.7635V178.2H80.343ZM85.7976 178.2L83.2294 174.399L84.843 172.689L88.6328 178.2H85.7976ZM91.3771 178.2L89.0021 169.473H91.451L92.8032 175.337H92.8828L94.2919 169.473H96.6953L98.1271 175.302H98.201L99.5305 169.473H101.974L99.6044 178.2H97.0419L95.5419 172.712H95.4339L93.9339 178.2H91.3771ZM108.861 174.484V169.473H111.282V178.2H108.958V176.615H108.867C108.67 177.126 108.343 177.537 107.884 177.848C107.43 178.159 106.875 178.314 106.219 178.314C105.636 178.314 105.123 178.181 104.68 177.916C104.236 177.651 103.89 177.274 103.64 176.785C103.394 176.297 103.269 175.712 103.265 175.03V169.473H105.685V174.598C105.689 175.113 105.827 175.52 106.1 175.82C106.373 176.119 106.738 176.268 107.197 176.268C107.488 176.268 107.761 176.202 108.015 176.07C108.269 175.933 108.473 175.732 108.629 175.467C108.788 175.202 108.865 174.874 108.861 174.484ZM127.66 172.382C127.66 173.651 127.419 174.73 126.938 175.621C126.461 176.511 125.809 177.191 124.984 177.66C124.162 178.126 123.237 178.359 122.211 178.359C121.177 178.359 120.249 178.124 119.427 177.655C118.605 177.185 117.955 176.505 117.478 175.615C117.001 174.725 116.762 173.647 116.762 172.382C116.762 171.113 117.001 170.034 117.478 169.143C117.955 168.253 118.605 167.575 119.427 167.109C120.249 166.64 121.177 166.405 122.211 166.405C123.237 166.405 124.162 166.64 124.984 167.109C125.809 167.575 126.461 168.253 126.938 169.143C127.419 170.034 127.66 171.113 127.66 172.382ZM125.165 172.382C125.165 171.56 125.042 170.867 124.796 170.302C124.554 169.738 124.211 169.31 123.768 169.018C123.325 168.727 122.806 168.581 122.211 168.581C121.616 168.581 121.097 168.727 120.654 169.018C120.211 169.31 119.866 169.738 119.62 170.302C119.378 170.867 119.256 171.56 119.256 172.382C119.256 173.204 119.378 173.897 119.62 174.462C119.866 175.026 120.211 175.454 120.654 175.746C121.097 176.037 121.616 176.183 122.211 176.183C122.806 176.183 123.325 176.037 123.768 175.746C124.211 175.454 124.554 175.026 124.796 174.462C125.042 173.897 125.165 173.204 125.165 172.382ZM129.391 178.2V176.757L133.664 171.467V171.405H129.539V169.473H136.579V171.047L132.567 176.206V176.268H136.727V178.2H129.391ZM138.577 178.2V169.473H140.998V178.2H138.577ZM139.793 168.348C139.433 168.348 139.125 168.229 138.867 167.99C138.613 167.748 138.486 167.458 138.486 167.121C138.486 166.787 138.613 166.501 138.867 166.263C139.125 166.02 139.433 165.899 139.793 165.899C140.153 165.899 140.46 166.02 140.714 166.263C140.971 166.501 141.1 166.787 141.1 167.121C141.1 167.458 140.971 167.748 140.714 167.99C140.46 168.229 140.153 168.348 139.793 168.348ZM146.88 178.371C145.997 178.371 145.234 178.183 144.59 177.808C143.95 177.429 143.456 176.903 143.107 176.229C142.759 175.551 142.584 174.765 142.584 173.871C142.584 172.969 142.759 172.181 143.107 171.507C143.456 170.829 143.95 170.302 144.59 169.927C145.234 169.549 145.997 169.359 146.88 169.359C147.763 169.359 148.524 169.549 149.164 169.927C149.808 170.302 150.304 170.829 150.653 171.507C151.001 172.181 151.175 172.969 151.175 173.871C151.175 174.765 151.001 175.551 150.653 176.229C150.304 176.903 149.808 177.429 149.164 177.808C148.524 178.183 147.763 178.371 146.88 178.371ZM146.891 176.496C147.293 176.496 147.628 176.382 147.897 176.155C148.166 175.924 148.369 175.609 148.505 175.212C148.645 174.814 148.715 174.361 148.715 173.854C148.715 173.346 148.645 172.893 148.505 172.496C148.369 172.098 148.166 171.784 147.897 171.552C147.628 171.321 147.293 171.206 146.891 171.206C146.486 171.206 146.145 171.321 145.869 171.552C145.596 171.784 145.389 172.098 145.249 172.496C145.113 172.893 145.045 173.346 145.045 173.854C145.045 174.361 145.113 174.814 145.249 175.212C145.389 175.609 145.596 175.924 145.869 176.155C146.145 176.382 146.486 176.496 146.891 176.496ZM152.749 178.2V169.473H155.056V171.013H155.158C155.34 170.501 155.643 170.098 156.067 169.802C156.492 169.507 156.999 169.359 157.59 169.359C158.189 169.359 158.698 169.509 159.119 169.808C159.539 170.104 159.819 170.505 159.959 171.013H160.05C160.228 170.513 160.55 170.113 161.016 169.814C161.486 169.511 162.041 169.359 162.681 169.359C163.495 169.359 164.156 169.619 164.664 170.138C165.175 170.653 165.431 171.384 165.431 172.331V178.2H163.016V172.808C163.016 172.323 162.888 171.96 162.63 171.717C162.372 171.475 162.05 171.354 161.664 171.354C161.225 171.354 160.882 171.494 160.636 171.774C160.389 172.051 160.266 172.416 160.266 172.871V178.2H157.92V172.757C157.92 172.329 157.797 171.988 157.55 171.734C157.308 171.48 156.988 171.354 156.59 171.354C156.321 171.354 156.079 171.422 155.863 171.558C155.651 171.691 155.482 171.878 155.357 172.121C155.232 172.359 155.17 172.64 155.17 172.962V178.2H152.749ZM169.832 178.365C169.275 178.365 168.779 178.268 168.343 178.075C167.907 177.878 167.563 177.588 167.309 177.206C167.059 176.82 166.934 176.338 166.934 175.763C166.934 175.278 167.023 174.871 167.201 174.541C167.379 174.212 167.621 173.946 167.928 173.746C168.235 173.545 168.584 173.393 168.974 173.291C169.368 173.189 169.781 173.117 170.212 173.075C170.72 173.022 171.129 172.973 171.44 172.927C171.75 172.878 171.976 172.806 172.116 172.712C172.256 172.617 172.326 172.477 172.326 172.291V172.257C172.326 171.897 172.212 171.619 171.985 171.422C171.762 171.225 171.443 171.126 171.031 171.126C170.595 171.126 170.248 171.223 169.991 171.416C169.733 171.605 169.563 171.844 169.479 172.132L167.241 171.95C167.354 171.42 167.578 170.962 167.911 170.575C168.245 170.185 168.674 169.886 169.201 169.677C169.731 169.465 170.345 169.359 171.042 169.359C171.527 169.359 171.991 169.416 172.434 169.53C172.881 169.643 173.277 169.82 173.621 170.058C173.97 170.297 174.245 170.604 174.445 170.979C174.646 171.35 174.746 171.795 174.746 172.314V178.2H172.451V176.99H172.383C172.243 177.263 172.055 177.503 171.82 177.712C171.585 177.916 171.303 178.077 170.974 178.195C170.644 178.308 170.263 178.365 169.832 178.365ZM170.525 176.695C170.881 176.695 171.195 176.624 171.468 176.484C171.741 176.34 171.955 176.147 172.11 175.905C172.265 175.662 172.343 175.388 172.343 175.081V174.155C172.267 174.204 172.163 174.249 172.031 174.291C171.902 174.329 171.756 174.365 171.593 174.399C171.43 174.429 171.267 174.458 171.104 174.484C170.941 174.507 170.794 174.528 170.661 174.547C170.377 174.588 170.129 174.655 169.917 174.746C169.705 174.837 169.54 174.96 169.423 175.115C169.305 175.266 169.246 175.456 169.246 175.683C169.246 176.013 169.366 176.265 169.604 176.439C169.847 176.609 170.154 176.695 170.525 176.695Z" fill="white"/>
<path d="M24.5234 87.4559C23.5461 87.4521 22.7052 87.2116 22.0007 86.7343C21.2999 86.257 20.7602 85.5657 20.3814 84.6604C20.0064 83.7551 19.8208 82.6661 19.8245 81.3934C19.8245 80.1244 20.012 79.043 20.387 78.1491C20.7658 77.2551 21.3056 76.5752 22.0064 76.1093C22.7109 75.6396 23.5499 75.4047 24.5234 75.4047C25.4969 75.4047 26.334 75.6396 27.0348 76.1093C27.7393 76.579 28.281 77.2608 28.6598 78.1547C29.0386 79.0449 29.2261 80.1244 29.2223 81.3934C29.2223 82.6699 29.0329 83.7608 28.6541 84.6661C28.2791 85.5714 27.7412 86.2627 27.0405 86.74C26.3397 87.2172 25.5007 87.4559 24.5234 87.4559ZM24.5234 85.4161C25.1901 85.4161 25.7223 85.0809 26.12 84.4104C26.5177 83.74 26.7147 82.7343 26.7109 81.3934C26.7109 80.5108 26.62 79.776 26.4382 79.1888C26.2602 78.6017 26.0064 78.1604 25.6768 77.865C25.3511 77.5695 24.9666 77.4218 24.5234 77.4218C23.8605 77.4218 23.3302 77.7532 22.9325 78.4161C22.5348 79.079 22.334 80.0714 22.3302 81.3934C22.3302 82.2873 22.4192 83.0335 22.5973 83.632C22.7791 84.2267 23.0348 84.6737 23.3643 84.9729C23.6939 85.2684 24.0802 85.4161 24.5234 85.4161ZM35.539 87.4559C34.5618 87.4521 33.7209 87.2116 33.0163 86.7343C32.3156 86.257 31.7758 85.5657 31.397 84.6604C31.022 83.7551 30.8364 82.6661 30.8402 81.3934C30.8402 80.1244 31.0277 79.043 31.4027 78.1491C31.7815 77.2551 32.3212 76.5752 33.022 76.1093C33.7265 75.6396 34.5656 75.4047 35.539 75.4047C36.5125 75.4047 37.3496 75.6396 38.0504 76.1093C38.7549 76.579 39.2966 77.2608 39.6754 78.1547C40.0542 79.0449 40.2417 80.1244 40.2379 81.3934C40.2379 82.6699 40.0485 83.7608 39.6697 84.6661C39.2947 85.5714 38.7568 86.2627 38.0561 86.74C37.3553 87.2172 36.5163 87.4559 35.539 87.4559ZM35.539 85.4161C36.2057 85.4161 36.7379 85.0809 37.1356 84.4104C37.5334 83.74 37.7303 82.7343 37.7265 81.3934C37.7265 80.5108 37.6356 79.776 37.4538 79.1888C37.2758 78.6017 37.022 78.1604 36.6924 77.865C36.3667 77.5695 35.9822 77.4218 35.539 77.4218C34.8762 77.4218 34.3459 77.7532 33.9481 78.4161C33.5504 79.079 33.3496 80.0714 33.3459 81.3934C33.3459 82.2873 33.4349 83.0335 33.6129 83.632C33.7947 84.2267 34.0504 84.6737 34.3799 84.9729C34.7095 85.2684 35.0959 85.4161 35.539 85.4161ZM46.5547 87.4559C45.5774 87.4521 44.7365 87.2116 44.0319 86.7343C43.3312 86.257 42.7914 85.5657 42.4126 84.6604C42.0376 83.7551 41.852 82.6661 41.8558 81.3934C41.8558 80.1244 42.0433 79.043 42.4183 78.1491C42.7971 77.2551 43.3369 76.5752 44.0376 76.1093C44.7422 75.6396 45.5812 75.4047 46.5547 75.4047C47.5281 75.4047 48.3653 75.6396 49.066 76.1093C49.7706 76.579 50.3122 77.2608 50.691 78.1547C51.0698 79.0449 51.2573 80.1244 51.2535 81.3934C51.2535 82.6699 51.0641 83.7608 50.6853 84.6661C50.3103 85.5714 49.7725 86.2627 49.0717 86.74C48.371 87.2172 47.5319 87.4559 46.5547 87.4559ZM46.5547 85.4161C47.2213 85.4161 47.7535 85.0809 48.1513 84.4104C48.549 83.74 48.746 82.7343 48.7422 81.3934C48.7422 80.5108 48.6513 79.776 48.4694 79.1888C48.2914 78.6017 48.0376 78.1604 47.7081 77.865C47.3823 77.5695 46.9978 77.4218 46.5547 77.4218C45.8918 77.4218 45.3615 77.7532 44.9638 78.4161C44.566 79.079 44.3653 80.0714 44.3615 81.3934C44.3615 82.2873 44.4505 83.0335 44.6285 83.632C44.8103 84.2267 45.066 84.6737 45.3956 84.9729C45.7251 85.2684 46.1115 85.4161 46.5547 85.4161ZM57.5703 87.4559C56.593 87.4521 55.7521 87.2116 55.0476 86.7343C54.3468 86.257 53.807 85.5657 53.4282 84.6604C53.0532 83.7551 52.8676 82.6661 52.8714 81.3934C52.8714 80.1244 53.0589 79.043 53.4339 78.1491C53.8127 77.2551 54.3525 76.5752 55.0532 76.1093C55.7578 75.6396 56.5968 75.4047 57.5703 75.4047C58.5438 75.4047 59.3809 75.6396 60.0817 76.1093C60.7862 76.579 61.3279 77.2608 61.7067 78.1547C62.0854 79.0449 62.2729 80.1244 62.2692 81.3934C62.2692 82.6699 62.0798 83.7608 61.701 84.6661C61.326 85.5714 60.7881 86.2627 60.0873 86.74C59.3866 87.2172 58.5476 87.4559 57.5703 87.4559ZM57.5703 85.4161C58.237 85.4161 58.7692 85.0809 59.1669 84.4104C59.5646 83.74 59.7616 82.7343 59.7578 81.3934C59.7578 80.5108 59.6669 79.776 59.4851 79.1888C59.307 78.6017 59.0532 78.1604 58.7237 77.865C58.3979 77.5695 58.0135 77.4218 57.5703 77.4218C56.9074 77.4218 56.3771 77.7532 55.9794 78.4161C55.5817 79.079 55.3809 80.0714 55.3771 81.3934C55.3771 82.2873 55.4661 83.0335 55.6442 83.632C55.826 84.2267 56.0817 84.6737 56.4112 84.9729C56.7407 85.2684 57.1271 85.4161 57.5703 85.4161ZM71.4297 87.2002V85.4275L75.5717 81.5922C75.924 81.2513 76.2194 80.9445 76.4581 80.6718C76.7005 80.3991 76.8842 80.132 77.0092 79.8706C77.1342 79.6055 77.1967 79.3195 77.1967 79.0127C77.1967 78.6718 77.1191 78.3782 76.9638 78.132C76.8085 77.882 76.5963 77.6907 76.3274 77.5581C76.0585 77.4218 75.7535 77.3536 75.4126 77.3536C75.0566 77.3536 74.746 77.4256 74.4808 77.5695C74.2156 77.7135 74.0111 77.9199 73.8672 78.1888C73.7232 78.4578 73.6513 78.7778 73.6513 79.1491H71.316C71.316 78.3877 71.4884 77.7267 71.8331 77.1661C72.1778 76.6055 72.6607 76.1718 73.2819 75.865C73.9031 75.5581 74.6191 75.4047 75.4297 75.4047C76.263 75.4047 76.9884 75.5525 77.6058 75.8479C78.227 76.1396 78.71 76.5449 79.0547 77.0638C79.3994 77.5828 79.5717 78.1775 79.5717 78.8479C79.5717 79.2873 79.4846 79.721 79.3103 80.1491C79.1399 80.5771 78.835 81.0525 78.3956 81.5752C77.9562 82.0941 77.3369 82.7172 76.5376 83.4445L74.8388 85.1093V85.1888H79.7251V87.2002H71.4297ZM85.8089 87.3593C84.9604 87.3593 84.2048 87.2135 83.5419 86.9218C82.8828 86.6263 82.362 86.221 81.9794 85.7059C81.6006 85.1869 81.4055 84.5885 81.3942 83.9104H83.8714C83.8866 84.1945 83.9794 84.4445 84.1498 84.6604C84.3241 84.8725 84.5551 85.0373 84.843 85.1547C85.1309 85.2722 85.4548 85.3309 85.8146 85.3309C86.1896 85.3309 86.521 85.2646 86.8089 85.132C87.0968 84.9994 87.3222 84.8157 87.4851 84.5809C87.6479 84.346 87.7294 84.0752 87.7294 83.7684C87.7294 83.4578 87.6423 83.1831 87.468 82.9445C87.2976 82.7021 87.0513 82.5127 86.7294 82.3763C86.4112 82.24 86.0324 82.1718 85.593 82.1718H84.5078V80.365H85.593C85.9642 80.365 86.2919 80.3006 86.576 80.1718C86.8638 80.043 87.0873 79.865 87.2464 79.6377C87.4055 79.4066 87.4851 79.1377 87.4851 78.8309C87.4851 78.5392 87.415 78.2835 87.2748 78.0638C87.1385 77.8403 86.9453 77.6661 86.6953 77.5411C86.4491 77.4161 86.1612 77.3536 85.8317 77.3536C85.4983 77.3536 85.1934 77.4142 84.9169 77.5354C84.6404 77.6528 84.4188 77.8214 84.2521 78.0411C84.0854 78.2608 83.9964 78.5184 83.9851 78.8138H81.6271C81.6385 78.1434 81.8298 77.5525 82.201 77.0411C82.5722 76.5297 83.0722 76.1301 83.701 75.8422C84.3335 75.5506 85.0476 75.4047 85.843 75.4047C86.646 75.4047 87.3487 75.5506 87.951 75.8422C88.5532 76.1339 89.021 76.5278 89.3544 77.0241C89.6915 77.5165 89.8582 78.0695 89.8544 78.6831C89.8582 79.3347 89.6555 79.8782 89.2464 80.3138C88.8411 80.7494 88.3127 81.026 87.6612 81.1434V81.2343C88.5173 81.3441 89.1688 81.6415 89.6157 82.1263C90.0665 82.6074 90.29 83.2097 90.2862 83.9331C90.29 84.596 90.0987 85.185 89.7123 85.7002C89.3298 86.2153 88.8013 86.6206 88.1271 86.9161C87.4529 87.2116 86.6801 87.3593 85.8089 87.3593ZM96.5206 87.3593C95.9221 87.3555 95.3444 87.2551 94.7876 87.0581C94.2346 86.8612 93.7384 86.5411 93.299 86.0979C92.8596 85.6547 92.5111 85.0676 92.2535 84.3366C91.9997 83.6055 91.8728 82.7078 91.8728 81.6434C91.8766 80.6661 91.9884 79.793 92.2081 79.0241C92.4316 78.2513 92.7497 77.596 93.1626 77.0581C93.5793 76.5203 94.0774 76.1112 94.6569 75.8309C95.2365 75.5468 95.8861 75.4047 96.6058 75.4047C97.3823 75.4047 98.0679 75.5563 98.6626 75.8593C99.2573 76.1585 99.7346 76.5657 100.094 77.0809C100.458 77.596 100.678 78.1737 100.754 78.8138H98.3274C98.2327 78.4085 98.0338 78.0903 97.7308 77.8593C97.4278 77.6282 97.0528 77.5127 96.6058 77.5127C95.8482 77.5127 95.2725 77.8422 94.8785 78.5013C94.4884 79.1604 94.2895 80.0563 94.2819 81.1888H94.3615C94.5357 80.8441 94.7706 80.5506 95.066 80.3081C95.3653 80.0619 95.7043 79.8744 96.0831 79.7456C96.4656 79.6131 96.8691 79.5468 97.2933 79.5468C97.9827 79.5468 98.5963 79.7097 99.1342 80.0354C99.6721 80.3574 100.096 80.8006 100.407 81.365C100.718 81.9294 100.873 82.5752 100.873 83.3025C100.873 84.0903 100.689 84.7911 100.322 85.4047C99.9581 86.0184 99.4486 86.4994 98.7933 86.8479C98.1418 87.1926 97.3842 87.3631 96.5206 87.3593ZM96.5092 85.4275C96.888 85.4275 97.227 85.3366 97.5263 85.1547C97.8255 84.9729 98.0603 84.7267 98.2308 84.4161C98.4013 84.1055 98.4865 83.757 98.4865 83.3706C98.4865 82.9843 98.4013 82.6377 98.2308 82.3309C98.0641 82.0241 97.8331 81.7797 97.5376 81.5979C97.2422 81.4161 96.905 81.3252 96.5263 81.3252C96.2422 81.3252 95.9789 81.3782 95.7365 81.4843C95.4978 81.5903 95.2876 81.7381 95.1058 81.9275C94.9278 82.1169 94.7876 82.3366 94.6853 82.5866C94.5831 82.8328 94.5319 83.096 94.5319 83.3763C94.5319 83.7513 94.6172 84.0941 94.7876 84.4047C94.9619 84.7153 95.1967 84.9635 95.4922 85.1491C95.7914 85.3347 96.1304 85.4275 96.5092 85.4275ZM106.918 87.3593C106.07 87.3593 105.314 87.2135 104.651 86.9218C103.992 86.6263 103.471 86.221 103.089 85.7059C102.71 85.1869 102.515 84.5885 102.504 83.9104H104.981C104.996 84.1945 105.089 84.4445 105.259 84.6604C105.433 84.8725 105.665 85.0373 105.952 85.1547C106.24 85.2722 106.564 85.3309 106.924 85.3309C107.299 85.3309 107.63 85.2646 107.918 85.132C108.206 84.9994 108.432 84.8157 108.594 84.5809C108.757 84.346 108.839 84.0752 108.839 83.7684C108.839 83.4578 108.752 83.1831 108.577 82.9445C108.407 82.7021 108.161 82.5127 107.839 82.3763C107.521 82.24 107.142 82.1718 106.702 82.1718H105.617V80.365H106.702C107.074 80.365 107.401 80.3006 107.685 80.1718C107.973 80.043 108.197 79.865 108.356 79.6377C108.515 79.4066 108.594 79.1377 108.594 78.8309C108.594 78.5392 108.524 78.2835 108.384 78.0638C108.248 77.8403 108.055 77.6661 107.805 77.5411C107.558 77.4161 107.271 77.3536 106.941 77.3536C106.608 77.3536 106.303 77.4142 106.026 77.5354C105.75 77.6528 105.528 77.8214 105.361 78.0411C105.195 78.2608 105.106 78.5184 105.094 78.8138H102.736C102.748 78.1434 102.939 77.5525 103.31 77.0411C103.682 76.5297 104.182 76.1301 104.81 75.8422C105.443 75.5506 106.157 75.4047 106.952 75.4047C107.755 75.4047 108.458 75.5506 109.06 75.8422C109.663 76.1339 110.13 76.5278 110.464 77.0241C110.801 77.5165 110.968 78.0695 110.964 78.6831C110.968 79.3347 110.765 79.8782 110.356 80.3138C109.95 80.7494 109.422 81.026 108.771 81.1434V81.2343C109.627 81.3441 110.278 81.6415 110.725 82.1263C111.176 82.6074 111.399 83.2097 111.396 83.9331C111.399 84.596 111.208 85.185 110.822 85.7002C110.439 86.2153 109.911 86.6206 109.236 86.9161C108.562 87.2116 107.79 87.3593 106.918 87.3593ZM124.911 87.3593C124.036 87.3593 123.258 87.2172 122.576 86.9331C121.898 86.6453 121.366 86.2532 120.979 85.757C120.593 85.2608 120.4 84.6983 120.4 84.0695C120.4 83.5847 120.51 83.1396 120.729 82.7343C120.953 82.3252 121.256 81.9862 121.638 81.7172C122.021 81.4445 122.449 81.2703 122.923 81.1945V81.115C122.301 80.99 121.798 80.6888 121.411 80.2116C121.025 79.7305 120.832 79.1718 120.832 78.5354C120.832 77.9331 121.008 77.3972 121.36 76.9275C121.712 76.454 122.195 76.0828 122.809 75.8138C123.426 75.5411 124.127 75.4047 124.911 75.4047C125.695 75.4047 126.394 75.5411 127.008 75.8138C127.625 76.0866 128.11 76.4597 128.462 76.9331C128.815 77.4028 128.993 77.9369 128.996 78.5354C128.993 79.1756 128.796 79.7343 128.406 80.2116C128.015 80.6888 127.515 80.99 126.906 81.115V81.1945C127.371 81.2703 127.794 81.4445 128.173 81.7172C128.555 81.9862 128.858 82.3252 129.082 82.7343C129.309 83.1396 129.424 83.5847 129.428 84.0695C129.424 84.6983 129.229 85.2608 128.843 85.757C128.457 86.2532 127.923 86.6453 127.241 86.9331C126.563 87.2172 125.786 87.3593 124.911 87.3593ZM124.911 85.5525C125.301 85.5525 125.642 85.4824 125.934 85.3422C126.226 85.1983 126.453 85.0013 126.616 84.7513C126.782 84.4975 126.866 84.2059 126.866 83.8763C126.866 83.5392 126.781 83.2419 126.61 82.9843C126.44 82.7229 126.209 82.5184 125.917 82.3706C125.625 82.2191 125.29 82.1434 124.911 82.1434C124.536 82.1434 124.201 82.2191 123.906 82.3706C123.61 82.5184 123.377 82.7229 123.207 82.9843C123.04 83.2419 122.957 83.5392 122.957 83.8763C122.957 84.2059 123.038 84.4975 123.201 84.7513C123.364 85.0013 123.593 85.1983 123.888 85.3422C124.184 85.4824 124.525 85.5525 124.911 85.5525ZM124.911 80.3536C125.237 80.3536 125.527 80.2873 125.781 80.1547C126.034 80.0222 126.233 79.8385 126.377 79.6036C126.521 79.3688 126.593 79.0979 126.593 78.7911C126.593 78.4881 126.521 78.2229 126.377 77.9956C126.233 77.7646 126.036 77.5847 125.786 77.4559C125.536 77.3233 125.245 77.257 124.911 77.257C124.582 77.257 124.29 77.3233 124.036 77.4559C123.782 77.5847 123.584 77.7646 123.44 77.9956C123.299 78.2229 123.229 78.4881 123.229 78.7911C123.229 79.0979 123.301 79.3688 123.445 79.6036C123.589 79.8385 123.788 80.0222 124.042 80.1547C124.296 80.2873 124.585 80.3536 124.911 80.3536ZM135.45 87.3593C134.601 87.3593 133.845 87.2135 133.183 86.9218C132.523 86.6263 132.003 86.221 131.62 85.7059C131.241 85.1869 131.046 84.5885 131.035 83.9104H133.512C133.527 84.1945 133.62 84.4445 133.79 84.6604C133.965 84.8725 134.196 85.0373 134.484 85.1547C134.772 85.2722 135.095 85.3309 135.455 85.3309C135.83 85.3309 136.162 85.2646 136.45 85.132C136.737 84.9994 136.963 84.8157 137.126 84.5809C137.289 84.346 137.37 84.0752 137.37 83.7684C137.37 83.4578 137.283 83.1831 137.109 82.9445C136.938 82.7021 136.692 82.5127 136.37 82.3763C136.052 82.24 135.673 82.1718 135.234 82.1718H134.148V80.365H135.234C135.605 80.365 135.933 80.3006 136.217 80.1718C136.504 80.043 136.728 79.865 136.887 79.6377C137.046 79.4066 137.126 79.1377 137.126 78.8309C137.126 78.5392 137.056 78.2835 136.915 78.0638C136.779 77.8403 136.586 77.6661 136.336 77.5411C136.09 77.4161 135.802 77.3536 135.472 77.3536C135.139 77.3536 134.834 77.4142 134.558 77.5354C134.281 77.6528 134.059 77.8214 133.893 78.0411C133.726 78.2608 133.637 78.5184 133.626 78.8138H131.268C131.279 78.1434 131.47 77.5525 131.842 77.0411C132.213 76.5297 132.713 76.1301 133.342 75.8422C133.974 75.5506 134.688 75.4047 135.484 75.4047C136.287 75.4047 136.989 75.5506 137.592 75.8422C138.194 76.1339 138.662 76.5278 138.995 77.0241C139.332 77.5165 139.499 78.0695 139.495 78.6831C139.499 79.3347 139.296 79.8782 138.887 80.3138C138.482 80.7494 137.953 81.026 137.302 81.1434V81.2343C138.158 81.3441 138.809 81.6415 139.256 82.1263C139.707 82.6074 139.931 83.2097 139.927 83.9331C139.931 84.596 139.739 85.185 139.353 85.7002C138.97 86.2153 138.442 86.6206 137.768 86.9161C137.093 87.2116 136.321 87.3593 135.45 87.3593ZM146.161 87.3593C145.563 87.3555 144.985 87.2551 144.428 87.0581C143.875 86.8612 143.379 86.5411 142.94 86.0979C142.5 85.6547 142.152 85.0676 141.894 84.3366C141.64 83.6055 141.513 82.7078 141.513 81.6434C141.517 80.6661 141.629 79.793 141.849 79.0241C142.072 78.2513 142.39 77.596 142.803 77.0581C143.22 76.5203 143.718 76.1112 144.298 75.8309C144.877 75.5468 145.527 75.4047 146.246 75.4047C147.023 75.4047 147.709 75.5563 148.303 75.8593C148.898 76.1585 149.375 76.5657 149.735 77.0809C150.099 77.596 150.318 78.1737 150.394 78.8138H147.968C147.873 78.4085 147.674 78.0903 147.371 77.8593C147.068 77.6282 146.693 77.5127 146.246 77.5127C145.489 77.5127 144.913 77.8422 144.519 78.5013C144.129 79.1604 143.93 80.0563 143.923 81.1888H144.002C144.176 80.8441 144.411 80.5506 144.707 80.3081C145.006 80.0619 145.345 79.8744 145.724 79.7456C146.106 79.6131 146.51 79.5468 146.934 79.5468C147.623 79.5468 148.237 79.7097 148.775 80.0354C149.313 80.3574 149.737 80.8006 150.048 81.365C150.358 81.9294 150.513 82.5752 150.513 83.3025C150.513 84.0903 150.33 84.7911 149.962 85.4047C149.599 86.0184 149.089 86.4994 148.434 86.8479C147.782 87.1926 147.025 87.3631 146.161 87.3593ZM146.15 85.4275C146.529 85.4275 146.868 85.3366 147.167 85.1547C147.466 84.9729 147.701 84.7267 147.871 84.4161C148.042 84.1055 148.127 83.757 148.127 83.3706C148.127 82.9843 148.042 82.6377 147.871 82.3309C147.705 82.0241 147.474 81.7797 147.178 81.5979C146.883 81.4161 146.546 81.3252 146.167 81.3252C145.883 81.3252 145.62 81.3782 145.377 81.4843C145.138 81.5903 144.928 81.7381 144.746 81.9275C144.568 82.1169 144.428 82.3366 144.326 82.5866C144.224 82.8328 144.173 83.096 144.173 83.3763C144.173 83.7513 144.258 84.0941 144.428 84.4047C144.602 84.7153 144.837 84.9635 145.133 85.1491C145.432 85.3347 145.771 85.4275 146.15 85.4275ZM152.082 85.1547V83.2172L156.94 75.5638H158.61V78.2456H157.621L154.559 83.0922V83.1831H161.462V85.1547H152.082ZM157.667 87.2002V84.5638L157.712 83.7059V75.5638H160.019V87.2002H157.667ZM174.849 87.3593C173.974 87.3593 173.195 87.2172 172.513 86.9331C171.835 86.6453 171.303 86.2532 170.917 85.757C170.531 85.2608 170.337 84.6983 170.337 84.0695C170.337 83.5847 170.447 83.1396 170.667 82.7343C170.89 82.3252 171.193 81.9862 171.576 81.7172C171.959 81.4445 172.387 81.2703 172.86 81.1945V81.115C172.239 80.99 171.735 80.6888 171.349 80.2116C170.962 79.7305 170.769 79.1718 170.769 78.5354C170.769 77.9331 170.945 77.3972 171.298 76.9275C171.65 76.454 172.133 76.0828 172.746 75.8138C173.364 75.5411 174.065 75.4047 174.849 75.4047C175.633 75.4047 176.332 75.5411 176.945 75.8138C177.563 76.0866 178.048 76.4597 178.4 76.9331C178.752 77.4028 178.93 77.9369 178.934 78.5354C178.93 79.1756 178.733 79.7343 178.343 80.2116C177.953 80.6888 177.453 80.99 176.843 81.115V81.1945C177.309 81.2703 177.731 81.4445 178.11 81.7172C178.493 81.9862 178.796 82.3252 179.019 82.7343C179.246 83.1396 179.362 83.5847 179.366 84.0695C179.362 84.6983 179.167 85.2608 178.781 85.757C178.394 86.2532 177.86 86.6453 177.178 86.9331C176.5 87.2172 175.724 87.3593 174.849 87.3593ZM174.849 85.5525C175.239 85.5525 175.58 85.4824 175.871 85.3422C176.163 85.1983 176.39 85.0013 176.553 84.7513C176.72 84.4975 176.803 84.2059 176.803 83.8763C176.803 83.5392 176.718 83.2419 176.548 82.9843C176.377 82.7229 176.146 82.5184 175.854 82.3706C175.563 82.2191 175.227 82.1434 174.849 82.1434C174.474 82.1434 174.138 82.2191 173.843 82.3706C173.548 82.5184 173.315 82.7229 173.144 82.9843C172.977 83.2419 172.894 83.5392 172.894 83.8763C172.894 84.2059 172.976 84.4975 173.138 84.7513C173.301 85.0013 173.531 85.1983 173.826 85.3422C174.121 85.4824 174.462 85.5525 174.849 85.5525ZM174.849 80.3536C175.174 80.3536 175.464 80.2873 175.718 80.1547C175.972 80.0222 176.171 79.8385 176.315 79.6036C176.459 79.3688 176.531 79.0979 176.531 78.7911C176.531 78.4881 176.459 78.2229 176.315 77.9956C176.171 77.7646 175.974 77.5847 175.724 77.4559C175.474 77.3233 175.182 77.257 174.849 77.257C174.519 77.257 174.227 77.3233 173.974 77.4559C173.72 77.5847 173.521 77.7646 173.377 77.9956C173.237 78.2229 173.167 78.4881 173.167 78.7911C173.167 79.0979 173.239 79.3688 173.383 79.6036C173.527 79.8385 173.726 80.0222 173.979 80.1547C174.233 80.2873 174.523 80.3536 174.849 80.3536ZM181.086 87.2002V85.4275L185.228 81.5922C185.58 81.2513 185.876 80.9445 186.114 80.6718C186.357 80.3991 186.54 80.132 186.665 79.8706C186.79 79.6055 186.853 79.3195 186.853 79.0127C186.853 78.6718 186.775 78.3782 186.62 78.132C186.465 77.882 186.253 77.6907 185.984 77.5581C185.715 77.4218 185.41 77.3536 185.069 77.3536C184.713 77.3536 184.402 77.4256 184.137 77.5695C183.872 77.7135 183.667 77.9199 183.523 78.1888C183.379 78.4578 183.308 78.7778 183.308 79.1491H180.972C180.972 78.3877 181.145 77.7267 181.489 77.1661C181.834 76.6055 182.317 76.1718 182.938 75.865C183.559 75.5581 184.275 75.4047 185.086 75.4047C185.919 75.4047 186.645 75.5525 187.262 75.8479C187.883 76.1396 188.366 76.5449 188.711 77.0638C189.056 77.5828 189.228 78.1775 189.228 78.8479C189.228 79.2873 189.141 79.721 188.967 80.1491C188.796 80.5771 188.491 81.0525 188.052 81.5752C187.612 82.0941 186.993 82.7172 186.194 83.4445L184.495 85.1093V85.1888H189.381V87.2002H181.086ZM195.63 87.3593C195.031 87.3555 194.454 87.2551 193.897 87.0581C193.344 86.8612 192.848 86.5411 192.408 86.0979C191.969 85.6547 191.62 85.0676 191.363 84.3366C191.109 83.6055 190.982 82.7078 190.982 81.6434C190.986 80.6661 191.098 79.793 191.317 79.0241C191.541 78.2513 191.859 77.596 192.272 77.0581C192.689 76.5203 193.187 76.1112 193.766 75.8309C194.346 75.5468 194.995 75.4047 195.715 75.4047C196.492 75.4047 197.177 75.5563 197.772 75.8593C198.367 76.1585 198.844 76.5657 199.204 77.0809C199.567 77.596 199.787 78.1737 199.863 78.8138H197.437C197.342 78.4085 197.143 78.0903 196.84 77.8593C196.537 77.6282 196.162 77.5127 195.715 77.5127C194.958 77.5127 194.382 77.8422 193.988 78.5013C193.598 79.1604 193.399 80.0563 193.391 81.1888H193.471C193.645 80.8441 193.88 80.5506 194.175 80.3081C194.475 80.0619 194.814 79.8744 195.192 79.7456C195.575 79.6131 195.978 79.5468 196.403 79.5468C197.092 79.5468 197.706 79.7097 198.244 80.0354C198.781 80.3574 199.206 80.8006 199.516 81.365C199.827 81.9294 199.982 82.5752 199.982 83.3025C199.982 84.0903 199.799 84.7911 199.431 85.4047C199.067 86.0184 198.558 86.4994 197.903 86.8479C197.251 87.1926 196.494 87.3631 195.63 87.3593ZM195.619 85.4275C195.997 85.4275 196.336 85.3366 196.636 85.1547C196.935 84.9729 197.17 84.7267 197.34 84.4161C197.511 84.1055 197.596 83.757 197.596 83.3706C197.596 82.9843 197.511 82.6377 197.34 82.3309C197.174 82.0241 196.942 81.7797 196.647 81.5979C196.352 81.4161 196.014 81.3252 195.636 81.3252C195.352 81.3252 195.088 81.3782 194.846 81.4843C194.607 81.5903 194.397 81.7381 194.215 81.9275C194.037 82.1169 193.897 82.3366 193.795 82.5866C193.692 82.8328 193.641 83.096 193.641 83.3763C193.641 83.7513 193.727 84.0941 193.897 84.4047C194.071 84.7153 194.306 84.9635 194.602 85.1491C194.901 85.3347 195.24 85.4275 195.619 85.4275ZM205.937 75.4047C206.535 75.4047 207.111 75.5051 207.664 75.7059C208.221 75.9066 208.717 76.2267 209.153 76.6661C209.592 77.1055 209.939 77.6888 210.192 78.4161C210.45 79.1396 210.581 80.0278 210.584 81.0809C210.584 82.0695 210.473 82.9521 210.249 83.7286C210.03 84.5013 209.713 85.1585 209.3 85.7002C208.888 86.2419 208.389 86.6547 207.806 86.9388C207.223 87.2191 206.571 87.3593 205.852 87.3593C205.075 87.3593 204.389 87.2097 203.795 86.9104C203.2 86.6074 202.721 86.1964 202.357 85.6775C201.997 85.1547 201.78 84.5676 201.704 83.9161H204.13C204.225 84.3403 204.424 84.6699 204.727 84.9047C205.03 85.1358 205.405 85.2513 205.852 85.2513C206.609 85.2513 207.185 84.9218 207.579 84.2627C207.973 83.5998 208.172 82.6926 208.175 81.5411H208.096C207.922 81.882 207.687 82.1756 207.391 82.4218C207.096 82.6642 206.757 82.8517 206.374 82.9843C205.995 83.1169 205.592 83.1831 205.164 83.1831C204.478 83.1831 203.867 83.0222 203.329 82.7002C202.791 82.3782 202.367 81.935 202.056 81.3706C201.745 80.8063 201.59 80.1623 201.59 79.4388C201.586 78.6585 201.766 77.9635 202.13 77.3536C202.494 76.7438 203.001 76.2665 203.653 75.9218C204.308 75.5733 205.069 75.401 205.937 75.4047ZM205.954 77.3366C205.571 77.3366 205.23 77.4275 204.931 77.6093C204.636 77.7911 204.401 78.0354 204.227 78.3422C204.056 78.6491 203.973 78.9919 203.977 79.3706C203.977 79.7532 204.06 80.0979 204.227 80.4047C204.397 80.7078 204.628 80.9502 204.92 81.132C205.215 81.31 205.552 81.3991 205.931 81.3991C206.215 81.3991 206.478 81.346 206.721 81.24C206.963 81.1339 207.174 80.9881 207.352 80.8025C207.533 80.6131 207.675 80.3953 207.778 80.1491C207.88 79.9028 207.931 79.6415 207.931 79.365C207.927 78.9975 207.84 78.6604 207.67 78.3536C207.499 78.0468 207.264 77.8006 206.965 77.615C206.666 77.4294 206.329 77.3366 205.954 77.3366Z" fill="white"/>
<path d="M68.9741 132.359C68.1711 132.359 67.4552 132.212 66.8264 131.916C66.2014 131.621 65.7052 131.213 65.3377 130.695C64.9703 130.176 64.779 129.581 64.7639 128.91H67.1502C67.1767 129.361 67.3661 129.727 67.7184 130.007C68.0707 130.287 68.4892 130.427 68.9741 130.427C69.3605 130.427 69.7014 130.342 69.9968 130.172C70.2961 129.998 70.529 129.757 70.6957 129.45C70.8661 129.14 70.9514 128.784 70.9514 128.382C70.9514 127.973 70.8642 127.613 70.69 127.302C70.5196 126.992 70.2828 126.749 69.9798 126.575C69.6767 126.401 69.3302 126.312 68.94 126.308C68.5991 126.308 68.2677 126.378 67.9457 126.518C67.6275 126.659 67.3794 126.85 67.2014 127.092L65.0139 126.7L65.565 120.564H72.6786V122.575H67.5934L67.2923 125.49H67.3605C67.565 125.202 67.8737 124.963 68.2866 124.774C68.6995 124.585 69.1616 124.49 69.673 124.49C70.3737 124.49 70.9987 124.655 71.548 124.984C72.0972 125.314 72.5309 125.766 72.8491 126.342C73.1673 126.914 73.3245 127.573 73.3207 128.32C73.3245 129.104 73.1427 129.801 72.7752 130.41C72.4116 131.016 71.9021 131.494 71.2468 131.842C70.5953 132.187 69.8377 132.359 68.9741 132.359ZM80.1275 120.018L76.3775 133.95H74.2923L78.0423 120.018H80.1275ZM81.271 132.2V130.427L85.413 126.592C85.7653 126.251 86.0607 125.945 86.2994 125.672C86.5418 125.399 86.7255 125.132 86.8505 124.871C86.9755 124.605 87.038 124.32 87.038 124.013C87.038 123.672 86.9604 123.378 86.8051 123.132C86.6498 122.882 86.4376 122.691 86.1687 122.558C85.8998 122.422 85.5948 122.354 85.2539 122.354C84.8979 122.354 84.5873 122.426 84.3221 122.57C84.057 122.713 83.8524 122.92 83.7085 123.189C83.5645 123.458 83.4926 123.778 83.4926 124.149H81.1573C81.1573 123.388 81.3297 122.727 81.6744 122.166C82.0191 121.605 82.502 121.172 83.1232 120.865C83.7445 120.558 84.4604 120.405 85.271 120.405C86.1043 120.405 86.8297 120.552 87.4471 120.848C88.0683 121.14 88.5513 121.545 88.896 122.064C89.2407 122.583 89.413 123.177 89.413 123.848C89.413 124.287 89.3259 124.721 89.1517 125.149C88.9812 125.577 88.6763 126.052 88.2369 126.575C87.7975 127.094 87.1782 127.717 86.3789 128.445L84.6801 130.109V130.189H89.5664V132.2H81.271ZM95.6502 132.359C94.8017 132.359 94.0461 132.213 93.3832 131.922C92.7241 131.626 92.2033 131.221 91.8207 130.706C91.4419 130.187 91.2468 129.588 91.2355 128.91H93.7127C93.7279 129.195 93.8207 129.445 93.9911 129.66C94.1654 129.873 94.3964 130.037 94.6843 130.155C94.9722 130.272 95.2961 130.331 95.6559 130.331C96.0309 130.331 96.3624 130.265 96.6502 130.132C96.9381 129.999 97.1635 129.816 97.3264 129.581C97.4892 129.346 97.5707 129.075 97.5707 128.768C97.5707 128.458 97.4836 128.183 97.3093 127.945C97.1389 127.702 96.8927 127.513 96.5707 127.376C96.2525 127.24 95.8737 127.172 95.4343 127.172H94.3491V125.365H95.4343C95.8055 125.365 96.1332 125.301 96.4173 125.172C96.7052 125.043 96.9286 124.865 97.0877 124.638C97.2468 124.407 97.3264 124.138 97.3264 123.831C97.3264 123.539 97.2563 123.284 97.1161 123.064C96.9798 122.84 96.7866 122.666 96.5366 122.541C96.2904 122.416 96.0025 122.354 95.673 122.354C95.3396 122.354 95.0347 122.414 94.7582 122.535C94.4817 122.653 94.2601 122.821 94.0934 123.041C93.9267 123.261 93.8377 123.518 93.8264 123.814H91.4684C91.4798 123.143 91.6711 122.552 92.0423 122.041C92.4135 121.53 92.9135 121.13 93.5423 120.842C94.1749 120.551 94.8889 120.405 95.6843 120.405C96.4874 120.405 97.19 120.551 97.7923 120.842C98.3946 121.134 98.8624 121.528 99.1957 122.024C99.5328 122.516 99.6995 123.07 99.6957 123.683C99.6995 124.335 99.4968 124.878 99.0877 125.314C98.6824 125.749 98.154 126.026 97.5025 126.143V126.234C98.3586 126.344 99.0101 126.641 99.4571 127.126C99.9078 127.607 100.131 128.21 100.128 128.933C100.131 129.596 99.94 130.185 99.5536 130.7C99.1711 131.215 98.6427 131.621 97.9684 131.916C97.2942 132.212 96.5214 132.359 95.6502 132.359Z" fill="white"/>
<path d="M183.229 128.359C182.631 128.355 182.053 128.255 181.497 128.058C180.943 127.861 180.447 127.541 180.008 127.098C179.568 126.655 179.22 126.068 178.962 125.337C178.709 124.605 178.582 123.708 178.582 122.643C178.586 121.666 178.697 120.793 178.917 120.024C179.14 119.251 179.459 118.596 179.872 118.058C180.288 117.52 180.786 117.111 181.366 116.831C181.945 116.547 182.595 116.405 183.315 116.405C184.091 116.405 184.777 116.556 185.372 116.859C185.966 117.159 186.443 117.566 186.803 118.081C187.167 118.596 187.387 119.174 187.462 119.814H185.036C184.942 119.409 184.743 119.09 184.44 118.859C184.137 118.628 183.762 118.513 183.315 118.513C182.557 118.513 181.981 118.842 181.587 119.501C181.197 120.16 180.998 121.056 180.991 122.189H181.07C181.245 121.844 181.479 121.551 181.775 121.308C182.074 121.062 182.413 120.874 182.792 120.746C183.175 120.613 183.578 120.547 184.002 120.547C184.692 120.547 185.305 120.71 185.843 121.035C186.381 121.357 186.805 121.801 187.116 122.365C187.426 122.929 187.582 123.575 187.582 124.302C187.582 125.09 187.398 125.791 187.031 126.405C186.667 127.018 186.157 127.499 185.502 127.848C184.851 128.193 184.093 128.363 183.229 128.359ZM183.218 126.427C183.597 126.427 183.936 126.337 184.235 126.155C184.534 125.973 184.769 125.727 184.94 125.416C185.11 125.105 185.195 124.757 185.195 124.371C185.195 123.984 185.11 123.638 184.94 123.331C184.773 123.024 184.542 122.78 184.247 122.598C183.951 122.416 183.614 122.325 183.235 122.325C182.951 122.325 182.688 122.378 182.445 122.484C182.207 122.59 181.997 122.738 181.815 122.927C181.637 123.117 181.497 123.337 181.394 123.587C181.292 123.833 181.241 124.096 181.241 124.376C181.241 124.751 181.326 125.094 181.497 125.405C181.671 125.715 181.906 125.963 182.201 126.149C182.5 126.335 182.839 126.427 183.218 126.427ZM193.627 128.359C192.779 128.359 192.023 128.213 191.36 127.922C190.701 127.626 190.18 127.221 189.798 126.706C189.419 126.187 189.224 125.588 189.212 124.91H191.69C191.705 125.195 191.798 125.445 191.968 125.66C192.142 125.873 192.373 126.037 192.661 126.155C192.949 126.272 193.273 126.331 193.633 126.331C194.008 126.331 194.339 126.265 194.627 126.132C194.915 125.999 195.14 125.816 195.303 125.581C195.466 125.346 195.548 125.075 195.548 124.768C195.548 124.458 195.461 124.183 195.286 123.945C195.116 123.702 194.87 123.513 194.548 123.376C194.229 123.24 193.851 123.172 193.411 123.172H192.326V121.365H193.411C193.782 121.365 194.11 121.301 194.394 121.172C194.682 121.043 194.906 120.865 195.065 120.638C195.224 120.407 195.303 120.138 195.303 119.831C195.303 119.539 195.233 119.284 195.093 119.064C194.957 118.84 194.764 118.666 194.514 118.541C194.267 118.416 193.979 118.354 193.65 118.354C193.317 118.354 193.012 118.414 192.735 118.535C192.459 118.653 192.237 118.821 192.07 119.041C191.904 119.261 191.815 119.518 191.803 119.814H189.445C189.457 119.143 189.648 118.552 190.019 118.041C190.39 117.53 190.89 117.13 191.519 116.842C192.152 116.551 192.866 116.405 193.661 116.405C194.464 116.405 195.167 116.551 195.769 116.842C196.372 117.134 196.839 117.528 197.173 118.024C197.51 118.516 197.676 119.07 197.673 119.683C197.676 120.335 197.474 120.878 197.065 121.314C196.659 121.749 196.131 122.026 195.479 122.143V122.234C196.336 122.344 196.987 122.641 197.434 123.126C197.885 123.607 198.108 124.21 198.104 124.933C198.108 125.596 197.917 126.185 197.531 126.7C197.148 127.215 196.62 127.621 195.945 127.916C195.271 128.212 194.498 128.359 193.627 128.359ZM204.174 128.359C203.326 128.359 202.57 128.213 201.907 127.922C201.248 127.626 200.727 127.221 200.345 126.706C199.966 126.187 199.771 125.588 199.759 124.91H202.237C202.252 125.195 202.345 125.445 202.515 125.66C202.689 125.873 202.92 126.037 203.208 126.155C203.496 126.272 203.82 126.331 204.18 126.331C204.555 126.331 204.886 126.265 205.174 126.132C205.462 125.999 205.687 125.816 205.85 125.581C206.013 125.346 206.095 125.075 206.095 124.768C206.095 124.458 206.007 124.183 205.833 123.945C205.663 123.702 205.416 123.513 205.095 123.376C204.776 123.24 204.398 123.172 203.958 123.172H202.873V121.365H203.958C204.329 121.365 204.657 121.301 204.941 121.172C205.229 121.043 205.452 120.865 205.612 120.638C205.771 120.407 205.85 120.138 205.85 119.831C205.85 119.539 205.78 119.284 205.64 119.064C205.504 118.84 205.31 118.666 205.06 118.541C204.814 118.416 204.526 118.354 204.197 118.354C203.863 118.354 203.559 118.414 203.282 118.535C203.006 118.653 202.784 118.821 202.617 119.041C202.451 119.261 202.362 119.518 202.35 119.814H199.992C200.004 119.143 200.195 118.552 200.566 118.041C200.937 117.53 201.437 117.13 202.066 116.842C202.699 116.551 203.413 116.405 204.208 116.405C205.011 116.405 205.714 116.551 206.316 116.842C206.918 117.134 207.386 117.528 207.72 118.024C208.057 118.516 208.223 119.07 208.22 119.683C208.223 120.335 208.021 120.878 207.612 121.314C207.206 121.749 206.678 122.026 206.026 122.143V122.234C206.882 122.344 207.534 122.641 207.981 123.126C208.432 123.607 208.655 124.21 208.651 124.933C208.655 125.596 208.464 126.185 208.077 126.7C207.695 127.215 207.166 127.621 206.492 127.916C205.818 128.212 205.045 128.359 204.174 128.359Z" fill="white"/>
<path d="M259.178 23.6377H256.689C256.644 23.3157 256.551 23.0297 256.411 22.7797C256.271 22.526 256.091 22.31 255.871 22.132C255.651 21.954 255.397 21.8176 255.11 21.7229C254.825 21.6282 254.517 21.5809 254.183 21.5809C253.581 21.5809 253.056 21.7305 252.61 22.0297C252.163 22.3252 251.816 22.757 251.57 23.3252C251.324 23.8896 251.2 24.5752 251.2 25.382C251.2 26.2116 251.324 26.9085 251.57 27.4729C251.82 28.0373 252.168 28.4635 252.615 28.7513C253.062 29.0392 253.579 29.1831 254.166 29.1831C254.496 29.1831 254.801 29.1396 255.081 29.0525C255.365 28.9653 255.617 28.8385 255.837 28.6718C256.056 28.5013 256.238 28.2949 256.382 28.0525C256.53 27.81 256.632 27.5335 256.689 27.2229L259.178 27.2343C259.113 27.7684 258.952 28.2835 258.695 28.7797C258.441 29.2722 258.098 29.7135 257.666 30.1036C257.238 30.49 256.727 30.7968 256.132 31.0241C255.541 31.2475 254.873 31.3593 254.127 31.3593C253.089 31.3593 252.161 31.1244 251.342 30.6547C250.528 30.185 249.884 29.5051 249.411 28.615C248.941 27.7248 248.706 26.6472 248.706 25.382C248.706 24.1131 248.945 23.0335 249.422 22.1434C249.899 21.2532 250.547 20.5752 251.365 20.1093C252.183 19.6396 253.104 19.4047 254.127 19.4047C254.801 19.4047 255.426 19.4994 256.002 19.6888C256.581 19.8782 257.094 20.1547 257.541 20.5184C257.988 20.8782 258.352 21.3195 258.632 21.8422C258.916 22.365 259.098 22.9635 259.178 23.6377ZM260.942 31.2002V19.5638H265.533C266.412 19.5638 267.162 19.721 267.783 20.0354C268.408 20.346 268.883 20.7873 269.209 21.3593C269.538 21.9275 269.703 22.596 269.703 23.365C269.703 24.1377 269.537 24.8025 269.203 25.3593C268.87 25.9123 268.387 26.3366 267.754 26.632C267.126 26.9275 266.364 27.0752 265.47 27.0752H262.396V25.0979H265.073C265.542 25.0979 265.932 25.0335 266.243 24.9047C266.554 24.776 266.785 24.5828 266.936 24.3252C267.092 24.0676 267.169 23.7475 267.169 23.365C267.169 22.9786 267.092 22.6528 266.936 22.3877C266.785 22.1225 266.552 21.9218 266.237 21.7854C265.927 21.6453 265.535 21.5752 265.061 21.5752H263.402V31.2002H260.942ZM267.226 25.9047L270.118 31.2002H267.402L264.573 25.9047H267.226ZM271.442 31.2002V19.5638H279.283V21.5922H273.902V24.365H278.879V26.3934H273.902V29.1718H279.306V31.2002H271.442ZM285.364 31.2002H281.239V19.5638H285.398C286.568 19.5638 287.576 19.7968 288.421 20.2627C289.265 20.7248 289.915 21.3896 290.369 22.257C290.828 23.1244 291.057 24.1623 291.057 25.3706C291.057 26.5828 290.828 27.6244 290.369 28.4956C289.915 29.3669 289.262 30.0354 288.409 30.5013C287.561 30.9672 286.546 31.2002 285.364 31.2002ZM283.699 29.0922H285.262C285.989 29.0922 286.601 28.9635 287.097 28.7059C287.597 28.4445 287.972 28.0411 288.222 27.4956C288.476 26.9464 288.602 26.2381 288.602 25.3706C288.602 24.5108 288.476 23.8081 288.222 23.2627C287.972 22.7172 287.599 22.3157 287.102 22.0581C286.606 21.8006 285.994 21.6718 285.267 21.6718H283.699V29.0922ZM295.34 19.5638V31.2002H292.879V19.5638H295.34ZM296.921 21.5922V19.5638H306.477V21.5922H302.915V31.2002H300.483V21.5922H296.921Z" fill="white"/>
<path d="M243.692 182.2V175.655H245.166V176.767H245.243C245.379 176.392 245.605 176.099 245.921 175.889C246.236 175.676 246.612 175.57 247.05 175.57C247.493 175.57 247.867 175.677 248.171 175.893C248.477 176.106 248.693 176.398 248.818 176.767H248.887C249.031 176.403 249.276 176.114 249.619 175.898C249.966 175.679 250.377 175.57 250.851 175.57C251.453 175.57 251.945 175.76 252.325 176.141C252.706 176.521 252.896 177.077 252.896 177.807V182.2H251.35V178.045C251.35 177.639 251.242 177.342 251.026 177.155C250.81 176.964 250.546 176.869 250.233 176.869C249.861 176.869 249.57 176.986 249.36 177.219C249.152 177.449 249.048 177.748 249.048 178.118V182.2H247.536V177.981C247.536 177.643 247.433 177.373 247.229 177.172C247.027 176.97 246.763 176.869 246.436 176.869C246.215 176.869 246.013 176.926 245.831 177.04C245.649 177.15 245.504 177.308 245.396 177.513C245.288 177.714 245.235 177.95 245.235 178.22V182.2H243.692ZM256.345 182.332C255.93 182.332 255.557 182.258 255.224 182.111C254.895 181.96 254.633 181.739 254.44 181.446C254.25 181.153 254.155 180.793 254.155 180.364C254.155 179.994 254.223 179.689 254.359 179.447C254.496 179.206 254.682 179.013 254.917 178.868C255.153 178.723 255.419 178.614 255.714 178.54C256.013 178.463 256.321 178.408 256.639 178.373C257.023 178.334 257.334 178.298 257.572 178.267C257.811 178.233 257.984 178.182 258.092 178.114C258.203 178.043 258.258 177.933 258.258 177.785V177.76C258.258 177.439 258.163 177.19 257.973 177.014C257.782 176.838 257.508 176.75 257.15 176.75C256.773 176.75 256.473 176.832 256.251 176.997C256.032 177.162 255.885 177.356 255.808 177.581L254.368 177.376C254.481 176.979 254.669 176.646 254.93 176.379C255.192 176.109 255.511 175.908 255.889 175.774C256.267 175.638 256.684 175.57 257.142 175.57C257.457 175.57 257.771 175.606 258.084 175.68C258.396 175.754 258.682 175.876 258.94 176.047C259.199 176.214 259.406 176.443 259.562 176.733C259.721 177.023 259.801 177.385 259.801 177.82V182.2H258.318V181.301H258.267C258.173 181.483 258.041 181.653 257.871 181.812C257.703 181.969 257.491 182.095 257.236 182.192C256.983 182.285 256.686 182.332 256.345 182.332ZM256.746 181.199C257.055 181.199 257.324 181.138 257.551 181.016C257.778 180.891 257.953 180.726 258.075 180.521C258.2 180.317 258.263 180.094 258.263 179.852V179.081C258.214 179.121 258.132 179.158 258.015 179.192C257.902 179.226 257.774 179.256 257.632 179.281C257.49 179.307 257.349 179.329 257.21 179.349C257.071 179.369 256.95 179.386 256.848 179.4C256.618 179.432 256.412 179.483 256.23 179.554C256.048 179.625 255.905 179.724 255.8 179.852C255.694 179.977 255.642 180.139 255.642 180.338C255.642 180.622 255.746 180.837 255.953 180.981C256.16 181.126 256.425 181.199 256.746 181.199ZM266.525 177.385L265.119 177.538C265.079 177.396 265.01 177.263 264.91 177.138C264.814 177.013 264.683 176.912 264.518 176.835C264.353 176.758 264.152 176.72 263.913 176.72C263.592 176.72 263.322 176.79 263.103 176.929C262.888 177.068 262.781 177.248 262.784 177.47C262.781 177.66 262.851 177.815 262.993 177.935C263.138 178.054 263.376 178.152 263.709 178.229L264.825 178.467C265.444 178.601 265.905 178.812 266.206 179.102C266.51 179.392 266.663 179.771 266.666 180.24C266.663 180.652 266.542 181.016 266.304 181.331C266.068 181.643 265.74 181.888 265.319 182.064C264.899 182.24 264.416 182.328 263.871 182.328C263.069 182.328 262.425 182.16 261.936 181.825C261.447 181.487 261.156 181.017 261.062 180.415L262.567 180.27C262.635 180.565 262.78 180.788 263.001 180.939C263.223 181.089 263.511 181.165 263.866 181.165C264.233 181.165 264.527 181.089 264.748 180.939C264.973 180.788 265.085 180.602 265.085 180.381C265.085 180.193 265.013 180.038 264.868 179.916C264.726 179.794 264.504 179.7 264.203 179.635L263.086 179.4C262.459 179.27 261.994 179.05 261.693 178.74C261.392 178.427 261.243 178.033 261.246 177.555C261.243 177.152 261.352 176.802 261.574 176.507C261.798 176.209 262.109 175.979 262.507 175.817C262.907 175.652 263.369 175.57 263.892 175.57C264.659 175.57 265.263 175.733 265.703 176.06C266.146 176.386 266.42 176.828 266.525 177.385ZM271.206 175.655V176.848H267.444V175.655H271.206ZM268.373 174.087H269.915V180.231C269.915 180.439 269.947 180.598 270.009 180.709C270.074 180.817 270.16 180.891 270.265 180.93C270.37 180.97 270.486 180.99 270.614 180.99C270.711 180.99 270.799 180.983 270.878 180.969C270.961 180.954 271.023 180.942 271.066 180.93L271.326 182.136C271.243 182.165 271.125 182.196 270.972 182.23C270.822 182.264 270.637 182.284 270.418 182.29C270.032 182.301 269.684 182.243 269.374 182.115C269.064 181.984 268.819 181.783 268.637 181.51C268.458 181.237 268.37 180.896 268.373 180.487V174.087ZM275.324 182.328C274.668 182.328 274.101 182.192 273.624 181.919C273.149 181.643 272.784 181.254 272.529 180.751C272.273 180.246 272.145 179.65 272.145 178.966C272.145 178.293 272.273 177.702 272.529 177.193C272.787 176.682 273.148 176.284 273.611 176C274.074 175.713 274.618 175.57 275.243 175.57C275.646 175.57 276.027 175.635 276.385 175.766C276.746 175.893 277.064 176.092 277.34 176.362C277.618 176.632 277.837 176.976 277.996 177.393C278.155 177.808 278.235 178.302 278.235 178.876V179.349H272.869V178.31H276.756C276.753 178.014 276.689 177.751 276.564 177.521C276.439 177.288 276.264 177.105 276.04 176.972C275.818 176.838 275.56 176.771 275.264 176.771C274.949 176.771 274.672 176.848 274.433 177.001C274.195 177.152 274.009 177.351 273.875 177.598C273.744 177.842 273.678 178.111 273.675 178.403V179.311C273.675 179.692 273.744 180.018 273.884 180.291C274.023 180.561 274.217 180.768 274.467 180.913C274.717 181.055 275.01 181.126 275.345 181.126C275.57 181.126 275.773 181.095 275.955 181.033C276.137 180.967 276.294 180.872 276.428 180.747C276.561 180.622 276.662 180.467 276.73 180.283L278.171 180.445C278.08 180.825 277.906 181.158 277.651 181.442C277.398 181.723 277.074 181.942 276.679 182.098C276.284 182.251 275.833 182.328 275.324 182.328ZM279.54 182.2V175.655H281.035V176.746H281.103C281.223 176.368 281.427 176.077 281.717 175.872C282.01 175.665 282.344 175.561 282.719 175.561C282.804 175.561 282.899 175.565 283.004 175.574C283.112 175.579 283.201 175.589 283.273 175.604V177.023C283.207 177 283.103 176.98 282.961 176.963C282.822 176.943 282.687 176.933 282.557 176.933C282.275 176.933 282.023 176.994 281.798 177.116C281.576 177.236 281.402 177.402 281.274 177.615C281.146 177.828 281.082 178.074 281.082 178.352V182.2H279.54ZM290.129 182.328C289.476 182.328 288.915 182.185 288.446 181.898C287.98 181.611 287.621 181.214 287.368 180.709C287.118 180.2 286.993 179.615 286.993 178.953C286.993 178.288 287.121 177.702 287.376 177.193C287.632 176.682 287.993 176.284 288.459 176C288.927 175.713 289.481 175.57 290.121 175.57C290.652 175.57 291.122 175.668 291.531 175.864C291.943 176.057 292.271 176.331 292.515 176.686C292.76 177.038 292.899 177.45 292.933 177.922H291.459C291.399 177.606 291.257 177.344 291.032 177.133C290.811 176.92 290.514 176.814 290.142 176.814C289.826 176.814 289.55 176.899 289.311 177.07C289.072 177.237 288.886 177.479 288.753 177.794C288.622 178.109 288.557 178.487 288.557 178.927C288.557 179.373 288.622 179.757 288.753 180.078C288.883 180.396 289.067 180.642 289.302 180.815C289.541 180.986 289.821 181.071 290.142 181.071C290.369 181.071 290.572 181.028 290.751 180.943C290.933 180.855 291.085 180.729 291.207 180.564C291.329 180.399 291.413 180.199 291.459 179.963H292.933C292.896 180.426 292.76 180.837 292.524 181.195C292.288 181.55 291.967 181.828 291.561 182.03C291.155 182.229 290.677 182.328 290.129 182.328ZM296.083 182.332C295.668 182.332 295.295 182.258 294.963 182.111C294.633 181.96 294.372 181.739 294.178 181.446C293.988 181.153 293.893 180.793 293.893 180.364C293.893 179.994 293.961 179.689 294.097 179.447C294.234 179.206 294.42 179.013 294.656 178.868C294.891 178.723 295.157 178.614 295.453 178.54C295.751 178.463 296.059 178.408 296.377 178.373C296.761 178.334 297.072 178.298 297.311 178.267C297.549 178.233 297.722 178.182 297.83 178.114C297.941 178.043 297.997 177.933 297.997 177.785V177.76C297.997 177.439 297.901 177.19 297.711 177.014C297.521 176.838 297.247 176.75 296.889 176.75C296.511 176.75 296.211 176.832 295.989 176.997C295.771 177.162 295.623 177.356 295.546 177.581L294.106 177.376C294.22 176.979 294.407 176.646 294.668 176.379C294.93 176.109 295.249 175.908 295.627 175.774C296.005 175.638 296.423 175.57 296.88 175.57C297.195 175.57 297.509 175.606 297.822 175.68C298.134 175.754 298.42 175.876 298.678 176.047C298.937 176.214 299.144 176.443 299.301 176.733C299.46 177.023 299.539 177.385 299.539 177.82V182.2H298.056V181.301H298.005C297.911 181.483 297.779 181.653 297.609 181.812C297.441 181.969 297.23 182.095 296.974 182.192C296.721 182.285 296.424 182.332 296.083 182.332ZM296.484 181.199C296.793 181.199 297.062 181.138 297.289 181.016C297.516 180.891 297.691 180.726 297.813 180.521C297.938 180.317 298.001 180.094 298.001 179.852V179.081C297.953 179.121 297.87 179.158 297.754 179.192C297.64 179.226 297.512 179.256 297.37 179.281C297.228 179.307 297.088 179.329 296.948 179.349C296.809 179.369 296.688 179.386 296.586 179.4C296.356 179.432 296.15 179.483 295.968 179.554C295.786 179.625 295.643 179.724 295.538 179.852C295.433 179.977 295.38 180.139 295.38 180.338C295.38 180.622 295.484 180.837 295.691 180.981C295.899 181.126 296.163 181.199 296.484 181.199ZM301.09 182.2V175.655H302.586V176.746H302.654C302.774 176.368 302.978 176.077 303.268 175.872C303.561 175.665 303.894 175.561 304.269 175.561C304.355 175.561 304.45 175.565 304.555 175.574C304.663 175.579 304.752 175.589 304.823 175.604V177.023C304.758 177 304.654 176.98 304.512 176.963C304.373 176.943 304.238 176.933 304.107 176.933C303.826 176.933 303.573 176.994 303.349 177.116C303.127 177.236 302.953 177.402 302.825 177.615C302.697 177.828 302.633 178.074 302.633 178.352V182.2H301.09ZM308.008 182.315C307.493 182.315 307.033 182.183 306.627 181.919C306.221 181.655 305.9 181.271 305.664 180.768C305.428 180.266 305.31 179.655 305.31 178.936C305.31 178.209 305.429 177.595 305.668 177.095C305.91 176.592 306.235 176.213 306.644 175.957C307.053 175.699 307.509 175.57 308.012 175.57C308.395 175.57 308.711 175.635 308.958 175.766C309.205 175.893 309.401 176.048 309.546 176.23C309.691 176.409 309.803 176.578 309.883 176.737H309.947V173.473H311.493V182.2H309.976V181.169H309.883C309.803 181.328 309.688 181.497 309.537 181.676C309.387 181.852 309.188 182.003 308.941 182.128C308.694 182.253 308.383 182.315 308.008 182.315ZM308.438 181.05C308.765 181.05 309.043 180.962 309.273 180.785C309.503 180.606 309.678 180.358 309.797 180.04C309.917 179.722 309.976 179.351 309.976 178.927C309.976 178.504 309.917 178.136 309.797 177.824C309.681 177.511 309.508 177.268 309.277 177.095C309.05 176.922 308.77 176.835 308.438 176.835C308.094 176.835 307.807 176.925 307.577 177.104C307.347 177.283 307.174 177.53 307.057 177.845C306.941 178.16 306.883 178.521 306.883 178.927C306.883 179.337 306.941 179.702 307.057 180.023C307.177 180.341 307.351 180.592 307.581 180.777C307.814 180.959 308.1 181.05 308.438 181.05Z" fill="white"/>
<ellipse cx="266.886" cy="151.2" rx="15.9868" ry="15" fill="#FD0E0E"/>
<ellipse cx="285.005" cy="151.2" rx="15.9868" ry="15" fill="#FFE249"/>
<ellipse cx="266.886" cy="151.2" rx="15.9868" ry="15" fill="#FF4747" fill-opacity="0.65"/>
<path d="M274.809 81.745C274.849 82.3977 275.445 82.8964 276.141 82.8588C276.837 82.8212 277.368 82.2615 277.328 81.6088C277.288 80.956 276.692 80.4574 275.996 80.495C275.3 80.5326 274.769 81.0922 274.809 81.745Z" fill="white"/>
<path d="M282.367 81.3364C282.273 79.8067 281.551 78.3707 280.351 77.3305C280.105 77.1174 279.779 77.0047 279.445 77.0172C279.11 77.0298 278.794 77.1665 278.567 77.3973C278.34 77.6282 278.22 77.9343 278.233 78.2482C278.247 78.5622 278.392 78.8583 278.638 79.0714C279.335 79.7072 279.752 80.5647 279.808 81.4747C279.864 82.3848 279.554 83.2815 278.94 83.9881C278.722 84.2264 278.614 84.5362 278.639 84.8496C278.664 85.1629 278.821 85.454 279.075 85.6588C279.328 85.8637 279.659 85.9655 279.993 85.9419C280.327 85.9183 280.637 85.7712 280.855 85.5329C281.919 84.3704 282.461 82.8661 282.367 81.3364ZM288.665 80.9959C288.576 79.5685 288.182 78.1724 287.507 76.8908C286.831 75.6092 285.887 74.4684 284.731 73.5363C284.603 73.435 284.455 73.3584 284.295 73.3108C284.136 73.2633 283.967 73.2457 283.8 73.2591C283.633 73.2726 283.471 73.3167 283.322 73.3891C283.173 73.4615 283.041 73.5606 282.933 73.6809C282.715 73.9239 282.609 74.2381 282.638 74.5546C282.652 74.7113 282.699 74.8638 282.776 75.0034C282.853 75.143 282.959 75.267 283.087 75.3683C283.988 76.0939 284.724 76.9825 285.25 77.9809C285.777 78.9794 286.083 80.0671 286.151 81.1792C286.22 82.2913 286.048 83.4049 285.648 84.4535C285.247 85.502 284.625 86.464 283.819 87.2819C283.707 87.3978 283.62 87.5334 283.564 87.681C283.508 87.8285 283.484 87.985 283.492 88.1415C283.508 88.3724 283.595 88.5941 283.742 88.7792C283.89 88.9642 284.093 89.1046 284.325 89.1829C284.557 89.2612 284.808 89.2739 285.048 89.2196C285.288 89.1653 285.505 89.0463 285.674 88.8773C286.713 87.821 287.514 86.5781 288.028 85.2236C288.542 83.8691 288.759 82.431 288.665 80.9959Z" fill="white"/>
<path d="M290.718 92.4111C293.7 89.1554 295.219 84.9413 294.956 80.6558C294.693 76.3703 292.668 72.3478 289.307 69.435C289.059 69.2483 288.744 69.1567 288.427 69.1786C288.109 69.2005 287.812 69.3343 287.595 69.5531C287.378 69.7719 287.258 70.0595 287.257 70.3583C287.257 70.6571 287.377 70.9449 287.594 71.1641C290.481 73.6614 292.221 77.1133 292.446 80.7915C292.672 84.4696 291.366 88.0862 288.804 90.8781C288.593 91.1094 288.484 91.4084 288.502 91.7127C288.512 91.8719 288.557 92.0275 288.633 92.1701C288.709 92.3127 288.815 92.4394 288.944 92.5426C289.199 92.745 289.528 92.8449 289.86 92.8202C290.193 92.7956 290.501 92.6485 290.718 92.4111Z" fill="white"/>
<defs>
<linearGradient id="paint0_linear_588_2898" x1="0.899319" y1="8.1268" x2="312.432" y2="204.093" gradientUnits="userSpaceOnUse">
<stop stop-color="#BABC59" stop-opacity="0"/>
<stop offset="0.00152023" stop-color="#FD4960"/>
<stop offset="0.876984" stop-color="#191919"/>
</linearGradient>
</defs>
</svg>
