<svg width="27" height="26" viewBox="0 0 27 26" fill="none" xmlns="http://www.w3.org/2000/svg">
<path d="M13.3404 7.63079C13.7787 7.63079 14.199 7.47654 14.5089 7.20196C14.8187 6.92739 14.9928 6.55498 14.9928 6.16668C14.9928 5.77837 14.8187 5.40596 14.5089 5.13139C14.199 4.85681 13.7787 4.70256 13.3404 4.70256C12.9021 4.70256 12.4818 4.85681 12.1719 5.13139C11.8621 5.40596 11.688 5.77837 11.688 6.16668C11.688 6.55498 11.8621 6.92739 12.1719 7.20196C12.4818 7.47654 12.9021 7.63079 13.3404 7.63079ZM14.962 0.710401C14.5036 0.380359 13.931 0.200195 13.3404 0.200195C12.7498 0.200195 12.1772 0.380359 11.7188 0.710401L0.698105 8.64591C-0.641475 9.61418 0.129665 11.5351 1.85702 11.5351H2.32411V19.7342C1.01537 20.3257 0.120852 21.5301 0.120852 22.922V24.2241C0.120852 24.483 0.236916 24.7313 0.443512 24.9143C0.650107 25.0974 0.93031 25.2002 1.22248 25.2002H25.4583C25.7505 25.2002 26.0307 25.0974 26.2373 24.9143C26.4439 24.7313 26.5599 24.483 26.5599 24.2241V22.922C26.5599 21.5321 25.6654 20.3257 24.3567 19.7342V11.5351H24.8238C26.5511 11.5351 27.3223 9.61223 25.9805 8.64591L14.9642 0.708449L14.962 0.710401ZM13.1113 2.22527C13.1767 2.17836 13.2584 2.15277 13.3426 2.15277C13.4268 2.15277 13.5085 2.17836 13.5739 2.22527L23.786 9.58295H2.89255L13.1113 2.22332V2.22527ZM22.1534 19.3437H19.9502V11.5351H22.1534V19.3437ZM17.7469 19.3437H14.442V11.5351H17.7469V19.3437ZM12.2388 19.3437H8.93388V11.5351H12.2388V19.3437ZM22.5214 21.2959C23.5349 21.2959 24.3567 22.024 24.3567 22.922V23.248H2.32411V22.922C2.32411 22.024 3.14592 21.2959 4.15942 21.2959H22.5214ZM6.73063 19.3437H4.52737V11.5351H6.73063V19.3437Z" fill="white"/>
</svg>
