<svg width="18" height="18" viewBox="0 0 18 18" fill="none" xmlns="http://www.w3.org/2000/svg">
<g clip-path="url(#clip0_123_5986)">
<path d="M16.8124 6.39844H11.2499L9.53114 0.457031C9.42697 0.152344 9.24989 0 8.99989 0C8.74989 0 8.5728 0.152344 8.46864 0.457031L6.74989 6.39844H1.18739C0.916553 6.42188 0.739469 6.5625 0.656136 6.82031C0.572803 7.10156 0.645719 7.34766 0.874886 7.55859L5.34364 11.2148L3.62489 17.1562C3.58322 17.3906 3.61447 17.5898 3.71864 17.7539C3.84364 17.918 3.99989 18 4.18739 18C4.29155 18 4.39572 17.9531 4.49989 17.8594L8.99989 14.168L13.4999 17.8594C13.6041 17.9531 13.7082 18 13.8124 18C13.9999 18 14.1561 17.918 14.2811 17.7539C14.3853 17.5898 14.4166 17.3906 14.3749 17.1562L12.6561 11.2148L17.1249 7.55859C17.3541 7.34766 17.427 7.10156 17.3436 6.82031C17.2603 6.5625 17.0832 6.42188 16.8124 6.39844ZM10.9999 10.9688L12.0624 14.625L9.28114 12.375C9.09364 12.2109 8.90614 12.2109 8.71864 12.375L5.93739 14.625L6.99989 10.9688C7.06239 10.7109 6.99989 10.5 6.81239 10.3359L4.06239 8.08594H7.46864C7.6978 8.0625 7.85405 7.93359 7.93739 7.69922L8.99989 4.04297L10.0624 7.69922C10.1457 7.93359 10.302 8.0625 10.5311 8.08594H13.9374L11.1874 10.3359C10.9999 10.4766 10.9374 10.6875 10.9999 10.9688Z" fill="white"/>
</g>
<defs>
<clipPath id="clip0_123_5986">
<rect width="18" height="18" fill="white" transform="matrix(1 0 0 -1 0 18)"/>
</clipPath>
</defs>
</svg>
