<svg width="32" height="32" viewBox="0 0 32 32" fill="none" xmlns="http://www.w3.org/2000/svg">
<path d="M5.00342 7.99999H3.00342C2.7382 7.99999 2.48385 7.89463 2.29631 7.70709C2.10877 7.51956 2.00342 7.2652 2.00342 6.99999C2.00342 6.73477 2.10877 6.48042 2.29631 6.29288C2.48385 6.10534 2.7382 5.99999 3.00342 5.99999H11.0034V2.99799C11.0034 2.73277 11.1088 2.47842 11.2963 2.29088C11.4838 2.10334 11.7382 1.99799 12.0034 1.99799H20.0034C20.2686 1.99799 20.523 2.10334 20.7105 2.29088C20.8981 2.47842 21.0034 2.73277 21.0034 2.99799V5.99999H29.0034C29.2686 5.99999 29.523 6.10534 29.7105 6.29288C29.8981 6.48042 30.0034 6.73477 30.0034 6.99999C30.0034 7.2652 29.8981 7.51956 29.7105 7.70709C29.523 7.89463 29.2686 7.99999 29.0034 7.99999H27.0034V29C27.0034 29.2652 26.8981 29.5196 26.7105 29.7071C26.523 29.8946 26.2686 30 26.0034 30H6.00342C5.7382 30 5.48385 29.8946 5.29631 29.7071C5.10877 29.5196 5.00342 29.2652 5.00342 29V7.99999ZM19.0034 5.99999V3.99999H13.0034V5.99999H19.0034ZM7.00342 28H25.0034V7.99999H7.00342V28ZM13.0034 24C12.7382 24 12.4838 23.8946 12.2963 23.7071C12.1088 23.5196 12.0034 23.2652 12.0034 23V13C12.0034 12.7348 12.1088 12.4804 12.2963 12.2929C12.4838 12.1053 12.7382 12 13.0034 12C13.2686 12 13.523 12.1053 13.7105 12.2929C13.8981 12.4804 14.0034 12.7348 14.0034 13V23C14.0034 23.2652 13.8981 23.5196 13.7105 23.7071C13.523 23.8946 13.2686 24 13.0034 24ZM19.0034 24C18.7382 24 18.4838 23.8946 18.2963 23.7071C18.1088 23.5196 18.0034 23.2652 18.0034 23V13C18.0034 12.7348 18.1088 12.4804 18.2963 12.2929C18.4838 12.1053 18.7382 12 19.0034 12C19.2686 12 19.523 12.1053 19.7105 12.2929C19.8981 12.4804 20.0034 12.7348 20.0034 13V23C20.0034 23.2652 19.8981 23.5196 19.7105 23.7071C19.523 23.8946 19.2686 24 19.0034 24Z" fill="#D11A2A"/>
</svg>
