<svg width="40" height="40" viewBox="0 0 40 40" fill="none" xmlns="http://www.w3.org/2000/svg">
<path d="M8.09906 30.5994L8.09883 30.5992C7.2261 29.9485 6.42549 28.9207 5.8427 27.7591C5.25985 26.5974 4.91663 25.3452 4.91663 24.2667V11.8667C4.91663 9.50748 6.67146 6.96189 8.89112 6.13525L8.89208 6.13489L17.2083 3.01838C17.2084 3.01835 17.2085 3.01832 17.2086 3.01829C17.9621 2.73673 18.9615 2.58752 19.9833 2.58752C21.0051 2.58752 22.0045 2.73673 22.758 3.01829C22.7581 3.01832 22.7582 3.01835 22.7582 3.01838L31.0745 6.1349L31.0755 6.13525C33.2951 6.96189 35.05 9.50748 35.05 11.8667V24.25C35.05 25.3372 34.7066 26.5893 34.124 27.7484C33.5415 28.9074 32.741 29.9314 31.8678 30.5825L31.8675 30.5827L24.7009 35.9327L24.7008 35.9326L24.6946 35.9374C23.4119 36.9265 21.724 37.4334 20 37.4334C18.2773 37.4334 16.5851 36.9271 15.2648 35.9487C15.2647 35.9486 15.2645 35.9484 15.2644 35.9483L8.09906 30.5994ZM17.7418 4.43157L17.7412 4.43182L9.4245 7.54849L9.42379 7.54875C8.59621 7.86031 7.85498 8.5226 7.32406 9.29073C6.79297 10.0591 6.43329 10.9899 6.43329 11.8834V24.2667C6.43329 25.1612 6.74388 26.1893 7.20088 27.1011C7.65776 28.0127 8.29325 28.8723 9.00081 29.4007L9.00085 29.4007L16.1672 34.7504C17.2292 35.5446 18.6282 35.925 20.002 35.925C21.376 35.925 22.7782 35.5446 23.8477 34.7517L23.8491 34.7507L31.0157 29.4007L31.0166 29.4C31.7314 28.864 32.3668 28.0051 32.8222 27.0945C33.2775 26.1838 33.5833 25.1601 33.5833 24.2667V11.8667C33.5833 10.9805 33.2229 10.0539 32.6925 9.28657C32.162 8.51902 31.4223 7.85409 30.5976 7.53392L30.5976 7.53389L30.5921 7.53182L22.2754 4.41515L22.2755 4.41507L22.2664 4.41186C21.6282 4.18663 20.8001 4.08326 20.0007 4.08544C19.202 4.08762 18.3751 4.19526 17.7418 4.43157Z" fill="#FAFAFA" stroke="#FAFAFA"/>
<path d="M17.4131 21.0536L17.7667 21.4071L18.1202 21.0536L24.4036 14.7703C24.6916 14.4822 25.1751 14.4822 25.4631 14.7703C25.7512 15.0583 25.7512 15.5417 25.4631 15.8298L18.2965 22.9965C18.1452 23.1478 17.9579 23.2167 17.7667 23.2167C17.5755 23.2167 17.3882 23.1478 17.2369 22.9965L14.5536 20.3131C14.2655 20.0251 14.2655 19.5417 14.5536 19.2536C14.8416 18.9655 15.3251 18.9655 15.6131 19.2536L17.4131 21.0536Z" fill="#FAFAFA" stroke="#FAFAFA"/>
</svg>
