<svg width="92" height="42" viewBox="0 0 92 42" fill="none" xmlns="http://www.w3.org/2000/svg">
<g clip-path="url(#clip0_1025_2334)">
<path d="M41.8899 5.81594V13.2991L39.5875 13.8751V8.11514H38.4371V13.2991L36.1331 13.8751V8.11514H34.9827V13.2991L32.6803 13.8751V8.11514H31.5283L32.1043 5.81274L41.8899 5.81594Z" fill="white"/>
<path opacity="0.2" d="M32.9893 10.224V13.4784L34.6725 13.0576V10.224H32.9893Z" fill="black"/>
<path opacity="0.2" d="M36.4434 10.224V13.4784L38.1266 13.0576V10.224H36.4434Z" fill="black"/>
<path opacity="0.2" d="M39.8975 10.224V13.4784L41.5807 13.0576V10.224H39.8975Z" fill="black"/>
<path d="M45.344 5.81604V13.2992L43.04 13.8752V6.40004L45.344 5.81604Z" fill="white"/>
<path opacity="0.2" d="M43.3506 10.224V13.4784L45.0338 13.0576V10.224H43.3506Z" fill="black"/>
<path d="M53.9791 5.81594L53.4031 8.11834H49.3727V11.5727H51.6799V10.9967H49.9519L50.5279 8.69434H53.9823V13.8751H47.0703V8.11514H45.9199L46.4959 5.81274L53.9791 5.81594Z" fill="white"/>
<path opacity="0.2" d="M50.4625 10.224L50.3457 10.6864H51.9857V11.8816H49.0641V10.224H47.3809V13.5648H53.6689V10.224H50.4625Z" fill="black"/>
<path d="M55.7052 8.69445V5.81445H58.0076V8.69445H60.31V5.81445H62.6124V13.2993L60.31 13.8753V10.9953H58.0076V13.2993L55.7052 13.8753V10.9953H54.5596L55.134 8.69285L55.7052 8.69445Z" fill="white"/>
<path opacity="0.2" d="M55.067 10.224L54.9502 10.6864H56.0158V13.4784L57.699 13.0576V10.6864H60.6206V13.4784L62.3038 13.0576V10.224H55.067Z" fill="black"/>
<path d="M68.3699 8.11834V13.2991L66.0675 13.8751V8.11514H63.1875L63.7635 5.81274H71.2483V8.11834H68.3699Z" fill="white"/>
<path opacity="0.2" d="M66.3779 10.224V13.4784L68.0611 13.0576V10.224H66.3779Z" fill="black"/>
<path d="M72.9762 8.11844H71.8242L72.4002 5.81604H75.2802V8.69604H77.5826V5.81604H79.885V10.9968H79.5042L75.7858 13.8768L73.9202 12.4064L75.7442 10.9968H72.9762V8.11844Z" fill="white"/>
<path opacity="0.2" d="M73.2852 10.224V10.6864H76.6516L74.4228 12.4096L75.786 13.4816L79.3972 10.6864H79.5732V10.224H73.2852Z" fill="black"/>
<path d="M34.4001 17.4399V24.9231L32.0977 25.4991V18.0143L34.4001 17.4399Z" fill="white"/>
<path opacity="0.2" d="M32.4141 21.8912V25.1008L34.0957 24.68V21.8912H32.4141Z" fill="black"/>
<path d="M45.3437 17.44V24.9232L43.0397 25.4976V19.7376H41.8877V24.9184L39.5853 25.4944V19.7344H38.4349V24.9152L36.1309 25.4912V19.7312H34.9805L35.5565 17.4288L45.3437 17.44Z" fill="white"/>
<path opacity="0.2" d="M39.8975 21.8912V25.1008L41.5807 24.68V21.8912H39.8975Z" fill="black"/>
<path opacity="0.2" d="M36.4434 21.8912V25.1008L38.1266 24.68V21.8912H36.4434Z" fill="black"/>
<path opacity="0.2" d="M43.3506 21.8912V25.1008L45.0338 24.68V21.8912H43.3506Z" fill="black"/>
<path d="M53.9791 17.4399V22.6207H49.9487L50.5247 20.3183H51.6799V19.7423H49.3759V24.9231L47.0735 25.4991V19.7391H45.9199L46.4959 17.4399H53.9791Z" fill="white"/>
<path opacity="0.2" d="M47.3809 21.8912V25.1008L49.0641 24.68V21.8912H47.3809Z" fill="black"/>
<path opacity="0.2" d="M50.4513 21.8912L50.3457 22.3088H53.6689V21.8912H50.4513Z" fill="black"/>
<path d="M55.7052 20.3199V17.4399H62.6124V19.7423H58.0076V20.3199H62.6124L62.038 22.6223H58.0076V23.1999H62.6124V25.5023H55.7052V22.6223H54.5596L55.1292 20.3199H55.7052Z" fill="white"/>
<path opacity="0.2" d="M57.699 22.3088H61.7966L61.9006 21.8912H55.0558L54.9502 22.3088H56.0158V25.1872H62.3038V23.504H57.699V22.3088Z" fill="black"/>
<path d="M66.6717 19.7408L66.6429 24.9216L64.3405 25.4976V19.7376H63.1885L63.7645 17.4352H71.2477V22.616H70.3853L71.2477 23.7616L69.7597 25.6128L68.0269 23.3152L68.5917 22.6192H67.2221L67.7981 20.3168H68.9485V19.7408H66.6717Z" fill="white"/>
<path opacity="0.2" d="M64.6494 21.8912V25.1008L66.3342 24.68L66.3502 21.8912H64.6494Z" fill="black"/>
<path opacity="0.2" d="M70.9394 21.8912H67.7202L67.6162 22.3088H69.2386L68.4178 23.3232L69.7666 25.1088L70.8562 23.7584L69.7634 22.3088H70.9394V21.8912Z" fill="black"/>
<path d="M74.7028 17.4399V24.9231L72.4004 25.4991V18.0143L74.7028 17.4399Z" fill="white"/>
<path opacity="0.2" d="M72.709 21.8912V25.1008L74.3922 24.68V21.8912H72.709Z" fill="black"/>
<path d="M76.4287 20.3199V17.4399H83.3375V24.9231L81.0351 25.4991V22.6191H78.7311V24.9215L76.4287 25.4975V22.6175H75.2783L75.8543 20.3151L76.4287 20.3199ZM81.0351 20.3199V19.7439H78.7311V20.3199H81.0351Z" fill="white"/>
<path opacity="0.2" d="M75.7788 21.8912L75.6748 22.3088H76.7388V25.1008L78.422 24.68V22.3088H81.3436V25.1008L83.0268 24.68V21.8912H75.7788Z" fill="black"/>
<path d="M85.0641 23.1999V17.4399H87.3601V23.1999H91.9649L91.3905 25.5023H83.9121L84.4881 23.1999H85.0641Z" fill="white"/>
<path opacity="0.2" d="M87.0574 21.8912H85.3742V23.504H84.7294L84.3086 25.1872H91.1534L91.5742 23.504H87.0574V21.8912Z" fill="black"/>
<path d="M32.6803 31.9392V29.0592H39.5875V31.36H34.9827V31.936H39.5875L39.0115 34.24H34.9827V36.544L32.6803 37.12V34.24H31.5283L32.1043 31.9376L32.6803 31.9392Z" fill="white"/>
<path opacity="0.2" d="M32.0928 33.2607L31.9248 33.9311H32.9888V36.7231L34.672 36.3023V33.9311H38.7696L38.9376 33.2607H32.0928Z" fill="black"/>
<path d="M41.3154 31.9392V29.0592H48.2226V37.12H41.3154V34.24H40.1602L40.7362 31.9376L41.3154 31.9392ZM43.6178 34.8192H45.9202V31.36H43.6178V34.8192Z" fill="white"/>
<path opacity="0.2" d="M46.23 33.2607V35.1263H43.3068V33.2607H40.7276L40.5596 33.9311H41.6236V36.8095H47.9116V33.2607H46.23Z" fill="black"/>
<path d="M52.2798 31.36L52.251 36.5408L49.9486 37.12V31.36H48.7998L49.3742 29.0576H56.859V34.24H55.9998L56.8638 35.3856L55.3598 37.2352L53.627 34.9376L54.1902 34.2416H52.8206L53.3966 31.9392H54.5598V31.36H52.2798Z" fill="white"/>
<path opacity="0.2" d="M50.2588 33.2607V36.7231L51.9436 36.3023L51.9596 33.2607H50.2588Z" fill="black"/>
<path opacity="0.2" d="M56.5468 33.2607H53.3916L53.2236 33.9311H54.8476L54.0268 34.9455L55.374 36.7311L56.4636 35.3807L55.3708 33.9311H56.5468V33.2607Z" fill="black"/>
<path d="M65.4916 29.0608L64.9172 31.36H60.8868V34.8144H63.1892V34.24H61.4628L62.0388 31.9376H65.4916V37.12H58.5844V31.36H57.4404L58.0164 29.0576L65.4916 29.0608Z" fill="white"/>
<path opacity="0.2" d="M62.0273 33.2607L61.8593 33.9311H63.4993V35.1263H60.5777V33.2607H58.8945V36.8095H65.1825V33.2607H62.0273Z" fill="black"/>
<path d="M67.2194 31.9392V29.0592H74.1266V31.36H69.5218V31.936H74.1266L73.5506 34.24H69.5218V34.816H74.1266V37.12H67.2194V34.24H66.0674L66.6434 31.9376L67.2194 31.9392Z" fill="white"/>
<path opacity="0.2" d="M69.2111 33.9311H73.3087L73.4767 33.2607H66.6319L66.4639 33.9311H67.5279V36.8095H73.8175V35.1263H69.2111V33.9311Z" fill="black"/>
<path d="M29.3582 13.408C29.3543 13.5155 29.342 13.6225 29.3214 13.728C29.294 13.8747 29.2314 14.0125 29.139 14.1296C28.8599 14.8993 28.5 15.6373 28.0654 16.3312C27.995 17.1632 28.0382 17.864 28.3934 18.512C28.541 18.7635 28.6295 19.0454 28.6519 19.3362C28.6744 19.6271 28.6303 19.9192 28.523 20.1904C28.37 20.5613 28.1019 20.8732 27.7582 21.08C27.8629 21.0952 27.9649 21.1259 28.0606 21.1712C28.1916 21.2328 28.307 21.3232 28.3982 21.4357C28.4894 21.5482 28.5539 21.6798 28.587 21.8208C28.7918 22.7248 28.4174 23.2096 28.043 23.4624C28.043 23.52 28.043 23.5792 28.043 23.6384C28.043 23.7872 28.043 23.9392 28.043 24.0992C28.0982 24.1231 28.1517 24.1509 28.203 24.1824C28.3483 24.2695 28.4672 24.3944 28.5472 24.5437C28.6272 24.693 28.6653 24.8612 28.6574 25.0304L28.6478 25.1904C28.6478 25.2864 28.635 25.3776 28.6334 25.4544V25.872C28.6334 26.4368 28.6334 27.0208 28.6414 27.5888C28.6477 27.8371 28.5938 28.0832 28.4843 28.3061C28.3748 28.529 28.213 28.7221 28.0126 28.8688C27.6926 29.1232 27.3726 29.3888 27.0526 29.648C26.7326 29.9072 24.8446 31.568 24.8446 31.568L24.5902 34.9136L25.2958 35.8384L23.7134 39.3024C23.7134 39.3024 17.6334 41.5328 15.9326 41.5936C15.5838 41.6064 15.2078 41.6128 14.7678 41.6144C14.3278 41.616 13.9518 41.6064 13.603 41.5936C11.8974 41.5328 5.82217 39.3024 5.82217 39.3024L4.23977 35.8384L4.95977 34.928L4.70857 31.5824C4.70857 31.5824 2.81897 29.9232 2.49897 29.6624C2.17897 29.4016 1.85897 29.1376 1.53897 28.8832C1.33838 28.7366 1.17627 28.5436 1.0665 28.3207C0.956717 28.0978 0.902532 27.8516 0.90857 27.6032C0.92137 27.0352 0.91977 26.4512 0.90857 25.8864V25.4688C0.90857 25.392 0.90857 25.3088 0.89577 25.2048C0.89577 25.1504 0.89577 25.0944 0.88457 25.0448C0.876977 24.8755 0.915357 24.7072 0.995638 24.5579C1.07592 24.4086 1.19511 24.2838 1.34057 24.1968C1.39185 24.1653 1.44532 24.1375 1.50057 24.1136C1.50057 23.9536 1.50057 23.7936 1.50057 23.6528C1.50057 23.5936 1.50057 23.5344 1.50057 23.4768C1.12457 23.224 0.75017 22.7392 0.95497 21.8352C0.987381 21.694 1.05166 21.562 1.1429 21.4494C1.23413 21.3368 1.34991 21.2466 1.48137 21.1856C1.57707 21.1403 1.67899 21.1096 1.78377 21.0944C1.44039 20.8867 1.17198 20.5751 1.01737 20.2048C0.910301 19.9335 0.86647 19.6413 0.889203 19.3505C0.911936 19.0596 1.00064 18.7778 1.14857 18.5264C1.50537 17.8864 1.54537 17.1776 1.47657 16.3456C1.04605 15.6463 0.690484 14.9035 0.41577 14.1296C0.323432 14.0122 0.260361 13.8746 0.23177 13.728C0.211108 13.6225 0.198803 13.5155 0.19497 13.408C0.0168985 12.754 -0.0373664 12.0724 0.0349699 11.3984C0.44457 8.1392 3.25417 5.4288 4.47977 4.3856C4.66882 4.21105 4.87043 4.05062 5.08297 3.9056C5.18423 3.83116 5.29884 3.77685 5.42057 3.7456C5.50214 3.51605 5.64894 3.31531 5.84297 3.168C7.83806 1.67501 10.1528 0.666072 12.6046 0.2208C13.3222 0.0925104 14.0486 0.0186998 14.7774 0C15.5062 0.0188581 16.2325 0.0926675 16.9502 0.2208C19.4009 0.665214 21.7149 1.67245 23.7102 3.1632C23.9047 3.30966 24.0512 3.51074 24.131 3.7408C24.2529 3.77151 24.3676 3.82587 24.4686 3.9008C24.6819 4.04545 24.8841 4.2059 25.0734 4.3808C26.299 5.424 29.1102 8.1344 29.5214 11.3936C29.5933 12.0694 29.5379 12.7526 29.3582 13.408Z" fill="black"/>
<path d="M10.5276 15.1776C10.1778 14.9394 9.80205 14.7419 9.40757 14.5888C8.54357 14.248 7.66357 13.9488 6.79157 13.6288C6.27797 13.44 6.28277 13.44 6.25557 12.8672C6.20597 11.8656 6.15637 10.864 6.09557 9.86238C6.02837 8.78931 5.95317 7.71678 5.86997 6.64478C5.81877 5.98718 5.74037 5.33278 5.67317 4.65918C5.49801 4.78446 5.33273 4.923 5.17877 5.07358C4.09237 6.03358 1.57237 8.55518 1.21557 11.52C1.15983 12.1173 1.21406 12.7198 1.37557 13.2976C1.37238 13.3877 1.37936 13.4778 1.39637 13.5664L1.43957 13.5104C1.71055 14.3958 2.09737 15.2415 2.58997 16.0256C2.68757 17.0288 2.68277 18.0192 2.19157 18.9568C1.87157 19.568 2.11317 20.1808 2.67157 20.3808C2.73569 20.415 2.81059 20.4229 2.88046 20.4029C2.95032 20.3829 3.00968 20.3365 3.04597 20.2736C3.21717 20.048 3.42037 19.8464 3.60597 19.6336C3.82837 19.3792 4.04597 19.12 4.28597 18.8336C4.60597 18.7504 4.96757 18.6336 5.34517 18.552C6.16597 18.376 6.98357 18.1248 7.81237 18.072C8.83477 18.0112 9.84277 18.2624 10.798 18.6528C11.0396 18.7504 11.1772 18.7216 11.318 18.4928C11.3537 18.4415 11.4017 18.4 11.4576 18.3721C11.5135 18.3441 11.5755 18.3306 11.638 18.3328C11.7004 18.3608 11.7561 18.4019 11.8014 18.4532C11.8466 18.5045 11.8804 18.5649 11.9004 18.6304C12.0124 19.1232 12.5292 19.5904 13.0556 19.6032C13.582 19.616 14.1372 19.6032 14.678 19.6032V19.2C14.6387 19.2 14.5999 19.1913 14.5644 19.1744C12.5537 18.0362 10.551 16.8949 8.55637 15.7504C8.55637 15.7504 8.54517 15.7328 8.53397 15.712C8.56277 15.4848 8.69397 15.4896 8.88917 15.5344C10.0748 15.7984 11.0796 16.4512 12.126 17.0144C12.942 17.4544 13.7356 17.9376 14.5452 18.3888C14.5819 18.4048 14.622 18.4114 14.662 18.408V17.528C14.6363 17.5291 14.6106 17.5247 14.5868 17.5152C13.1738 16.845 11.8164 16.0633 10.5276 15.1776ZM3.29237 16.9008C3.25401 17.2686 3.24919 17.6392 3.27797 18.008C3.33557 18.5808 2.92437 18.8896 2.69237 19.3024L2.55157 19.2576C2.68986 18.8193 2.79942 18.3725 2.87957 17.92C2.9127 17.4359 2.91698 16.9502 2.89237 16.4656C3.19957 16.4928 3.31637 16.6192 3.29237 16.9008ZM3.45237 16.016C3.39674 16.0486 3.33398 16.0671 3.26956 16.0699C3.20513 16.0727 3.14101 16.0597 3.08277 16.032C3.04324 16.0073 3.00992 15.9738 2.98538 15.9342C2.96084 15.8946 2.94575 15.8498 2.94126 15.8034C2.93678 15.757 2.94302 15.7102 2.95951 15.6666C2.976 15.623 3.0023 15.5838 3.03637 15.552C3.24917 15.3472 3.48117 15.1648 3.70677 14.9728L3.77877 14.912C4.29237 14.496 4.29237 14.496 4.80757 14.9872C4.35157 15.3472 3.91477 15.6944 3.45877 16.016H3.45237ZM4.12597 17.44C4.07477 17.4848 3.96597 17.4624 3.88437 17.4704C3.88437 17.3856 3.86197 17.2688 3.90837 17.2224C4.22837 16.8848 4.54837 16.5536 4.89717 16.2464C4.95477 16.1952 5.12117 16.2688 5.23797 16.2848V16.4192C4.87157 16.7648 4.50517 17.1104 4.12597 17.44ZM5.34997 14.1904C5.33077 14.3248 5.20437 14.4448 5.12597 14.5712H4.98357C4.90037 14.448 4.74997 14.3232 4.74997 14.1984C4.76228 14.1274 4.79256 14.0607 4.83793 14.0047C4.8833 13.9486 4.94225 13.9052 5.00917 13.8784C5.05392 13.8666 5.10092 13.8663 5.14582 13.8775C5.19072 13.8887 5.23206 13.9111 5.26604 13.9425C5.30001 13.9739 5.32551 14.0134 5.34018 14.0573C5.35485 14.1012 5.35822 14.148 5.34997 14.1936V14.1904ZM5.73717 16.128C5.68941 16.1314 5.64146 16.1247 5.59649 16.1083C5.55151 16.0919 5.51052 16.0661 5.47621 16.0327C5.4419 15.9993 5.41505 15.959 5.39743 15.9145C5.37981 15.87 5.37181 15.8222 5.37397 15.7744C5.36753 15.7238 5.37233 15.6724 5.38801 15.6238C5.4037 15.5753 5.42988 15.5308 5.46471 15.4935C5.49954 15.4563 5.54215 15.4271 5.58952 15.4082C5.63689 15.3892 5.68784 15.381 5.73877 15.384C5.78967 15.3806 5.84072 15.3878 5.88875 15.405C5.93678 15.4221 5.98078 15.449 6.01801 15.4839C6.05525 15.5187 6.08493 15.5609 6.10522 15.6077C6.12551 15.6545 6.13598 15.705 6.13598 15.756C6.13598 15.807 6.12551 15.8575 6.10522 15.9043C6.08493 15.9511 6.05525 15.9932 6.01801 16.0281C5.98078 16.063 5.93678 16.0898 5.88875 16.107C5.84072 16.1242 5.78967 16.1313 5.73877 16.128H5.73717ZM10.4124 17.9504C9.73717 17.8112 9.06837 17.6192 8.38677 17.5488C7.70517 17.4784 7.03477 17.5344 6.36277 17.5344C7.39957 16.9392 9.13877 17.1072 10.4124 17.9536V17.9504Z" fill="white"/>
<path d="M22.9248 3.91994C21.1615 2.52722 19.0886 1.57994 16.8816 1.15834C15.4155 0.876744 13.9092 0.876744 12.4432 1.15834C10.236 1.57964 8.16305 2.52695 6.39997 3.91994C6.35394 3.97507 6.31945 4.03889 6.29856 4.1076C6.27767 4.17631 6.27081 4.24852 6.27837 4.31994C6.36477 5.51034 6.46877 6.69594 6.56637 7.88474C6.61917 8.52474 6.66877 9.16474 6.72637 9.83994C7.55037 9.76474 8.34237 9.66714 9.14077 9.63354C9.67837 9.60794 10.1008 9.37114 10.528 9.09594C11.7582 8.2917 13.1927 7.85591 14.6624 7.83994C16.1343 7.85828 17.5702 8.29804 18.8 9.10714C19.232 9.38234 19.6512 9.61914 20.1888 9.64474C20.9888 9.67834 21.7808 9.77594 22.6016 9.85114C22.656 9.17274 22.7056 8.53434 22.7616 7.89594C22.8592 6.70714 22.9632 5.52154 23.0496 4.33114C23.0583 4.2577 23.0517 4.18326 23.0302 4.11249C23.0087 4.04172 22.9728 3.97617 22.9248 3.91994ZM8.89277 3.06714C9.01279 3.07835 9.12485 3.13207 9.20876 3.21862C9.29266 3.30516 9.34288 3.41884 9.35037 3.53914C9.3412 3.66504 9.2864 3.78327 9.19626 3.87165C9.10612 3.96002 8.98683 4.01246 8.86077 4.01914C8.73965 4.01378 8.62528 3.96187 8.54151 3.87422C8.45775 3.78658 8.41105 3.66998 8.41117 3.54874C8.41096 3.48544 8.42327 3.42272 8.4474 3.36419C8.47153 3.30567 8.50699 3.25249 8.55176 3.20773C8.59652 3.16297 8.6497 3.1275 8.70822 3.10337C8.76675 3.07924 8.82947 3.06693 8.89277 3.06714ZM7.77277 9.14714C7.71071 9.15094 7.64858 9.141 7.59081 9.11801C7.53305 9.09503 7.48106 9.05958 7.43857 9.01419C7.39609 8.9688 7.36414 8.91459 7.34503 8.85543C7.32591 8.79627 7.32008 8.73361 7.32797 8.67194C7.32344 8.60839 7.33287 8.54461 7.3556 8.48508C7.37833 8.42556 7.4138 8.37172 7.45954 8.32736C7.50528 8.283 7.56016 8.24917 7.62036 8.22827C7.68055 8.20736 7.74458 8.19988 7.80797 8.20634C7.9299 8.21211 8.04535 8.26292 8.13196 8.34894C8.21857 8.43496 8.27017 8.55006 8.27677 8.67194C8.26218 8.79864 8.20235 8.91581 8.10829 9.00193C8.01423 9.08805 7.89226 9.13734 7.76477 9.14074L7.77277 9.14714ZM9.16957 6.61274C9.00279 6.60647 8.84154 6.5513 8.70587 6.45411C8.57019 6.35692 8.46609 6.22198 8.40649 6.06609C8.3469 5.9102 8.33444 5.74023 8.37068 5.57732C8.40692 5.4144 8.49025 5.26574 8.61032 5.14981C8.73038 5.03388 8.88187 4.95581 9.04595 4.92529C9.21003 4.89478 9.37946 4.91318 9.53317 4.97819C9.68688 5.04321 9.81809 5.15198 9.91047 5.29097C10.0029 5.42996 10.0523 5.59305 10.0528 5.75994C10.0432 5.98914 9.94488 6.20562 9.77855 6.36359C9.61222 6.52156 9.39095 6.60862 9.16157 6.60634L9.16957 6.61274ZM12.48 1.86394H16.848C17.2176 1.86394 17.4288 2.04314 17.4288 2.34394C17.4288 2.64474 17.2608 2.77434 16.8608 2.77594C16.128 2.77594 15.3952 2.77594 14.6624 2.77594C13.9296 2.77594 13.1968 2.77594 12.464 2.77594C12.064 2.77594 11.8912 2.63994 11.8944 2.34394C11.8976 2.04794 12.1072 1.86394 12.48 1.86394ZM12.432 3.49754C13.1776 3.49754 13.9232 3.49754 14.672 3.49754C15.4208 3.49754 16.1616 3.49754 16.912 3.49754C17.2928 3.49754 17.4816 3.67354 17.48 3.98554C17.4784 4.29754 17.28 4.49594 16.92 4.49754C16.1744 4.49754 15.4256 4.49754 14.68 4.49754C13.9344 4.49754 13.184 4.49754 12.44 4.49754C12.0832 4.49754 11.8816 4.29274 11.8816 3.98554C11.8816 3.67834 12.048 3.50074 12.4272 3.49754H12.432ZM12.3872 5.19994L14.6624 5.19034L16.9376 5.19994C17.3264 5.19994 17.496 5.35994 17.488 5.67994C17.48 5.99994 17.2848 6.15994 16.92 6.15994H12.4048C12.0384 6.15994 11.8448 5.99994 11.8352 5.67994C11.8256 5.35994 12 5.20314 12.3872 5.19994ZM14.6624 7.24794C13.4298 7.27254 12.2045 7.44442 11.0128 7.75994C11.5088 7.21594 13.0928 6.94394 14.6624 6.93434C16.232 6.92474 17.816 7.21594 18.3104 7.75994C17.1191 7.44443 15.8944 7.27254 14.6624 7.24794ZM20.432 3.06714C20.5593 3.06714 20.6814 3.11771 20.7714 3.20773C20.8614 3.29775 20.912 3.41984 20.912 3.54714C20.9121 3.66865 20.8652 3.78547 20.7811 3.87316C20.6969 3.96084 20.5822 4.01258 20.4608 4.01754C20.3348 4.01053 20.2157 3.95797 20.1257 3.86967C20.0356 3.78136 19.9807 3.66332 19.9712 3.53754C19.9794 3.41713 20.0304 3.30362 20.1149 3.2174C20.1993 3.13118 20.3118 3.0779 20.432 3.06714ZM20.16 6.60634C19.9311 6.60779 19.7107 6.52036 19.545 6.36247C19.3794 6.20459 19.2815 5.98858 19.272 5.75994C19.2683 5.64914 19.2869 5.53873 19.3264 5.43517C19.366 5.33161 19.4258 5.23698 19.5024 5.15683C19.579 5.07667 19.6708 5.01259 19.7724 4.96835C19.8741 4.9241 19.9835 4.90057 20.0944 4.89914C20.3208 4.89044 20.5413 4.97203 20.7076 5.12596C20.8738 5.27989 20.9721 5.49356 20.9808 5.71994C20.9895 5.94633 20.9079 6.1669 20.754 6.33314C20.6 6.49937 20.3864 6.59764 20.16 6.60634ZM21.5584 9.14074C21.432 9.13584 21.3116 9.08588 21.2188 8.99989C21.1261 8.91391 21.0672 8.79758 21.0528 8.67194C21.0593 8.55032 21.1107 8.43543 21.197 8.34946C21.2833 8.26348 21.3983 8.21249 21.52 8.20634C21.5834 8.19988 21.6474 8.20736 21.7076 8.22827C21.7678 8.24917 21.8227 8.283 21.8684 8.32736C21.9141 8.37172 21.9496 8.42556 21.9723 8.48508C21.9951 8.54461 22.0045 8.60839 22 8.67194C22.0068 8.7327 22.0003 8.7942 21.981 8.8522C21.9617 8.9102 21.93 8.96333 21.8882 9.0079C21.8463 9.05247 21.7953 9.08743 21.7387 9.11037C21.682 9.13331 21.621 9.14367 21.56 9.14074H21.5584Z" fill="#A7ACB7"/>
<path d="M20.8765 10.1072C20.3725 10.0528 19.8637 10.04 19.3645 9.96483C19.1269 9.9208 18.8992 9.83406 18.6925 9.70883C17.7037 9.15043 16.6813 8.69443 15.5469 8.50403C14.9613 8.40377 14.3629 8.40377 13.7773 8.50403C12.6429 8.69443 11.6205 9.14403 10.6317 9.70883C10.4249 9.83381 10.1973 9.92052 9.9597 9.96483C9.4589 10.04 8.9517 10.0528 8.4477 10.1072C7.8861 10.168 7.3277 10.2464 6.7373 10.32C6.7821 11.0976 6.8189 11.8448 6.8749 12.5904C6.8892 12.637 6.91351 12.6799 6.94612 12.7161C6.97873 12.7523 7.01886 12.781 7.0637 12.8C7.56077 13.0038 8.06157 13.1984 8.5661 13.384C9.3965 13.704 10.2285 14 11.0573 14.3056C11.0989 13.9488 10.9293 13.7856 10.6045 13.6656C10.0429 13.4736 9.5021 13.2224 8.9549 12.9968C8.9645 12.9584 8.9757 12.9184 8.9869 12.8784C9.3261 12.696 9.6125 12.9856 9.9213 13.0384C10.2573 13.104 10.5837 13.2112 10.9757 13.3168C10.9757 12.168 11.2333 11.192 11.9549 10.3904C12.296 10.0102 12.7133 9.70607 13.1798 9.49788C13.6462 9.28968 14.1513 9.18208 14.6621 9.18208C15.1729 9.18208 15.678 9.28968 16.1444 9.49788C16.6109 9.70607 17.0282 10.0102 17.3693 10.3904C18.0909 11.1904 18.3501 12.168 18.3485 13.3168C18.7405 13.2112 19.0669 13.104 19.4029 13.0384C19.7117 12.9776 19.9997 12.688 20.3373 12.8784C20.3485 12.9184 20.3581 12.9584 20.3693 12.9968C19.8205 13.2224 19.2797 13.4768 18.7213 13.6656C18.4013 13.7776 18.2253 13.9408 18.2653 14.3056C19.0941 14 19.9277 13.696 20.7581 13.384C21.2616 13.1963 21.7618 13.0016 22.2589 12.8C22.3405 12.7664 22.4429 12.6672 22.4477 12.592C22.5037 11.8464 22.5405 11.0992 22.5869 10.3216C21.9981 10.24 21.4397 10.168 20.8765 10.1072ZM8.1597 12.7056C7.93717 12.7002 7.72566 12.6076 7.57067 12.4478C7.41567 12.2881 7.32958 12.0738 7.3309 11.8512C7.3309 11.3616 7.7261 10.9312 8.1757 10.9296C8.2918 10.9252 8.40754 10.9451 8.51547 10.9881C8.6234 11.0311 8.72113 11.0962 8.80237 11.1792C8.88362 11.2623 8.94656 11.3614 8.98716 11.4703C9.02776 11.5791 9.04512 11.6953 9.0381 11.8112C9.03376 12.0443 8.94031 12.2669 8.77694 12.4333C8.61357 12.5996 8.3927 12.6971 8.1597 12.7056ZM21.1517 12.7056C20.9186 12.6975 20.6975 12.6001 20.534 12.4337C20.3706 12.2673 20.2773 12.0445 20.2733 11.8112C20.2663 11.6954 20.2836 11.5794 20.3241 11.4707C20.3646 11.3619 20.4274 11.2629 20.5085 11.1798C20.5896 11.0968 20.6871 11.0317 20.7948 10.9886C20.9026 10.9455 21.0181 10.9254 21.1341 10.9296C21.5853 10.9296 21.9789 11.3616 21.9805 11.8512C21.9819 12.0728 21.8967 12.286 21.743 12.4456C21.5894 12.6053 21.3795 12.6985 21.1581 12.7056H21.1517Z" fill="#A7ACB7"/>
<path d="M20.4508 37.8464C20.332 38.0119 20.1885 38.1582 20.0252 38.28C19.9871 38.2954 19.946 38.302 19.9049 38.2992C19.8639 38.2964 19.8241 38.2844 19.7884 38.264C19.7206 38.2203 19.6446 38.191 19.565 38.1778C19.4855 38.1646 19.404 38.1678 19.3258 38.1873C19.2475 38.2068 19.1741 38.2421 19.11 38.2911C19.0459 38.3401 18.9925 38.4016 18.9532 38.472C18.886 38.6 18.8412 38.744 18.7836 38.8784C18.646 39.1984 18.3852 39.248 18.1836 38.9648C18.0236 38.7328 17.8524 38.5792 17.5644 38.6672C17.338 38.7163 17.1216 38.8034 16.9244 38.9248C16.7036 39.0848 16.5148 39.1984 16.238 39.0736C16.1103 39.0259 15.9742 39.0047 15.838 39.0112H13.4908C13.3551 39.0048 13.2196 39.026 13.0924 39.0736C12.8156 39.1984 12.6268 39.0912 12.406 38.9248C12.2085 38.8039 11.9922 38.7169 11.766 38.6672C11.478 38.5792 11.3084 38.7328 11.1468 38.9648C10.9452 39.248 10.6844 39.1968 10.5468 38.8784C10.4876 38.744 10.4444 38.6 10.3756 38.472C10.3364 38.4017 10.2832 38.3401 10.2192 38.2912C10.1553 38.2422 10.082 38.2069 10.0038 38.1874C9.92571 38.1679 9.84441 38.1647 9.76497 38.1779C9.68553 38.191 9.60964 38.2204 9.54198 38.264C9.50628 38.2844 9.46643 38.2964 9.42542 38.2992C9.3844 38.302 9.34329 38.2954 9.30518 38.28C9.03198 38.0846 8.82 37.8154 8.69398 37.504C8.60118 37.6192 8.50678 37.7344 8.40918 37.848C8.53195 38.1056 8.71399 38.3304 8.94038 38.504C9.0022 38.545 9.05368 38.5998 9.09078 38.664C9.13238 38.7616 9.19798 38.9088 9.15638 38.9712C8.90838 39.3488 9.15638 39.4928 9.43158 39.6448C10.6103 40.2899 11.9281 40.6391 13.2716 40.6624C13.7372 40.6784 14.2044 40.6832 14.67 40.6816C15.1356 40.68 15.6012 40.6816 16.0684 40.6624C17.4118 40.6388 18.7295 40.2897 19.9084 39.6448C20.1756 39.4928 20.4316 39.3488 20.1836 38.9712C20.1436 38.9088 20.2076 38.7616 20.2492 38.664C20.2857 38.5994 20.3373 38.5445 20.3996 38.504C20.5248 38.4055 20.6377 38.2921 20.7356 38.1664C20.6396 38.0608 20.5404 37.9552 20.4508 37.8464Z" fill="white"/>
<path d="M14.2401 38.2C14.2401 37.656 14.2401 37.1424 14.2401 36.6288C14.2401 36.3088 14.0401 36.1488 13.6801 36.1488C13.3201 36.1488 13.1041 36.3264 13.0977 36.6288C13.0977 37.0816 13.0977 37.5344 13.0977 37.9872C13.0977 38.1472 13.1633 38.2112 13.3233 38.2064C13.6161 38.1952 13.9105 38.2 14.2401 38.2Z" fill="white"/>
<path d="M11.2652 37.6C11.2652 37.6928 11.3356 37.84 11.4044 37.8624C11.668 37.9303 11.9351 37.9837 12.2044 38.0224C12.2044 37.4288 12.2156 36.8816 12.2044 36.336C12.1964 36.0976 11.8844 35.8928 11.622 35.92C11.3596 35.9472 11.2492 36.104 11.2572 36.3712C11.2668 36.784 11.2492 37.1952 11.2652 37.6Z" fill="white"/>
<path d="M10.1635 37.4576C10.2035 37.4672 10.2435 37.472 10.3235 37.4848C10.3235 36.9344 10.3331 36.3984 10.3235 35.864C10.3179 35.8013 10.2992 35.7405 10.2687 35.6855C10.2382 35.6304 10.1965 35.5824 10.1463 35.5444C10.0962 35.5064 10.0386 35.4794 9.97735 35.465C9.9161 35.4506 9.85251 35.4491 9.79067 35.4608C9.51707 35.4912 9.49787 35.6736 9.51547 35.896C9.53386 36.1377 9.53867 36.3802 9.52987 36.6224C9.50267 37.2992 9.49787 37.2992 10.1635 37.4576Z" fill="white"/>
<path d="M8.11953 12.288C8.16714 12.2942 8.21552 12.2908 8.26179 12.278C8.30805 12.2652 8.35128 12.2432 8.38889 12.2133C8.42649 12.1835 8.45772 12.1464 8.48071 12.1042C8.50371 12.0621 8.518 12.0158 8.52273 11.968L7.78033 11.9136C7.77513 11.961 7.78005 12.0091 7.79477 12.0545C7.80949 12.0999 7.83367 12.1417 7.86573 12.1771C7.89779 12.2124 7.93698 12.2406 7.98073 12.2597C8.02448 12.2789 8.07179 12.2885 8.11953 12.288Z" fill="#A7ACB7"/>
<path d="M27.2635 25.4624C27.2635 25.3024 27.2779 25.1424 27.2859 24.9824C27.0507 25.104 26.9019 25.2528 26.9307 25.568C26.9571 25.9366 26.9571 26.3066 26.9307 26.6752C26.9307 26.76 26.8459 26.8352 26.8011 26.9248C26.7659 26.9104 26.7307 26.8944 26.6939 26.8816V25.5664C26.1515 26.0816 25.6491 26.5408 25.1723 27.0256C25.0435 27.1624 24.8861 27.2691 24.7113 27.3383C24.5365 27.4074 24.3487 27.4372 24.1611 27.4256C22.5771 27.4016 20.9899 27.4048 19.4059 27.4256C19.0635 27.4256 19.0459 27.1136 18.8059 27.008C19.0187 26.7184 19.2155 26.5632 19.5963 26.5712C21.1611 26.6064 22.7259 26.5952 24.2891 26.5904C24.3887 26.5862 24.4835 26.5465 24.5563 26.4784C25.2347 25.8128 25.9067 25.1408 26.5723 24.4624C26.6497 24.3677 26.6936 24.2501 26.6971 24.128C26.7115 23.7808 26.6843 23.432 26.7067 23.0848C26.7131 23.0229 26.7338 22.9634 26.7671 22.911C26.8005 22.8585 26.8455 22.8145 26.8987 22.7824C27.2939 22.6688 27.3195 22.4048 27.2379 22.024L25.9739 22.5936C25.9739 22.312 25.9579 22.0448 25.9739 21.784C25.9995 21.4768 25.9403 21.2288 25.6027 21.08C25.6027 21.9472 25.5931 22.8016 25.6027 23.6528C25.6148 23.8037 25.5919 23.9554 25.5359 24.0961C25.4798 24.2368 25.3921 24.3627 25.2795 24.464C24.9115 24.7984 24.5835 25.1776 24.1963 25.4848C23.9813 25.6671 23.7154 25.7788 23.4347 25.8048C22.0203 25.8288 20.6059 25.8048 19.1899 25.8048C19.0665 25.8086 18.9457 25.8421 18.8379 25.9024C18.6507 26 18.4811 26.1264 18.2443 26.2784C17.6283 24.9808 17.0187 23.7024 16.4251 22.4592C16.4255 22.4565 16.4255 22.4538 16.4251 22.4512C16.1147 23.0368 16.4251 23.5264 16.6555 24.0352C16.8155 24.3968 17.1915 24.7616 16.6555 25.1552C16.5243 24.9072 16.3755 24.624 16.2251 24.344C15.9051 23.76 15.5851 23.1792 15.2859 22.584C15.2675 22.5348 15.2591 22.4824 15.2613 22.4299C15.2635 22.3774 15.2762 22.3258 15.2987 22.2784C15.4731 21.9216 15.6683 21.5744 15.8715 21.192H13.4555C13.6587 21.5744 13.8539 21.9216 14.0267 22.2784C14.0495 22.3257 14.0625 22.3772 14.065 22.4297C14.0674 22.4822 14.0593 22.5347 14.0411 22.584C13.7371 23.1744 13.4155 23.7552 13.1003 24.344C12.9499 24.624 12.8027 24.9072 12.6699 25.1552C12.1323 24.7616 12.5099 24.3968 12.6699 24.0352C12.9051 23.5264 13.2123 23.0368 12.9019 22.4512C12.9021 22.4538 12.9021 22.4565 12.9019 22.4592C12.3099 23.7024 11.7003 24.9808 11.0843 26.2784C10.8475 26.1184 10.6763 26 10.4907 25.9024C10.3824 25.8419 10.2611 25.8084 10.1371 25.8048C8.72112 25.8048 7.30672 25.8352 5.89232 25.8048C5.61218 25.7785 5.34687 25.6668 5.13232 25.4848C4.74512 25.1776 4.41712 24.7984 4.04752 24.464C3.93391 24.3636 3.84516 24.2382 3.78824 24.0978C3.73132 23.9573 3.7078 23.8055 3.71952 23.6544C3.73392 22.8032 3.71952 21.9488 3.71952 21.0816C3.38192 21.2304 3.32272 21.4784 3.34832 21.7856C3.36752 22.0464 3.34832 22.3136 3.34832 22.5952L2.08432 22.0256C2.00112 22.4064 2.02832 22.6656 2.42352 22.784C2.47674 22.8161 2.52179 22.8601 2.5551 22.9126C2.58842 22.965 2.6091 23.0245 2.61552 23.0864C2.63792 23.4336 2.61552 23.7824 2.62352 24.1296C2.62748 24.2522 2.67256 24.37 2.75152 24.464C3.41392 25.144 4.08752 25.8144 4.76432 26.48C4.83781 26.548 4.93308 26.5877 5.03312 26.592C6.59792 26.592 8.16112 26.608 9.72592 26.5728C10.1067 26.5648 10.3035 26.72 10.5147 27.0096C10.2747 27.1152 10.2587 27.432 9.91632 27.4272C8.33072 27.408 6.74512 27.4048 5.15952 27.4272C4.9722 27.4386 4.78467 27.4087 4.6102 27.3395C4.43573 27.2704 4.27859 27.1638 4.14992 27.0272C3.66992 26.5472 3.16912 26.0832 2.62672 25.568V26.88L2.52112 26.9232C2.47472 26.84 2.39472 26.7632 2.38992 26.6736C2.36247 26.3051 2.3598 25.9352 2.38192 25.5664C2.41232 25.2464 2.26352 25.1024 2.02832 24.9808C2.02832 25.1408 2.05072 25.3008 2.05072 25.4608C2.05072 26.1792 2.06032 26.9008 2.05072 27.6176C2.0445 27.7228 2.06535 27.828 2.11129 27.9229C2.15722 28.0179 2.22671 28.0995 2.31312 28.16C2.93712 28.68 3.54192 29.2224 4.16592 29.7424C4.28609 29.8382 4.43321 29.8942 4.58672 29.9024C5.51632 29.9232 6.44592 29.928 7.37712 29.9248C7.66643 29.9196 7.9534 29.9775 8.21812 30.0943C8.48284 30.2112 8.71898 30.3842 8.91016 30.6014C9.10134 30.8186 9.24299 31.0748 9.32528 31.3522C9.40757 31.6296 9.42853 31.9216 9.38672 32.208C9.3624 32.3074 9.36967 32.412 9.40752 32.5072C9.65872 32.92 9.62352 33.3456 9.54032 33.7872C9.39152 34.5744 9.43632 34.616 10.2091 34.76C10.2267 34.76 10.2507 34.76 10.3131 34.7376C10.3131 34.5504 10.3131 34.352 10.3131 34.1536C10.3131 33.784 10.3131 33.4144 10.3211 33.0448C10.3236 32.9006 10.3821 32.763 10.4842 32.6611C10.5864 32.5593 10.7241 32.5012 10.8683 32.4992C11.1291 32.5152 11.2507 32.6848 11.2555 33.048C11.2555 33.2608 11.2555 33.4704 11.2555 33.688V35.0688C11.5755 35.1248 11.8363 35.1744 12.1627 35.2288C12.1627 34.768 12.1627 34.3376 12.1627 33.9072C12.1627 33.2816 12.2955 33.0448 12.6283 33.0544C12.9611 33.064 13.0747 33.2976 13.0779 33.8928C13.0779 34.2928 13.0779 34.6928 13.0955 35.096C13.0955 35.1808 13.1979 35.3264 13.2555 35.3312C13.5755 35.3568 13.8955 35.3424 14.2427 35.3424C14.2427 34.992 14.2427 34.6848 14.2427 34.3824C14.2507 34.0544 14.2523 33.7264 14.2923 33.4032C14.2923 33.3073 14.3304 33.2153 14.3982 33.1475C14.466 33.0797 14.558 33.0416 14.6539 33.0416C14.7498 33.0416 14.8418 33.0797 14.9096 33.1475C14.9774 33.2153 15.0155 33.3073 15.0155 33.4032C15.0555 33.7232 15.0571 34.0544 15.0651 34.3824C15.0651 34.6864 15.0651 34.9936 15.0651 35.3424C15.4059 35.3424 15.7291 35.3568 16.0523 35.3312C16.1147 35.3312 16.2123 35.1808 16.2123 35.096C16.2331 34.696 16.2267 34.296 16.2299 33.8928C16.2299 33.2976 16.3595 33.0608 16.6795 33.0544C16.9995 33.048 17.1419 33.2816 17.1451 33.9072C17.1451 34.3376 17.1451 34.768 17.1451 35.2288C17.4651 35.168 17.7371 35.1184 18.0507 35.0688V33.688C18.0507 33.4752 18.0507 33.2656 18.0507 33.048C18.0507 32.6848 18.1787 32.5152 18.4379 32.4992C18.5823 32.5012 18.7202 32.5592 18.8226 32.661C18.925 32.7628 18.9838 32.9004 18.9867 33.0448C19.0027 33.4144 18.9867 33.784 18.9867 34.1536C18.9867 34.352 18.9867 34.5504 18.9867 34.7376C19.0491 34.752 19.0715 34.7648 19.0907 34.76C19.8635 34.616 19.9083 34.5744 19.7595 33.7872C19.6763 33.3392 19.6411 32.9136 19.8907 32.5072C19.9291 32.4122 19.9369 32.3076 19.9131 32.208C19.8699 31.9192 19.8906 31.6244 19.9738 31.3445C20.057 31.0646 20.2006 30.8064 20.3946 30.5882C20.5886 30.3699 20.8282 30.197 21.0964 30.0815C21.3646 29.966 21.6549 29.9109 21.9467 29.92C22.8779 29.92 23.8059 29.92 24.7355 29.8976C24.8895 29.8894 25.0372 29.8335 25.1579 29.7376C25.7819 29.2176 26.3867 28.6752 27.0107 28.1552C27.0949 28.0948 27.1625 28.0142 27.2072 27.9208C27.2519 27.8274 27.2724 27.7242 27.2667 27.6208C27.2539 26.8992 27.2619 26.1808 27.2635 25.4624ZM9.99952 31.4752C9.81872 31.0656 9.63472 30.6752 9.48272 30.2768C9.44432 30.1792 9.50992 30.0416 9.52752 29.92C9.62192 29.9728 9.76592 30.0048 9.80272 30.08C9.96272 30.4208 10.1003 30.776 10.2363 31.1296C10.3179 31.3408 10.2123 31.4432 9.99952 31.4752ZM10.1451 28.7232C9.04272 28.6496 7.93712 28.6144 6.83312 28.5632C6.80174 28.5597 6.76999 28.5626 6.73975 28.5717C6.70951 28.5807 6.68141 28.5958 6.65712 28.616C6.35952 28.9872 5.92112 28.9232 5.52752 28.9824C5.27647 29.0128 5.02347 29.024 4.77072 29.016C4.66674 29.0198 4.56404 28.9919 4.47632 28.936C3.93232 28.52 3.39312 28.0992 2.86672 27.656C2.77874 27.5478 2.71197 27.4241 2.66992 27.2912L2.79152 27.2064C3.18192 27.4848 3.61072 27.7248 3.95472 28.0528C4.43472 28.5104 4.95632 28.5328 5.55472 28.4144C7.04272 28.1264 8.53232 28.1984 10.0219 28.4144C10.1819 28.4384 10.3515 28.4336 10.5595 28.4464C10.4571 28.6528 10.3803 28.7376 10.1451 28.7232ZM11.8939 27.0768C11.8075 27.2768 11.6843 27.4592 11.5915 27.6576C11.4987 27.856 11.3819 27.856 11.1963 27.6992C11.3435 27.4336 11.4779 27.1728 11.6347 26.9296C11.6747 26.8672 11.7947 26.856 11.8763 26.8208C11.8843 26.9072 11.9259 27.0064 11.8939 27.0768ZM14.2027 31.3408C14.0156 31.5074 13.8184 31.6623 13.6123 31.8048C13.5515 31.8464 13.4523 31.8288 13.3675 31.8384C13.3675 31.752 13.3387 31.6272 13.3851 31.5872C13.6587 31.3392 13.9515 31.1072 14.2459 30.8688C14.2798 30.8997 14.306 30.9381 14.3226 30.9809C14.3392 31.0237 14.3456 31.0698 14.3414 31.1155C14.3372 31.1612 14.3225 31.2053 14.2985 31.2444C14.2744 31.2835 14.2416 31.3164 14.2027 31.3408ZM15.9627 31.8384C15.8795 31.8288 15.7787 31.8384 15.7179 31.8048C15.5118 31.6623 15.3146 31.5074 15.1275 31.3408C15.0883 31.3167 15.0553 31.2838 15.031 31.2447C15.0068 31.2056 14.992 31.1614 14.9878 31.1156C14.9836 31.0698 14.9901 31.0236 15.0069 30.9808C15.0236 30.9379 15.0502 30.8996 15.0843 30.8688C15.3787 31.1104 15.6715 31.3392 15.9451 31.5872C15.9835 31.6272 15.9531 31.752 15.9563 31.84L15.9627 31.8384ZM16.6395 30.464C16.1595 30.7088 15.5579 30.656 15.2667 30.304C15.143 30.138 15.0622 29.9439 15.0315 29.7392C14.8987 28.9392 14.7915 28.1392 14.6731 27.3392H14.6539C14.5355 28.1392 14.4283 28.9392 14.2955 29.7392C14.2639 29.9437 14.1832 30.1375 14.0603 30.304C13.7691 30.6592 13.1755 30.712 12.6875 30.464C12.1995 30.216 11.9435 29.824 12.0891 29.336C12.3771 28.376 12.6987 27.4304 13.0699 26.5024C13.3276 25.892 13.6342 25.3034 13.9867 24.7424C14.0536 24.6129 14.1494 24.5006 14.2668 24.4143C14.3842 24.328 14.52 24.2699 14.6635 24.2448C14.8068 24.2702 14.9422 24.3283 15.0593 24.4146C15.1764 24.5009 15.272 24.6131 15.3387 24.7424C15.6917 25.3034 15.9988 25.8919 16.2571 26.5024C16.6283 27.4304 16.9483 28.3792 17.2363 29.336C17.3803 29.8224 17.1195 30.224 16.6395 30.464ZM17.7323 27.6576C17.6411 27.4592 17.5179 27.2768 17.4299 27.0768C17.3995 27.0064 17.4395 26.9072 17.4491 26.8208C17.5307 26.856 17.6507 26.8672 17.6891 26.9296C17.8491 27.1728 17.9819 27.4336 18.1307 27.6992C17.9419 27.856 17.8251 27.8624 17.7307 27.6576H17.7323ZM19.8395 30.2768C19.6795 30.6784 19.5035 31.0656 19.3227 31.4752C19.1099 31.4432 19.0027 31.3408 19.0843 31.1328C19.2219 30.7792 19.3563 30.424 19.5195 30.0832C19.5563 30.0048 19.7003 29.9728 19.7947 29.9232C19.8139 30.0416 19.8795 30.1792 19.8395 30.2768ZM26.4555 27.6688C25.9291 28.1072 25.3899 28.528 24.8459 28.9488C24.7583 29.0049 24.6555 29.0328 24.5515 29.0288C24.2988 29.0369 24.0458 29.0256 23.7947 28.9952C23.4011 28.936 22.9627 28.9952 22.6651 28.6288C22.6408 28.6086 22.6127 28.5935 22.5825 28.5845C22.5523 28.5754 22.5205 28.5725 22.4891 28.576C21.3835 28.6192 20.2795 28.6544 19.1771 28.736C18.9403 28.7504 18.8571 28.6656 18.7659 28.4688C18.9739 28.456 19.1403 28.4688 19.3035 28.4368C20.7915 28.224 22.2827 28.152 23.7691 28.4368C24.3659 28.552 24.8891 28.5328 25.3691 28.0752C25.7131 27.7552 26.1435 27.5072 26.5339 27.2288L26.6555 27.3136C26.6113 27.4429 26.5441 27.5632 26.4571 27.6688H26.4555Z" fill="white"/>
<path d="M16.8206 13.1408C16.7502 12.8768 16.6734 12.6272 16.6238 12.3712C16.6196 12.3278 16.6245 12.284 16.6383 12.2426C16.6521 12.2013 16.6744 12.1633 16.7038 12.1312C16.8013 12.0486 16.9088 11.9787 17.0238 11.9232C17.4078 11.6992 17.4126 11.64 17.0686 11.3168C16.7918 11.4064 16.6398 11.9184 16.3038 11.6896C15.5534 11.1744 15.5758 11.1424 15.8718 10.328L15.3918 10.1248C15.2894 10.3904 15.2558 10.704 15.0862 10.8304C14.9567 10.8953 14.8093 10.9156 14.667 10.888C14.5222 10.9174 14.3717 10.8971 14.2398 10.8304C14.0686 10.704 14.0366 10.3904 13.9326 10.1248L13.4526 10.328C13.7486 11.1424 13.7726 11.1744 13.0206 11.6896C12.6846 11.9184 12.5406 11.4064 12.2558 11.3168C11.9118 11.6368 11.9166 11.6992 12.3006 11.9232C12.4159 11.9782 12.5235 12.0482 12.6206 12.1312C12.6499 12.1635 12.6722 12.2015 12.6862 12.2427C12.7003 12.284 12.7057 12.3277 12.7022 12.3712C12.6526 12.6272 12.5742 12.8768 12.5054 13.1408L11.8398 13.1968V13.72C12.0942 13.7024 12.3198 13.6848 12.5358 13.6672C12.6222 13.8272 12.6958 13.952 12.763 14.0848C12.933 14.4427 13.2009 14.7451 13.5358 14.9568C13.8707 15.1685 14.2588 15.2809 14.655 15.2809C15.0513 15.2809 15.4393 15.1685 15.7742 14.9568C16.1091 14.7451 16.3771 14.4427 16.547 14.0848C16.6142 13.952 16.6894 13.8256 16.7758 13.6672C16.9886 13.6848 17.2174 13.7024 17.4718 13.72V13.1968L16.8206 13.1408ZM14.6622 14.9776C13.6878 14.9776 12.7806 14.1072 12.7758 13.1696C12.7758 12.0496 13.619 11.1296 14.6622 11.1216C15.7054 11.1136 16.5518 12.0496 16.5486 13.1696C16.5438 14.1072 15.635 14.9712 14.6622 14.9776Z" fill="#A7ACB7"/>
<path d="M14.6671 11.464H14.6559C14.4524 11.4626 14.2508 11.5024 14.0632 11.5812C13.8756 11.66 13.7059 11.7761 13.5645 11.9224C13.4232 12.0688 13.313 12.2423 13.2407 12.4325C13.1683 12.6226 13.1354 12.8255 13.1439 13.0288C13.1494 13.4353 13.3095 13.8243 13.5915 14.117C13.8735 14.4097 14.2563 14.5841 14.6623 14.6048C15.0682 14.5841 15.451 14.4097 15.7331 14.117C16.0151 13.8243 16.1751 13.4353 16.1807 13.0288C16.1891 12.8254 16.1562 12.6224 16.0838 12.4321C16.0113 12.2418 15.901 12.0682 15.7595 11.9218C15.6179 11.7755 15.4481 11.6595 15.2603 11.5808C15.0725 11.5021 14.8707 11.4623 14.6671 11.464ZM14.6671 14.0768H14.6511C14.3853 14.0606 14.1358 13.9436 13.9533 13.7498C13.7708 13.556 13.669 13.2999 13.6687 13.0336C13.6687 12.9036 13.6943 12.7748 13.7441 12.6546C13.7938 12.5345 13.8668 12.4253 13.9588 12.3333C14.0507 12.2414 14.1599 12.1684 14.2801 12.1186C14.4002 12.0689 14.529 12.0432 14.6591 12.0432C14.7891 12.0432 14.9179 12.0689 15.0381 12.1186C15.1582 12.1684 15.2674 12.2414 15.3594 12.3333C15.4514 12.4253 15.5243 12.5345 15.5741 12.6546C15.6239 12.7748 15.6495 12.9036 15.6495 13.0336C15.65 13.2999 15.5491 13.5564 15.3671 13.7508C15.1852 13.9452 14.936 14.0629 14.6703 14.08L14.6671 14.0768Z" fill="#A7ACB7"/>
<path d="M15.9998 38.2016C16.1598 38.2016 16.227 38.1488 16.2238 37.9824C16.2238 37.5296 16.2238 37.0768 16.2238 36.624C16.2238 36.3216 15.9934 36.144 15.6414 36.144C15.2894 36.144 15.0862 36.304 15.083 36.624C15.083 37.1376 15.083 37.6512 15.083 38.1952C15.4142 38.2 15.707 38.1952 15.9998 38.2016Z" fill="white"/>
<path d="M17.7041 35.9216C17.4353 35.8944 17.1297 36.0992 17.1233 36.3376C17.1073 36.8832 17.1233 37.4304 17.1233 38.024C17.3927 37.9853 17.6598 37.9319 17.9233 37.864C17.9921 37.8416 18.0593 37.6944 18.0625 37.6016C18.0769 37.1904 18.0625 36.7792 18.0721 36.368C18.0801 36.1056 17.9697 35.9472 17.7041 35.9216Z" fill="white"/>
<path d="M19.5441 35.4608C19.4822 35.4491 19.4187 35.4506 19.3574 35.465C19.2962 35.4794 19.2386 35.5064 19.1884 35.5444C19.1382 35.5824 19.0966 35.6304 19.0661 35.6855C19.0355 35.7405 19.0169 35.8013 19.0113 35.864C18.9969 36.3984 19.0113 36.9344 19.0113 37.4848C19.0849 37.472 19.1265 37.4672 19.1713 37.4576C19.8353 37.2976 19.8321 37.2976 19.8113 36.6224C19.8038 36.3801 19.8092 36.1377 19.8273 35.896C19.8401 35.68 19.8177 35.4912 19.5441 35.4608Z" fill="white"/>
<path d="M21.205 12.288C21.252 12.2884 21.2985 12.279 21.3417 12.2604C21.3848 12.2417 21.4236 12.2143 21.4555 12.1798C21.4875 12.1453 21.5118 12.1045 21.5271 12.0601C21.5424 12.0156 21.5482 11.9685 21.5442 11.9216L20.8018 11.976C20.8073 12.0232 20.8221 12.0688 20.8455 12.1101C20.8689 12.1515 20.9002 12.1877 20.9378 12.2168C20.9753 12.2458 21.0183 12.2671 21.0642 12.2793C21.1101 12.2916 21.1579 12.2945 21.205 12.288Z" fill="#A7ACB7"/>
<path d="M24.0817 21.76V21.2352L23.3857 21.288L23.2673 21.0768C23.2782 21.0556 23.2922 21.0362 23.3089 21.0192C23.4061 20.9362 23.5137 20.8663 23.6289 20.8112C24.0129 20.5872 24.0177 20.528 23.6753 20.2048C23.4305 20.2848 23.2833 20.6848 23.0225 20.6304C22.8359 20.3513 22.5852 20.1209 22.2913 19.9584C22.2673 19.7984 22.3441 19.584 22.4769 19.216L21.9969 19.0128C21.8929 19.2784 21.8609 19.592 21.6913 19.7168C21.6858 19.7206 21.6799 19.7238 21.6737 19.7264C21.411 19.6614 21.1364 19.6614 20.8737 19.7264C20.8681 19.7238 20.8627 19.7206 20.8577 19.7168C20.6881 19.592 20.6561 19.2784 20.5505 19.0128L20.0705 19.216C20.2049 19.584 20.2817 19.792 20.2577 19.9584C19.9606 20.123 19.7076 20.3568 19.5201 20.64C19.2609 20.6992 19.1137 20.2944 18.8689 20.2144C18.5249 20.5344 18.5297 20.5968 18.9137 20.8208C19.0287 20.8764 19.1363 20.9463 19.2337 21.0288C19.25 21.0458 19.2634 21.0653 19.2737 21.0864L19.1569 21.2976L18.4609 21.2448V21.76L19.1169 21.816L19.1457 21.9232L19.1169 22.0288L18.4609 22.0848V22.6096L19.1569 22.5568L19.2737 22.768C19.263 22.7894 19.2496 22.8093 19.2337 22.8272C19.1358 22.9087 19.0284 22.978 18.9137 23.0336C18.5297 23.2592 18.5249 23.3168 18.8689 23.64C19.1137 23.5616 19.2609 23.16 19.5201 23.216C19.7083 23.4944 19.9593 23.7246 20.2529 23.888C20.2769 24.048 20.2001 24.2608 20.0657 24.6288L20.5457 24.832C20.6513 24.5664 20.6833 24.2528 20.8529 24.128C20.8529 24.128 20.8641 24.128 20.8689 24.12C21.1319 24.183 21.406 24.183 21.6689 24.12C21.6689 24.12 21.6817 24.12 21.6865 24.128C21.8561 24.2528 21.8881 24.5664 21.9921 24.832L22.4721 24.6288C22.3393 24.2608 22.2625 24.0528 22.2865 23.888C22.5797 23.7246 22.8302 23.4944 23.0177 23.216C23.2785 23.1552 23.4257 23.5616 23.6705 23.64C24.0129 23.32 24.0081 23.2592 23.6241 23.0336C23.5092 22.9785 23.4017 22.9092 23.3041 22.8272C23.2878 22.8094 23.2738 22.7895 23.2625 22.768C23.2993 22.7024 23.3393 22.6336 23.3809 22.5568L24.0769 22.6096V22.08L23.4209 22.024L23.3921 21.9184L23.4209 21.8112L24.0817 21.76ZM21.2657 23.84C20.2657 23.84 19.4481 22.984 19.3873 21.928C19.4481 20.8704 20.2657 20.024 21.2657 20.008C22.2657 19.992 23.0833 20.864 23.1457 21.928C23.0833 22.9808 22.2657 23.8288 21.2657 23.84Z" fill="#FF0000"/>
<path d="M21.28 20.3536H21.2688C21.0651 20.3521 20.8633 20.392 20.6755 20.4709C20.4877 20.5497 20.3179 20.6659 20.1763 20.8124C20.0348 20.9589 19.9245 21.1326 19.8521 21.323C19.7797 21.5133 19.7467 21.7164 19.7552 21.92C19.7552 22.3231 19.9153 22.7097 20.2004 22.9948C20.4855 23.2798 20.8721 23.44 21.2752 23.44C21.6783 23.44 22.0649 23.2798 22.35 22.9948C22.6351 22.7097 22.7952 22.3231 22.7952 21.92C22.8034 21.7164 22.7703 21.5132 22.6977 21.3228C22.6251 21.1325 22.5147 20.9588 22.373 20.8123C22.2313 20.6659 22.0614 20.5497 21.8735 20.4709C21.6857 20.392 21.4837 20.3521 21.28 20.3536ZM21.28 22.9664H21.264C21.0016 22.9642 20.7507 22.8582 20.5663 22.6716C20.3819 22.4849 20.279 22.2328 20.28 21.9704C20.2811 21.708 20.386 21.4567 20.572 21.2715C20.7579 21.0864 21.0096 20.9824 21.272 20.9824C21.5344 20.9824 21.7861 21.0864 21.972 21.2715C22.158 21.4567 22.2629 21.708 22.264 21.9704C22.2651 22.2328 22.1621 22.4849 21.9777 22.6716C21.7933 22.8582 21.5424 22.9642 21.28 22.9664Z" fill="#FF0000"/>
<path d="M28.1074 11.5199C27.7522 8.55994 25.2274 6.03834 24.1474 5.07834C23.9935 4.92776 23.8282 4.78922 23.6531 4.66394C23.5859 5.33754 23.5075 5.99194 23.4563 6.64954C23.372 7.71621 23.2968 8.78874 23.2307 9.86714C23.1683 10.8687 23.1187 11.8703 23.0707 12.8719C23.0403 13.4399 23.0402 13.4399 22.5266 13.6319C21.653 13.9519 20.7747 14.2479 19.9107 14.5919C19.5162 14.745 19.1404 14.9426 18.7907 15.1807C17.5016 16.0661 16.1442 16.8478 14.7315 17.5183C14.7076 17.5279 14.6819 17.5323 14.6562 17.5311V18.4111C14.6962 18.4146 14.7363 18.408 14.7731 18.3919C15.5827 17.9407 16.373 17.4575 17.1922 17.0175C18.237 16.4543 19.2435 15.8015 20.429 15.5375C20.6307 15.4927 20.7491 15.4879 20.7826 15.7151C20.7715 15.7359 20.7698 15.7487 20.7618 15.7535C18.765 16.8959 16.7677 18.0351 14.7698 19.1711C14.7343 19.1878 14.6955 19.1966 14.6562 19.1967V19.6303C15.1971 19.6303 15.7378 19.6303 16.2786 19.6303C16.8194 19.6303 17.3219 19.1503 17.4339 18.6575C17.4538 18.5921 17.4876 18.5317 17.5329 18.4804C17.5781 18.429 17.6338 18.388 17.6962 18.3599C17.7746 18.3327 17.9506 18.4287 18.0162 18.5199C18.1554 18.7407 18.2946 18.7695 18.5362 18.6799C19.4962 18.2895 20.4978 18.0399 21.5203 18.0991C22.3507 18.1487 23.1683 18.3999 23.9874 18.5791C24.3666 18.6607 24.7363 18.7775 25.0483 18.8607C25.2883 19.1423 25.5059 19.4015 25.7283 19.6607C25.9139 19.8751 26.1171 20.0767 26.2883 20.3007C26.3242 20.3636 26.3833 20.4099 26.4529 20.43C26.5225 20.45 26.5972 20.4421 26.6611 20.4079C27.2147 20.2079 27.4611 19.5951 27.1411 18.9839C26.6483 18.0463 26.6451 17.0639 26.7427 16.0527C27.2345 15.2683 27.6213 14.4227 27.8931 13.5375L27.9331 13.5887C27.9501 13.5002 27.957 13.41 27.9539 13.3199C28.1168 12.7348 28.1689 12.1243 28.1074 11.5199ZM20.9378 17.5519C20.2563 17.6223 19.5874 17.8143 18.9122 17.9535C20.1922 17.1071 21.9251 16.9391 22.9602 17.5375C22.2899 17.5375 21.6003 17.4831 20.9378 17.5519ZM23.5859 16.1311C23.5349 16.1345 23.4839 16.1273 23.4359 16.1102C23.3878 16.093 23.3438 16.0661 23.3066 16.0312C23.2694 15.9964 23.2397 15.9542 23.2194 15.9074C23.1991 15.8606 23.1886 15.8102 23.1886 15.7591C23.1886 15.7081 23.1991 15.6577 23.2194 15.6109C23.2397 15.5641 23.2694 15.5219 23.3066 15.487C23.3438 15.4522 23.3878 15.4253 23.4359 15.4081C23.4839 15.3909 23.5349 15.3838 23.5859 15.3871C23.6368 15.3841 23.6877 15.3924 23.7351 15.4113C23.7825 15.4303 23.8251 15.4594 23.8599 15.4967C23.8947 15.534 23.9209 15.5785 23.9366 15.627C23.9523 15.6755 23.9571 15.7269 23.9507 15.7775C23.9528 15.8255 23.9448 15.8734 23.9271 15.9181C23.9094 15.9627 23.8824 16.0031 23.8479 16.0365C23.8134 16.0699 23.7722 16.0956 23.727 16.112C23.6819 16.1283 23.6337 16.1348 23.5859 16.1311ZM23.9746 14.1935C23.9669 14.1479 23.9708 14.101 23.9861 14.0573C24.0014 14.0136 24.0275 13.9744 24.0621 13.9436C24.0966 13.9127 24.1384 13.8911 24.1836 13.8808C24.2287 13.8706 24.2758 13.8719 24.3202 13.8847C24.3874 13.9114 24.4466 13.9549 24.4922 14.0109C24.5379 14.0669 24.5684 14.1336 24.5811 14.2047C24.5811 14.3295 24.4307 14.4543 24.3459 14.5775H24.205C24.1202 14.4479 24.0002 14.3279 23.9746 14.1935ZM25.4403 17.4735C25.3587 17.4735 25.2483 17.4879 25.1987 17.4431C24.8195 17.1103 24.4515 16.7647 24.0787 16.4223V16.2879C24.1939 16.2719 24.3618 16.1983 24.4194 16.2495C24.765 16.5567 25.0899 16.8895 25.4083 17.2255C25.4611 17.2799 25.4403 17.3887 25.4403 17.4735ZM24.5107 14.9951C25.0259 14.5039 25.0258 14.5039 25.5394 14.9199L25.6115 14.9807C25.8355 15.1727 26.069 15.3551 26.2818 15.5599C26.3158 15.5919 26.342 15.6312 26.3584 15.6749C26.3748 15.7185 26.3809 15.7654 26.3762 15.8118C26.3716 15.8582 26.3563 15.9029 26.3316 15.9425C26.3069 15.982 26.2735 16.0154 26.2339 16.0399C26.1759 16.0676 26.112 16.0806 26.0479 16.0779C25.9837 16.0751 25.9212 16.0566 25.8659 16.0239C25.4099 15.6943 24.9731 15.3471 24.5107 14.9951ZM26.7715 19.2575L26.6322 19.3023C26.4002 18.8895 25.9922 18.5807 26.0466 18.0079C26.0749 17.6392 26.0695 17.2686 26.0307 16.9007C26.0083 16.6191 26.1186 16.4927 26.429 16.4575C26.4052 16.9422 26.4095 17.4278 26.4418 17.9119C26.5237 18.3669 26.6338 18.8163 26.7715 19.2575Z" fill="white"/>
<path d="M8.47984 32.5312C8.47941 32.2035 8.34892 31.8893 8.11702 31.6577C7.88512 31.4261 7.57078 31.296 7.24304 31.296H6.27184L6.21744 34.5248L5.63184 36.0448L6.59184 38.6592L8.47984 36.7648V32.5312Z" fill="#A7ACB7"/>
<path d="M22.8687 31.296H21.8895C21.5619 31.296 21.2477 31.4262 21.0161 31.6578C20.7844 31.8894 20.6543 32.2036 20.6543 32.5312V36.7648L22.5487 38.6592L23.5087 36.0448L22.9215 34.5248L22.8687 31.296Z" fill="#A7ACB7"/>
<path d="M21.485 22.1344C21.7474 22.1344 21.9602 21.9216 21.9602 21.6592C21.9602 21.3967 21.7474 21.184 21.485 21.184C21.2225 21.184 21.0098 21.3967 21.0098 21.6592C21.0098 21.9216 21.2225 22.1344 21.485 22.1344Z" fill="white"/>
</g>
<defs>
<clipPath id="clip0_1025_2334">
<rect width="91.9712" height="41.6288" fill="white"/>
</clipPath>
</defs>
</svg>
