<svg width="20" height="20" viewBox="0 0 20 20" fill="none" xmlns="http://www.w3.org/2000/svg">
<path d="M8.33335 12.5001L12.6584 10.0001L8.33335 7.50008V12.5001ZM17.9667 5.97508C18.075 6.36675 18.15 6.89175 18.2 7.55841C18.2584 8.22508 18.2834 8.80008 18.2834 9.30008L18.3334 10.0001C18.3334 11.8251 18.2 13.1667 17.9667 14.0251C17.7584 14.7751 17.275 15.2584 16.525 15.4667C16.1334 15.5751 15.4167 15.6501 14.3167 15.7001C13.2334 15.7584 12.2417 15.7834 11.325 15.7834L10 15.8334C6.50835 15.8334 4.33335 15.7001 3.47502 15.4667C2.72502 15.2584 2.24169 14.7751 2.03335 14.0251C1.92502 13.6334 1.85002 13.1084 1.80002 12.4417C1.74169 11.7751 1.71669 11.2001 1.71669 10.7001L1.66669 10.0001C1.66669 8.17508 1.80002 6.83341 2.03335 5.97508C2.24169 5.22508 2.72502 4.74175 3.47502 4.53341C3.86669 4.42508 4.58335 4.35008 5.68335 4.30008C6.76669 4.24175 7.75835 4.21675 8.67502 4.21675L10 4.16675C13.4917 4.16675 15.6667 4.30008 16.525 4.53341C17.275 4.74175 17.7584 5.22508 17.9667 5.97508Z" fill="#767C8C"/>
</svg>
