<svg width="24" height="25" viewBox="0 0 24 25" fill="none" xmlns="http://www.w3.org/2000/svg">
<g clip-path="url(#clip0_7_1464)">
<path d="M10.992 1.05996C10.368 1.15596 9.84802 1.29196 9.43202 1.46796L9.50402 1.44396C8.01602 2.00396 6.80802 2.97996 5.88002 4.37196C5.72002 4.61196 5.54402 4.91996 5.35202 5.29596C5.16002 5.67196 5.02402 5.97996 4.94402 6.21996L4.82402 6.53196H0.192017L0.216017 14.404C0.216017 17.796 0.224017 20.036 0.240017 21.124C0.240017 21.924 0.256017 22.38 0.288017 22.492C0.368017 22.78 0.476017 23.028 0.612017 23.236C0.748017 23.444 0.928017 23.652 1.15202 23.86C1.48802 24.164 1.88802 24.38 2.35202 24.508C2.51202 24.54 3.00802 24.56 3.84002 24.568C4.67202 24.576 7.43202 24.58 12.12 24.58L21.576 24.556L21.936 24.436C22.336 24.292 22.688 24.068 22.992 23.764C23.296 23.46 23.52 23.108 23.664 22.708V22.684L23.784 22.396V14.476L23.808 6.53196H19.104L18.984 6.21996C18.792 5.72396 18.528 5.18796 18.192 4.61196L18.216 4.65996C17.608 3.66796 16.84 2.85996 15.912 2.23596C14.984 1.61196 13.984 1.22796 12.912 1.08396C12.688 1.05196 12.372 1.03196 11.964 1.02396C11.556 1.01595 11.232 1.02796 10.992 1.05996ZM12.792 2.66796C13.72 2.84396 14.552 3.21596 15.288 3.78396C16.024 4.35196 16.64 5.09996 17.136 6.02796C17.28 6.28396 17.352 6.42796 17.352 6.45996C17.352 6.49196 16.96 6.51595 16.176 6.53196H11.952C8.35202 6.53196 6.55202 6.51595 6.55202 6.48396L6.76802 6.02796C7.23202 5.09996 7.83602 4.34796 8.58002 3.77196C9.32402 3.19596 10.144 2.82796 11.04 2.66796C11.264 2.63596 11.56 2.61996 11.928 2.61996C12.296 2.61996 12.584 2.63596 12.792 2.66796ZM4.39202 8.30796C4.31202 8.75596 4.25602 9.33196 4.22402 10.036L4.20002 10.732H5.80802V10.492C5.80802 10.204 5.83202 9.79996 5.88002 9.27996C5.92802 8.75996 5.97602 8.41196 6.02402 8.23596L6.04802 8.13996H17.928L18.024 8.73996C18.104 9.25196 18.152 9.69996 18.168 10.084L18.216 10.828H19.8V10.54C19.8 10.316 19.784 10.02 19.752 9.65196C19.72 9.28396 19.68 8.97196 19.632 8.71596C19.616 8.58796 19.592 8.42796 19.56 8.23596V8.16396C19.56 8.14796 20 8.13996 20.88 8.13996H22.2V15.412C22.184 18.692 22.176 20.636 22.176 21.244C22.16 21.884 22.136 22.236 22.104 22.3C22.024 22.428 21.924 22.548 21.804 22.66C21.684 22.772 21.568 22.852 21.456 22.9C21.376 22.932 21.208 22.948 20.952 22.948C20.6 22.964 19.784 22.972 18.504 22.972H4.63202C3.67202 22.956 3.05602 22.94 2.78402 22.924C2.59202 22.908 2.44802 22.868 2.35202 22.804L2.30402 22.756C2.19202 22.692 2.09602 22.584 2.01602 22.432C1.93602 22.28 1.88002 22.14 1.84802 22.012C1.81602 21.788 1.80002 19.436 1.80002 14.956V8.13996H4.41602L4.39202 8.30796Z" fill="white"/>
</g>
<defs>
<clipPath id="clip0_7_1464">
<rect width="24" height="24" fill="white" transform="matrix(1 0 0 -1 0 24.34)"/>
</clipPath>
</defs>
</svg>
