<svg width="24" height="24" viewBox="0 0 24 24" fill="none" xmlns="http://www.w3.org/2000/svg">
<path d="M15.96 12.432C16.76 11.856 17.408 11.152 17.904 10.32C18.4 9.488 18.704 8.588 18.816 7.62C18.928 6.652 18.836 5.7 18.54 4.764C18.244 3.828 17.768 3 17.112 2.28C16.456 1.56 15.684 1 14.796 0.6C13.908 0.199999 12.976 0 12 0C11.024 0 10.092 0.199999 9.204 0.6C8.316 1 7.548 1.56 6.9 2.28C6.252 3 5.776 3.828 5.472 4.764C5.168 5.7 5.072 6.652 5.184 7.62C5.296 8.588 5.6 9.488 6.096 10.32C6.592 11.152 7.24 11.856 8.04 12.432C6.472 12.896 5.072 13.664 3.84 14.736C2.64 15.776 1.7 17.028 1.02 18.492C0.34 19.956 0 21.504 0 23.136C0 23.376 0.084 23.58 0.252 23.748C0.42 23.916 0.624 24 0.864 24H23.136C23.376 24 23.58 23.916 23.748 23.748C23.916 23.58 24 23.376 24 23.136C24 21.504 23.66 19.956 22.98 18.492C22.3 17.028 21.352 15.768 20.136 14.712C18.92 13.656 17.528 12.896 15.96 12.432ZM6.864 6.864C6.864 5.92 7.096 5.056 7.56 4.272C8.024 3.488 8.648 2.864 9.432 2.4C10.216 1.936 11.072 1.704 12 1.704C12.928 1.704 13.784 1.936 14.568 2.4C15.352 2.864 15.976 3.488 16.44 4.272C16.904 5.056 17.136 5.916 17.136 6.852C17.136 7.788 16.904 8.648 16.44 9.432C15.976 10.216 15.352 10.84 14.568 11.304C13.784 11.768 12.928 12 12 12C11.072 12 10.216 11.768 9.432 11.304C8.648 10.84 8.024 10.216 7.56 9.432C7.096 8.648 6.864 7.792 6.864 6.864ZM1.752 22.272C1.896 20.672 2.416 19.216 3.312 17.904C4.176 16.608 5.288 15.592 6.648 14.856C8.04 14.088 9.536 13.704 11.136 13.704H12.864C14.464 13.704 15.96 14.088 17.352 14.856C18.712 15.592 19.824 16.608 20.688 17.904C21.584 19.216 22.104 20.672 22.248 22.272H1.752Z" fill="white"/>
</svg>
