<svg width="17" height="16" viewBox="0 0 17 16" fill="none" xmlns="http://www.w3.org/2000/svg">
<g clip-path="url(#clip0_588_2346)">
<path d="M6.55209 0.303972C6.06142 0.346639 5.56542 0.453305 5.06409 0.623972C4.56275 0.794639 4.11475 1.01331 3.72009 1.27997C2.92009 1.80264 2.27742 2.47197 1.79209 3.28797C1.30675 4.10397 1.02142 4.99731 0.936085 5.96797C0.882752 6.62931 0.944085 7.29864 1.12009 7.97597C1.29609 8.65331 1.57609 9.27464 1.96009 9.83997C2.46142 10.5866 3.07742 11.1893 3.80809 11.648C4.53875 12.1066 5.35742 12.4 6.26409 12.528C6.50942 12.5706 6.82942 12.5866 7.22409 12.576C7.61875 12.5653 7.94942 12.5333 8.21609 12.48C8.67475 12.384 9.12009 12.24 9.55208 12.048C9.98409 11.856 10.3761 11.632 10.7281 11.376L10.9681 11.2L13.4801 13.712C14.5468 14.7786 15.2401 15.464 15.5601 15.768C15.8801 16.072 16.0748 16.232 16.1441 16.248C16.2134 16.264 16.2668 16.272 16.3041 16.272C16.3414 16.272 16.3974 16.2666 16.4721 16.256C16.6428 16.2133 16.7708 16.1066 16.8561 15.936C16.9414 15.7653 16.9468 15.6 16.8721 15.44C16.8401 15.3546 15.9921 14.48 14.3281 12.816L11.8481 10.32L12.0241 10.08C12.5574 9.36531 12.9254 8.52797 13.1281 7.56797C13.1814 7.30131 13.2134 6.97331 13.2241 6.58397C13.2348 6.19464 13.2188 5.87197 13.1761 5.61597C12.9628 4.19731 12.3814 3.02397 11.4321 2.09597C10.7921 1.4453 10.0454 0.962639 9.19209 0.647972C8.33875 0.333305 7.45875 0.218639 6.55209 0.303972ZM8.07209 1.61597C9.02142 1.81864 9.83742 2.25064 10.5201 2.91197C11.1708 3.56264 11.6134 4.33597 11.8481 5.23197C12.0721 6.15997 12.0348 7.08264 11.7361 7.99997C11.4588 8.83197 10.9841 9.54131 10.3121 10.128C9.67209 10.6933 8.93075 11.0666 8.08809 11.248C7.22409 11.4293 6.37342 11.3813 5.53609 11.104C4.69875 10.8266 3.98942 10.3626 3.40809 9.71197C2.82675 9.06131 2.44009 8.29331 2.24809 7.40797C2.20542 7.16264 2.18409 6.83464 2.18409 6.42397C2.18409 6.01331 2.20542 5.69064 2.24809 5.45597C2.38675 4.83731 2.62409 4.26664 2.96009 3.74397C3.29609 3.2213 3.71475 2.78397 4.21609 2.43197C4.88809 1.96264 5.61875 1.6693 6.40809 1.55197C6.60009 1.53064 6.88009 1.52531 7.24809 1.53597C7.61609 1.54664 7.89075 1.57331 8.07209 1.61597Z" fill="#222529"/>
</g>
<defs>
<clipPath id="clip0_588_2346">
<rect width="16" height="16" fill="white" transform="matrix(1 0 0 -1 0.919922 16)"/>
</clipPath>
</defs>
</svg>
