<svg width="12" height="12" viewBox="0 0 12 12" fill="none" xmlns="http://www.w3.org/2000/svg">
<path d="M6.83779 10.4492L6.27919 11.0078C6.02529 11.2363 5.64443 11.2363 5.41591 11.0078L0.490129 6.05664C0.236223 5.82812 0.236223 5.44727 0.490129 5.21875L5.41591 0.267578C5.64443 0.0390625 6.05068 0.0390625 6.27919 0.267578L6.83779 0.826172C7.09169 1.08008 7.0663 1.46094 6.83779 1.71484L3.76552 4.60938H11.078C11.4081 4.60938 11.6874 4.88867 11.6874 5.21875V6.03125C11.6874 6.38672 11.4081 6.64062 11.078 6.64062H3.76552L6.83779 9.56055C7.0663 9.81445 7.09169 10.1953 6.83779 10.4492Z" fill="#0A0A0A"/>
</svg>
