<svg width="48" height="52" viewBox="0 0 48 52" fill="none" xmlns="http://www.w3.org/2000/svg">
<path d="M0.5 8C0.5 3.85786 3.85786 0.5 8 0.5H40C44.1421 0.5 47.5 3.85786 47.5 8V44C47.5 48.1421 44.1421 51.5 40 51.5H8C3.85787 51.5 0.5 48.1421 0.5 44V8Z" fill="#262626"/>
<path d="M0.5 8C0.5 3.85786 3.85786 0.5 8 0.5H40C44.1421 0.5 47.5 3.85786 47.5 8V44C47.5 48.1421 44.1421 51.5 40 51.5H8C3.85787 51.5 0.5 48.1421 0.5 44V8Z" stroke="#3E3E3E"/>
<path d="M31.0053 19.0064H16.9947L18.4941 16.9915H29.5059L31.0053 19.0064ZM33.7934 19.3813L30.7945 15.3983C30.7007 15.2733 30.5836 15.1757 30.443 15.1054C30.3024 15.0351 30.1541 15 29.9979 15H18.0021C17.8459 15 17.6975 15.0351 17.557 15.1054C17.4164 15.1757 17.2993 15.2733 17.2055 15.3983L14.2066 19.3813C14.191 19.4125 14.1715 19.4437 14.148 19.475C14.1246 19.5062 14.1051 19.5375 14.0895 19.5687C14.0582 19.6468 14.0348 19.721 14.0192 19.7913C14.0035 19.8616 13.9957 19.9279 13.9957 19.9904V34.0011C13.9957 34.4072 14.0738 34.7938 14.23 35.1608C14.3862 35.5279 14.6049 35.8442 14.886 36.1097C15.1516 36.3752 15.4679 36.59 15.8349 36.754C16.202 36.918 16.5886 37 16.9947 37H31.0053C31.4114 37 31.798 36.9219 32.1651 36.7657C32.5321 36.6095 32.8484 36.3908 33.1139 36.1097C33.3795 35.8442 33.5942 35.5279 33.7583 35.1608C33.9223 34.7938 34.0043 34.4072 34.0043 34.0011V19.9904C34.0043 19.8811 33.9847 19.7796 33.9457 19.6858C33.9066 19.5921 33.8637 19.4984 33.8168 19.4047C33.8012 19.4047 33.7934 19.4047 33.7934 19.4047V19.3813ZM16.0106 20.9979H31.9893V34.0011C31.9893 34.126 31.9659 34.251 31.9191 34.3759C31.8722 34.5009 31.8019 34.6102 31.7082 34.7039C31.6145 34.7977 31.5091 34.8679 31.3919 34.9148C31.2748 34.9617 31.1459 34.9851 31.0053 34.9851H16.9947C16.8697 34.9851 16.7448 34.9617 16.6198 34.9148C16.4949 34.8679 16.3855 34.7977 16.2918 34.7039C16.1981 34.6102 16.1278 34.5009 16.0809 34.3759C16.0341 34.251 16.0106 34.126 16.0106 34.0011V20.9979ZM26.9989 23.9968C26.9989 24.4185 26.9208 24.809 26.7646 25.1683C26.6084 25.5275 26.3898 25.8399 26.1086 26.1054C25.8431 26.3866 25.5307 26.6053 25.1715 26.7614C24.8122 26.9176 24.4217 26.9957 24 26.9957C23.5783 26.9957 23.1878 26.9176 22.8285 26.7614C22.4693 26.6053 22.1569 26.3866 21.8914 26.1054C21.6102 25.8399 21.3916 25.5275 21.2354 25.1683C21.0792 24.809 21.0011 24.4185 21.0011 23.9968C21.0011 23.7157 20.9034 23.4775 20.7082 23.2822C20.513 23.087 20.2748 22.9894 19.9936 22.9894C19.7281 22.9894 19.4977 23.087 19.3024 23.2822C19.1072 23.4775 19.0096 23.7157 19.0096 23.9968C19.0096 24.6841 19.1384 25.3323 19.3962 25.9414C19.6539 26.5506 20.0092 27.0816 20.4622 27.5346C20.9152 27.9876 21.4462 28.3429 22.0554 28.6006C22.6645 28.8584 23.3127 28.9872 24 28.9872C24.6873 28.9872 25.3355 28.8584 25.9446 28.6006C26.5538 28.3429 27.0848 27.9876 27.5378 27.5346C27.9908 27.0816 28.3461 26.5506 28.6038 25.9414C28.8616 25.3323 28.9904 24.6841 28.9904 23.9968C28.9904 23.7157 28.8928 23.4775 28.6975 23.2822C28.5023 23.087 28.2719 22.9894 28.0064 22.9894C27.7252 22.9894 27.487 23.087 27.2918 23.2822C27.0966 23.4775 26.9989 23.7157 26.9989 23.9968Z" fill="white"/>
</svg>
