<svg width="48" height="52" viewBox="0 0 48 52" fill="none" xmlns="http://www.w3.org/2000/svg">
<path d="M0.5 8C0.5 3.85786 3.85786 0.5 8 0.5H40C44.1421 0.5 47.5 3.85786 47.5 8V44C47.5 48.1421 44.1421 51.5 40 51.5H8C3.85787 51.5 0.5 48.1421 0.5 44V8Z" fill="#262626"/>
<path d="M0.5 8C0.5 3.85786 3.85786 0.5 8 0.5H40C44.1421 0.5 47.5 3.85786 47.5 8V44C47.5 48.1421 44.1421 51.5 40 51.5H8C3.85787 51.5 0.5 48.1421 0.5 44V8Z" stroke="#3E3E3E"/>
<path d="M23.0762 25.0977H21.7012C21.3861 25.0977 21.0889 25.0368 20.8096 24.915C20.5303 24.7933 20.2904 24.625 20.0898 24.4102C19.875 24.2096 19.7103 23.9697 19.5957 23.6904C19.4811 23.4111 19.4238 23.1139 19.4238 22.7988C19.4238 22.4837 19.4811 22.1865 19.5957 21.9072C19.7103 21.6279 19.875 21.388 20.0898 21.1875C20.2904 20.9727 20.5303 20.8044 20.8096 20.6826C21.0889 20.5609 21.3861 20.5 21.7012 20.5H23.0762V25.0977ZM24.9238 26.9238H26.2988C26.6139 26.9238 26.9111 26.9847 27.1904 27.1064C27.4697 27.2282 27.7096 27.3893 27.9102 27.5898C28.125 27.8047 28.2897 28.0518 28.4043 28.3311C28.5189 28.6104 28.5762 28.9076 28.5762 29.2227C28.5762 29.5378 28.5189 29.835 28.4043 30.1143C28.2897 30.3936 28.125 30.6335 27.9102 30.834C27.7096 31.0488 27.4697 31.2135 27.1904 31.3281C26.9111 31.4427 26.6139 31.5 26.2988 31.5H24.9238V26.9238ZM28.5762 18.6738H24.9238V15.9238C24.9238 15.666 24.8343 15.4476 24.6553 15.2686C24.4762 15.0895 24.2578 15 24 15C23.7422 15 23.5238 15.0895 23.3447 15.2686C23.1657 15.4476 23.0762 15.666 23.0762 15.9238V18.6738H21.7012C21.1426 18.6738 20.6126 18.7812 20.1113 18.9961C19.61 19.2109 19.1732 19.5046 18.8008 19.877C18.4284 20.2493 18.1312 20.6862 17.9092 21.1875C17.6872 21.6888 17.5762 22.2259 17.5762 22.7988C17.5762 23.3717 17.6872 23.9089 17.9092 24.4102C18.1312 24.9115 18.4284 25.3483 18.8008 25.7207C19.1732 26.0931 19.61 26.3867 20.1113 26.6016C20.6126 26.8164 21.1426 26.9238 21.7012 26.9238H23.0762V31.5H18.5C18.2422 31.5 18.0238 31.5895 17.8447 31.7686C17.6657 31.9476 17.5762 32.166 17.5762 32.4238C17.5762 32.6816 17.6657 32.9001 17.8447 33.0791C18.0238 33.2581 18.2422 33.3477 18.5 33.3477H23.0762V36.0977C23.0762 36.3411 23.1657 36.5524 23.3447 36.7314C23.5238 36.9105 23.7422 37 24 37C24.2578 37 24.4762 36.9105 24.6553 36.7314C24.8343 36.5524 24.9238 36.3411 24.9238 36.0977V33.3477H26.2988C26.8574 33.3477 27.3874 33.2367 27.8887 33.0146C28.39 32.7926 28.8268 32.4954 29.1992 32.123C29.5716 31.7507 29.8688 31.3138 30.0908 30.8125C30.3128 30.3112 30.4238 29.7812 30.4238 29.2227C30.4238 28.6497 30.3128 28.1126 30.0908 27.6113C29.8688 27.11 29.5716 26.6732 29.1992 26.3008C28.8268 25.9284 28.39 25.6348 27.8887 25.4199C27.3874 25.2051 26.8574 25.0977 26.2988 25.0977H24.9238V20.5H28.5762C28.834 20.5 29.0524 20.4105 29.2314 20.2314C29.4105 20.0524 29.5 19.8411 29.5 19.5977C29.5 19.3398 29.4105 19.1214 29.2314 18.9424C29.0524 18.7633 28.834 18.6738 28.5762 18.6738Z" fill="white"/>
</svg>
