<svg width="48" height="52" viewBox="0 0 48 52" fill="none" xmlns="http://www.w3.org/2000/svg">
<path d="M0.5 8C0.5 3.85786 3.85786 0.5 8 0.5H40C44.1421 0.5 47.5 3.85786 47.5 8V44C47.5 48.1421 44.1421 51.5 40 51.5H8C3.85787 51.5 0.5 48.1421 0.5 44V8Z" fill="#262626"/>
<path d="M0.5 8C0.5 3.85786 3.85786 0.5 8 0.5H40C44.1421 0.5 47.5 3.85786 47.5 8V44C47.5 48.1421 44.1421 51.5 40 51.5H8C3.85787 51.5 0.5 48.1421 0.5 44V8Z" stroke="#3E3E3E"/>
<path d="M29.5761 22.0053H25.9915V18.4207L29.5761 22.0053ZM32.6922 22.2865L25.7103 15.3046C25.6635 15.2577 25.6127 15.2148 25.558 15.1757C25.5034 15.1367 25.4448 15.1015 25.3823 15.0703C25.3198 15.0547 25.2573 15.039 25.1949 15.0234C25.1324 15.0078 25.0699 15 25.0074 15H18.0021C17.596 15 17.2094 15.0781 16.8424 15.2343C16.4753 15.3905 16.159 15.6092 15.8935 15.8903C15.6123 16.1558 15.3937 16.4721 15.2375 16.8392C15.0813 17.2062 15.0032 17.5928 15.0032 17.9989V34.0011C15.0032 34.4072 15.0813 34.7938 15.2375 35.1608C15.3937 35.5279 15.6123 35.8442 15.8935 36.1097C16.159 36.3752 16.4753 36.59 16.8424 36.754C17.2094 36.918 17.596 37 18.0021 37H29.9978C30.404 37 30.7905 36.9219 31.1576 36.7657C31.5247 36.6095 31.8409 36.3908 32.1065 36.1097C32.3876 35.8442 32.6063 35.5279 32.7625 35.1608C32.9187 34.7938 32.9968 34.4072 32.9968 34.0011V22.9894C32.9968 22.8644 32.9694 22.7394 32.9148 22.6145C32.8601 22.4895 32.7859 22.3802 32.6922 22.2865ZM24 16.9915V22.9894C24 23.2705 24.0976 23.5087 24.2928 23.7039C24.4881 23.8992 24.7263 23.9968 25.0074 23.9968H31.0053V34.0011C31.0053 34.126 30.978 34.251 30.9233 34.3759C30.8686 34.5009 30.7944 34.6102 30.7007 34.7039C30.607 34.7977 30.5016 34.8679 30.3844 34.9148C30.2673 34.9617 30.1384 34.9851 29.9978 34.9851H18.0021C17.8615 34.9851 17.7327 34.9617 17.6155 34.9148C17.4984 34.8679 17.393 34.7977 17.2992 34.7039C17.2055 34.6102 17.1313 34.5009 17.0767 34.3759C17.022 34.251 16.9947 34.126 16.9947 34.0011V17.9989C16.9947 17.8584 17.022 17.7295 17.0767 17.6124C17.1313 17.4952 17.2055 17.3898 17.2992 17.2961C17.393 17.2023 17.4984 17.1282 17.6155 17.0735C17.7327 17.0188 17.8615 16.9915 18.0021 16.9915H24Z" fill="white"/>
</svg>
