<svg width="25" height="25" viewBox="0 0 25 25" fill="none" xmlns="http://www.w3.org/2000/svg">
<path d="M2.60547 2.5H3.91163C4.15765 2.5 4.28066 2.5 4.37965 2.54524C4.46689 2.58511 4.54081 2.64922 4.59262 2.72995C4.6514 2.82154 4.6688 2.94332 4.70359 3.18686L5.1769 6.5M5.1769 6.5L6.22879 14.2314C6.36227 15.2125 6.42902 15.7031 6.66357 16.0723C6.87025 16.3977 7.16655 16.6564 7.51682 16.8174C7.91433 17 8.40941 17 9.39958 17H17.9575C18.9 17 19.3713 17 19.7564 16.8304C20.096 16.6809 20.3873 16.4398 20.5977 16.1342C20.8364 15.7876 20.9246 15.3247 21.1009 14.3988L22.4246 7.44969C22.4866 7.12381 22.5177 6.96087 22.4727 6.8335C22.4332 6.72177 22.3554 6.62768 22.253 6.56802C22.1363 6.5 21.9704 6.5 21.6387 6.5H5.1769ZM10.6055 21.5C10.6055 22.0523 10.1578 22.5 9.60547 22.5C9.05318 22.5 8.60547 22.0523 8.60547 21.5C8.60547 20.9477 9.05318 20.5 9.60547 20.5C10.1578 20.5 10.6055 20.9477 10.6055 21.5ZM18.6055 21.5C18.6055 22.0523 18.1578 22.5 17.6055 22.5C17.0532 22.5 16.6055 22.0523 16.6055 21.5C16.6055 20.9477 17.0532 20.5 17.6055 20.5C18.1578 20.5 18.6055 20.9477 18.6055 21.5Z" stroke="white" stroke-width="2" stroke-linecap="round" stroke-linejoin="round"/>
</svg>
