<svg width="33" height="31" viewBox="0 0 33 31" fill="none" xmlns="http://www.w3.org/2000/svg">
<path d="M6.80888 15.745C6.84897 16.3977 7.44543 16.8964 8.14112 16.8588C8.83681 16.8212 9.36828 16.2615 9.3282 15.6088C9.28811 14.956 8.69165 14.4574 7.99596 14.495C7.30027 14.5326 6.7688 15.0922 6.80888 15.745Z" fill="white"/>
<path d="M14.3668 15.3364C14.2729 13.8067 13.5505 12.3707 12.3515 11.3305C12.1054 11.1174 11.7792 11.0047 11.4446 11.0172C11.11 11.0298 10.7944 11.1665 10.5672 11.3973C10.3401 11.6282 10.22 11.9343 10.2333 12.2482C10.2467 12.5622 10.3924 12.8583 10.6384 13.0714C11.3347 13.7072 11.7519 14.5647 11.8078 15.4747C11.8637 16.3848 11.5542 17.2815 10.9404 17.9881C10.7221 18.2264 10.6135 18.5362 10.6387 18.8496C10.6639 19.1629 10.8207 19.454 11.0746 19.6588C11.3285 19.8637 11.6587 19.9655 11.9927 19.9419C12.3266 19.9183 12.6368 19.7712 12.8552 19.5329C13.9189 18.3704 14.4608 16.8661 14.3668 15.3364ZM20.6651 14.9959C20.5765 13.5685 20.1825 12.1724 19.5067 10.8908C18.8309 9.60923 17.8871 8.4684 16.7315 7.53627C16.6033 7.43497 16.455 7.35836 16.2953 7.31081C16.1355 7.26326 15.9673 7.24569 15.8003 7.25913C15.6333 7.27256 15.4708 7.31672 15.322 7.3891C15.1732 7.46147 15.041 7.56063 14.9331 7.68093C14.715 7.92387 14.6088 8.23814 14.6377 8.55458C14.652 8.71127 14.6991 8.86378 14.7762 9.0034C14.8533 9.14302 14.959 9.26702 15.0872 9.36832C15.988 10.0939 16.7236 10.9825 17.2501 11.9809C17.7766 12.9794 18.0832 14.0671 18.1515 15.1792C18.2198 16.2913 18.0484 17.4049 17.6476 18.4535C17.2468 19.502 16.6248 20.464 15.8188 21.2819C15.7065 21.3978 15.6199 21.5334 15.5639 21.681C15.5078 21.8285 15.4836 21.985 15.4925 22.1415C15.5076 22.3724 15.5945 22.5941 15.7424 22.7792C15.8904 22.9642 16.0929 23.1046 16.3249 23.1829C16.5569 23.2612 16.8083 23.2739 17.048 23.2196C17.2877 23.1653 17.5052 23.0463 17.6736 22.8773C18.7132 21.821 19.5142 20.5781 20.0283 19.2236C20.5424 17.8691 20.7591 16.431 20.6651 14.9959Z" fill="white"/>
<path d="M22.7184 26.4111C25.7001 23.1554 27.2193 18.9413 26.9561 14.6558C26.6929 10.3703 24.668 6.34779 21.3075 3.43497C21.0588 3.24829 20.7442 3.15672 20.4266 3.17863C20.109 3.20054 19.812 3.33431 19.5951 3.5531C19.3783 3.77189 19.2576 4.05953 19.2574 4.35831C19.2571 4.65709 19.3772 4.94492 19.5937 5.16405C22.4806 7.66138 24.2206 11.1133 24.4464 14.7915C24.6723 18.4696 23.3664 22.0862 20.8043 24.8781C20.5927 25.1094 20.4843 25.4084 20.5017 25.7127C20.5121 25.8719 20.5567 26.0275 20.6328 26.1701C20.7089 26.3127 20.8149 26.4394 20.9445 26.5426C21.1987 26.745 21.5279 26.8449 21.8603 26.8202C22.1927 26.7956 22.5012 26.6485 22.7184 26.4111Z" fill="white"/>
</svg>
