<?xml version="1.0" standalone="no"?>
<!DOCTYPE svg PUBLIC "-//W3C//DTD SVG 1.1//EN" "http://www.w3.org/Graphics/SVG/1.1/DTD/svg11.dtd" >
<svg xmlns="http://www.w3.org/2000/svg" xmlns:xlink="http://www.w3.org/1999/xlink" version="1.1">
<metadata>
Created by FontForge 20201107 at Sat Oct 12 14:35:33 2024
 By 
(c) Copyright OH no Type Company, LLC. 2020. All rights reserved.
</metadata>
<defs>
<font id="DegularDemo-BoldItalic" horiz-adv-x="1093" >
  <font-face 
    font-family="Degular Demo"
    font-weight="700"
    font-style="italic"
    font-stretch="normal"
    units-per-em="2048"
    panose-1="4 4 7 6 6 3 3 11 3 5"
    ascent="1372"
    descent="-676"
    x-height="971"
    cap-height="1229"
    bbox="-188 -344 1901 1401"
    underline-thickness="102"
    underline-position="-573"
    unicode-range="U+0020-00A0"
  />
<missing-glyph horiz-adv-x="1751" 
d="M743 127q55 0 94 5.5t88 18t74 17.5q0 60 15.5 115t35.5 92t53.5 75.5t53.5 56.5t51 44l19 -21q-19 -58 -49 -202q184 124 184 403q0 235 -118 356t-351 121q-163 0 -276.5 -74.5t-147.5 -197.5q96 -8 144.5 -74.5t48.5 -154.5q0 -104 -63 -164t-148 -70q3 -59 8 -287
q34 -25 119.5 -42t164.5 -17zM745 -68q-291 0 -438 129q-11 296 19 431q-56 27 -89.5 81.5t-33.5 128.5q0 68 33.5 124t91.5 85q-15 212 149 351t434 139q310 0 469.5 -157.5t159.5 -446.5q0 -149 -38 -271t-128 -219.5t-227 -142.5q-17 -107 -17 -146q-138 -86 -385 -86z
M942 942q113 0 173.5 -67.5t60.5 -161.5q0 -111 -76 -185.5t-176 -74.5t-166 65.5t-66 179.5q0 63 25.5 116.5t84 90.5t140.5 37z" />
    <glyph glyph-name=".notdef" horiz-adv-x="1751" 
d="M743 127q55 0 94 5.5t88 18t74 17.5q0 60 15.5 115t35.5 92t53.5 75.5t53.5 56.5t51 44l19 -21q-19 -58 -49 -202q184 124 184 403q0 235 -118 356t-351 121q-163 0 -276.5 -74.5t-147.5 -197.5q96 -8 144.5 -74.5t48.5 -154.5q0 -104 -63 -164t-148 -70q3 -59 8 -287
q34 -25 119.5 -42t164.5 -17zM745 -68q-291 0 -438 129q-11 296 19 431q-56 27 -89.5 81.5t-33.5 128.5q0 68 33.5 124t91.5 85q-15 212 149 351t434 139q310 0 469.5 -157.5t159.5 -446.5q0 -149 -38 -271t-128 -219.5t-227 -142.5q-17 -107 -17 -146q-138 -86 -385 -86z
M942 942q113 0 173.5 -67.5t60.5 -161.5q0 -111 -76 -185.5t-176 -74.5t-166 65.5t-66 179.5q0 63 25.5 116.5t84 90.5t140.5 37z" />
    <glyph glyph-name=".null" horiz-adv-x="0" 
 />
    <glyph glyph-name="nonmarkingreturn" horiz-adv-x="682" 
 />
    <glyph glyph-name="space" unicode=" " horiz-adv-x="374" 
 />
    <glyph glyph-name="comma" unicode="," horiz-adv-x="403" 
d="M51 309h285l-320 -585h-204l2 12z" />
    <glyph glyph-name="period" unicode="." horiz-adv-x="401" 
d="M16 293h301l-51 -293h-303z" />
    <glyph glyph-name="zero" unicode="0" horiz-adv-x="1206" 
d="M688 1001q-129 0 -206.5 -94t-110.5 -278q-34 -193 14 -299.5t180 -106.5q127 0 206.5 101t111.5 286q34 190 -14 290.5t-181 100.5zM709 1257q266 0 392.5 -178.5t67.5 -505.5q-51 -291 -215.5 -446.5t-412.5 -155.5q-268 0 -391.5 179.5t-65.5 508.5q51 289 218 443.5
t407 154.5z" />
    <glyph glyph-name="one" unicode="1" horiz-adv-x="942" 
d="M801 0h-809l43 248h299l125 713q-118 -59 -271 -111l-61 233l496 146h163l-172 -981h232z" />
    <glyph glyph-name="two" unicode="2" horiz-adv-x="1183" 
d="M709 1014q-113 0 -182.5 -67t-108.5 -206l-271 45q60 228 199.5 348.5t382.5 120.5q246 0 360 -112.5t76 -329.5q-28 -157 -171.5 -247t-391.5 -140q-175 -37 -245 -77.5t-93 -121.5q220 23 359 23h450l-43 -250h-1053q5 57 19 147q37 204 151 307t347 160
q156 40 236.5 73t112.5 67t42 88q14 78 -30.5 125t-145.5 47z" />
    <glyph glyph-name="three" unicode="3" horiz-adv-x="1163" 
d="M553 -20q-265 0 -388 96.5t-126 300.5l283 33q3 -101 54.5 -151t182.5 -50q211 0 236 149q14 81 -24.5 118.5t-152.5 37.5h-208l34 201h209q86 0 135 31.5t62 105.5q15 85 -27 125.5t-145 40.5q-109 0 -162.5 -48t-87.5 -151l-266 37q108 393 545 393q244 0 348 -94.5
t71 -277.5q-18 -104 -100.5 -164t-226.5 -84l-4 -25q181 -18 244 -87.5t38 -205.5q-27 -156 -156 -243.5t-368 -87.5z" />
    <glyph glyph-name="four" unicode="4" horiz-adv-x="1191" 
d="M1114 274h-153l-50 -274h-278l47 274h-680l37 201l731 754h360l-129 -727h156zM676 502h45l88 502l-16 6l-492 -516l6 -15q191 23 369 23z" />
    <glyph glyph-name="five" unicode="5" horiz-adv-x="1171" 
d="M561 207q113 0 168 40.5t68 119.5q14 91 -31.5 139.5t-163.5 48.5q-136 0 -252 -72l-213 88l117 658h915l-47 -266q-358 0 -655 26l-53 -307q124 72 293 72q218 0 311 -113t59 -301q-59 -360 -528 -360q-223 0 -355 86.5t-165 248.5l276 66q45 -174 256 -174z" />
    <glyph glyph-name="six" unicode="6" horiz-adv-x="1185" 
d="M623 569q-125 0 -190.5 -44.5t-76.5 -118.5q-16 -82 37.5 -137.5t175.5 -55.5q119 0 176 45.5t72 126.5q14 87 -30 135.5t-164 48.5zM1096 352q-31 -181 -166.5 -279t-362.5 -98q-90 0 -163.5 15t-136 48.5t-103.5 87t-66.5 130.5t-25 179.5t21.5 232.5
q22 126 69.5 229.5t122.5 184.5t184.5 126t244.5 45q236 0 340 -103.5t104 -291.5l-285 -29q-6 91 -47.5 138t-134.5 47q-146 0 -223.5 -109t-120.5 -362q-3 -15 -6 -33l23 -4q62 125 160 180t235 55q86 0 153.5 -22t116 -67t66.5 -121.5t0 -178.5z" />
    <glyph glyph-name="seven" unicode="7" horiz-adv-x="1069" 
d="M106 967l46 262h1017l-45 -262q-440 -384 -573 -967h-340q66 294 243 545.5t439 443.5q-211 -22 -375 -22h-412z" />
    <glyph glyph-name="eight" unicode="8" horiz-adv-x="1175" 
d="M528 -25q-285 0 -403 100.5t-88 272.5q19 107 108 172.5t258 89.5l5 25q-127 35 -181.5 110t-33.5 201q55 307 509 307q255 0 361.5 -95.5t73.5 -276.5q-18 -103 -96.5 -162t-217.5 -86l-6 -25q310 -56 266 -313q-27 -152 -163 -236t-392 -84zM592 518q-131 0 -190 -39
t-72 -110q-12 -77 41 -118.5t176 -41.5q230 0 256 147q13 77 -33 119.5t-178 42.5zM680 1016q-104 0 -158.5 -36.5t-68.5 -111.5q-13 -83 32 -121t144 -38q202 0 227 149q15 80 -27.5 119t-148.5 39z" />
    <glyph glyph-name="nine" unicode="9" horiz-adv-x="1177" 
d="M608 639q116 0 183.5 48.5t80.5 123.5q16 89 -39.5 147t-177.5 58q-112 0 -170 -48t-71 -126q-18 -94 31.5 -148.5t162.5 -54.5zM510 -25q-102 0 -181 17t-131 47t-86.5 75.5t-51 97t-21.5 116.5l274 57q9 -86 59.5 -128t157.5 -42q147 0 227.5 109.5t123.5 359.5
q0 3 1 8t1 8l-23 5q-125 -238 -393 -238q-177 0 -272.5 105t-61.5 298q33 183 171.5 283t371.5 100q89 0 161 -15t133 -48.5t101 -86.5t65 -128.5t24 -176t-21 -227.5q-18 -102 -50 -189t-84.5 -163t-122 -129.5t-164.5 -84t-208 -30.5z" />
    <glyph glyph-name="A" unicode="A" horiz-adv-x="1226" 
d="M856 0l-35 272h-475l-133 -272h-317l647 1229h405l211 -1229h-303zM524 639l-73 -152h342l-21 152q-31 242 -39 336h-49q-53 -120 -160 -336z" />
    <glyph glyph-name="B" unicode="B" horiz-adv-x="1187" 
d="M680 506h-274l-52 -289h287q82 0 130 37t60 104q13 76 -20.5 112t-130.5 36zM735 1004h-241l-54 -297h236q89 0 139.5 34t63.5 111q14 78 -20 115t-124 37zM20 0l218 1229h546q224 0 317.5 -85t63.5 -255q-38 -212 -305 -264l-4 -21q167 -17 225.5 -86t32.5 -215
q-26 -142 -149 -222.5t-344 -80.5h-601z" />
    <glyph glyph-name="C" unicode="C" horiz-adv-x="1275" 
d="M604 -29q-300 0 -439 184.5t-83 499.5q51 286 229 444t447 158q253 0 380.5 -130t129.5 -361l-289 -33q-3 135 -61 200.5t-187 65.5q-149 0 -238.5 -100.5t-119.5 -269.5q-35 -192 24 -298t219 -106q127 0 201.5 67.5t128.5 211.5l275 -55q-137 -478 -617 -478z" />
    <glyph glyph-name="D" unicode="D" horiz-adv-x="1302" 
d="M676 985h-187l-131 -743h209q183 0 281 88t131 274q37 205 -34.5 293t-268.5 88zM25 0l208 1229h500q327 0 458.5 -170.5t74.5 -491.5q-46 -267 -232.5 -418t-468.5 -149h-540z" />
    <glyph glyph-name="E" unicode="E" horiz-adv-x="1118" 
d="M23 0l217 1229h927l-45 -256h-630l-43 -238h581l-41 -229h-579l-45 -250h630l-45 -256h-927z" />
    <glyph glyph-name="F" unicode="F" horiz-adv-x="1048" 
d="M928 393h-543l-70 -393h-295l218 1229h888l-49 -271h-592l-55 -309h543z" />
    <glyph glyph-name="G" unicode="G" horiz-adv-x="1312" 
d="M461 -20q-105 0 -188.5 45t-135.5 130t-69 209t10 281q111 610 676 610q479 0 512 -424l-289 -43q-11 106 -68 158.5t-176 52.5q-157 0 -243 -91t-119 -279q-32 -193 24.5 -301.5t218.5 -108.5q82 0 143.5 19t98 53.5t56.5 73.5t28 86l2 -11l2 13h-299l39 223h571
l-118 -676h-269l47 268h-24q-144 -288 -430 -288z" />
    <glyph glyph-name="H" unicode="H" horiz-adv-x="1310" 
d="M1120 0h-295l84 479h-510l-84 -479h-295l218 1229h294l-86 -486h510l86 486h295z" />
    <glyph glyph-name="I" unicode="I" horiz-adv-x="505" 
d="M315 0h-295l218 1229h294z" />
    <glyph glyph-name="J" unicode="J" horiz-adv-x="647" 
d="M227 371l152 858h295l-152 -856q-32 -184 -135 -286.5t-285 -102.5q-84 0 -163 14l53 252q58 -10 98 -10q57 0 91.5 34.5t45.5 96.5z" />
    <glyph glyph-name="K" unicode="K" horiz-adv-x="1187" 
d="M784 0l-303 461h-84l-82 -461h-295l218 1229h294l-94 -531h72l457 531h350l-4 -23l-598 -628l401 -555l-4 -23h-328z" />
    <glyph glyph-name="L" unicode="L" horiz-adv-x="968" 
d="M532 1229l-170 -965h527l-45 -264h-824l218 1229h294z" />
    <glyph glyph-name="M" unicode="M" horiz-adv-x="1679" 
d="M385 514l-92 -514h-270l217 1229h467l67 -475q19 -150 35 -379h35q98 242 172 389l235 465h455l-215 -1229h-295l90 514q24 135 96 475h-32q-124 -292 -246 -528l-213 -395h-275l-63 403q-38 251 -55 520h-33q-28 -180 -80 -475z" />
    <glyph glyph-name="N" unicode="N" horiz-adv-x="1331" 
d="M756 0l-160 485q-70 224 -121 486l-33 -4q-39 -352 -82 -596l-65 -371h-272l217 1229h409l139 -412q72 -216 127 -518l33 4q32 321 74 547l65 379h273l-217 -1229h-387z" />
    <glyph glyph-name="O" unicode="O" horiz-adv-x="1345" 
d="M616 -29q-307 0 -447 188.5t-83 510.5q47 275 230.5 431t457.5 156q300 0 445 -187.5t88 -506.5q-50 -277 -230.5 -434.5t-460.5 -157.5zM639 225q313 0 381 375q32 186 -33.5 292.5t-234.5 106.5q-313 0 -377 -360q-35 -195 29.5 -304.5t234.5 -109.5z" />
    <glyph glyph-name="P" unicode="P" horiz-adv-x="1126" 
d="M674 979h-187l-65 -379h194q114 0 170.5 40.5t73.5 133.5q19 103 -25 154t-161 51zM621 360h-242l-64 -360h-295l218 1229h473q251 0 363 -125t73 -352q-31 -184 -168.5 -288t-357.5 -104z" />
    <glyph glyph-name="Q" unicode="Q" horiz-adv-x="1347" 
d="M639 225q313 0 381 375q32 186 -33.5 292.5t-234.5 106.5q-313 0 -377 -360q-35 -195 29.5 -304.5t234.5 -109.5zM616 -29q-307 0 -447 188.5t-83 510.5q47 275 230.5 431t457.5 156q300 0 445 -187.5t88 -506.5q-29 -161 -103.5 -283.5t-189.5 -197.5l125 -250l-4 -22
h-314l-69 172q-79 -11 -136 -11z" />
    <glyph glyph-name="R" unicode="R" horiz-adv-x="1218" 
d="M709 981h-217l-58 -328h223q104 0 160.5 37t69.5 115q15 93 -28 134.5t-150 41.5zM768 0l-188 424h-187l-74 -424h-296l215 1229h522q236 0 344 -115.5t70 -331.5q-45 -250 -295 -327l233 -432l-4 -23h-340z" />
    <glyph glyph-name="S" unicode="S" horiz-adv-x="1171" 
d="M547 -29q-118 0 -208 20.5t-147.5 55t-95 85.5t-53.5 106.5t-20 123.5l290 58q18 -213 267 -213q186 0 208 115q8 47 -8.5 78t-72 55.5t-158.5 42.5q-241 43 -328.5 150t-56.5 282q28 158 160.5 242.5t363.5 84.5q128 0 219.5 -27t144 -78.5t78 -113t31.5 -141.5
l-303 -55q-8 97 -53 141.5t-156 44.5q-180 0 -198 -110q-6 -32 0.5 -55.5t30.5 -47.5t76 -43t134 -35q105 -20 182 -52t121 -72t69 -89.5t26.5 -104t-7.5 -114.5q-59 -334 -536 -334z" />
    <glyph glyph-name="T" unicode="T" horiz-adv-x="1056" 
d="M111 958l47 271h1003l-49 -271h-352l-170 -958h-295l170 958h-354z" />
    <glyph glyph-name="U" unicode="U" horiz-adv-x="1294" 
d="M618 233q131 0 193.5 66t87.5 199l129 731h295l-135 -770q-43 -238 -191.5 -362t-394.5 -124q-284 0 -410.5 139.5t-80.5 399.5l127 717h294l-129 -727q-24 -128 23.5 -198.5t191.5 -70.5z" />
    <glyph glyph-name="V" unicode="V" horiz-adv-x="1218" 
d="M723 0h-397l-213 1229h307l84 -639q30 -237 37 -336h47q42 95 157 336l312 639h311z" />
    <glyph glyph-name="W" unicode="W" horiz-adv-x="1753" 
d="M782 518l-176 -518h-409l-82 1229h309l10 -527q3 -263 -4 -450h43q66 209 154 450l200 527h373l12 -527q2 -137 -10 -450h45q27 85 81.5 240.5t72.5 209.5l188 527h312l-510 -1229h-430l4 518q3 247 12 469h-37q-47 -149 -158 -469z" />
    <glyph glyph-name="X" unicode="X" horiz-adv-x="1159" 
d="M756 0l-162 481h-31l-321 -481h-320l4 23l473 612l-260 571l4 23h312l163 -467h35l303 467h322l-2 -23l-469 -608l266 -575l-4 -23h-313z" />
    <glyph glyph-name="Y" unicode="Y" horiz-adv-x="1124" 
d="M625 0h-295l69 389l-299 817l4 23h316l145 -588h35l358 588h326l-4 -23l-586 -817z" />
    <glyph glyph-name="Z" unicode="Z" horiz-adv-x="1189" 
d="M1073 270l-47 -270h-1042l45 264l786 699l-8 24q-227 -29 -363 -29h-274l49 271h1016l-45 -262l-797 -705l8 -20q222 28 357 28h315z" />
    <glyph glyph-name="a" unicode="a" 
d="M477 217q81 0 141.5 52.5t83.5 142.5l9 45l12 67q14 102 -30 161.5t-136 59.5q-95 0 -151.5 -62t-79.5 -191q-50 -275 151 -275zM59 516q41 233 146.5 357t257.5 124q125 0 195 -74.5t85 -211.5l15 8l43 252h278l-170 -971h-278l45 258l-6 -4l4 29q-61 -145 -156 -228.5
t-215 -83.5q-157 0 -223.5 142.5t-20.5 402.5z" />
    <glyph glyph-name="b" unicode="b" 
d="M535 217q96 0 152 63t79 193q25 138 -12 205t-138 67q-83 0 -143.5 -53t-83.5 -145l-18 -109q-17 -100 27.5 -160.5t136.5 -60.5zM524 1315l-104 -590h16q128 272 352 272q162 0 228.5 -137t21.5 -389q-42 -242 -149 -371t-258 -129q-123 0 -193 75.5t-86 207.5h-14
l-45 -254h-281l232 1315h280z" />
    <glyph glyph-name="c" unicode="c" horiz-adv-x="1054" 
d="M754 578q-5 85 -41.5 130.5t-126.5 45.5q-201 0 -248 -260q-24 -133 18.5 -206t149.5 -73q86 0 137.5 48t83.5 136l248 -65q-117 -363 -490 -363q-240 0 -355.5 144t-70.5 413q40 224 183.5 346.5t365.5 122.5q402 0 412 -374z" />
    <glyph glyph-name="d" unicode="d" 
d="M477 217q80 0 141 53t84 142l9 45l12 65q15 103 -29 163t-137 60q-96 0 -152 -63.5t-79 -196.5q-50 -268 151 -268zM631 0l45 254h-14q-61 -132 -151 -207.5t-202 -75.5q-160 0 -227.5 142t-22.5 403q41 234 146.5 357.5t259.5 123.5q119 0 188 -70.5t88 -201.5h17
l104 590h279l-232 -1315h-278z" />
    <glyph glyph-name="e" unicode="e" horiz-adv-x="1044" 
d="M586 788q-94 0 -154 -53.5t-92 -171.5h408q34 225 -162 225zM477 -27q-233 0 -349.5 142.5t-68.5 410.5q38 223 182.5 347t364.5 124q155 0 252 -61t129.5 -166.5t7.5 -247.5q-11 -58 -22 -100h-658q-7 -116 38.5 -170.5t146.5 -54.5q61 0 105 20.5t66.5 47.5t43.5 71
l227 -74q-61 -136 -170.5 -212.5t-294.5 -76.5z" />
    <glyph glyph-name="f" unicode="f" horiz-adv-x="700" 
d="M543 1008l-6 -37h229l-39 -221h-229l-133 -750h-279l131 750h-139l39 221h139l8 45q28 155 127.5 244.5t278.5 89.5q94 0 168 -19l-43 -192q-62 10 -103 10q-126 0 -149 -141z" />
    <glyph glyph-name="g" unicode="g" 
d="M492 276q86 0 147 56t76 147v-2l8 51v-2q19 100 -27 159.5t-141 59.5q-183 0 -223 -227q-43 -242 160 -242zM61 535q41 228 146 345t258 117q119 0 188 -70.5t88 -201.5h17l43 246h280l-159 -910q-70 -395 -496 -395q-224 0 -334.5 72t-124.5 215l279 45
q9 -58 51.5 -87.5t128.5 -29.5q105 0 153 51t68 160l37 209h-16q-58 -111 -148 -179.5t-196 -68.5q-161 0 -232.5 126t-30.5 356z" />
    <glyph glyph-name="h" unicode="h" horiz-adv-x="1087" 
d="M387 541l-94 -541h-281l232 1315h280l-106 -604h12q138 286 371 286q136 0 194 -94.5t29 -261.5l-113 -641h-278l102 580q12 77 -17.5 121t-103.5 44q-88 0 -148.5 -56t-78.5 -148z" />
    <glyph glyph-name="i" unicode="i" horiz-adv-x="491" 
d="M500 1108h-289l35 201h291zM299 0h-279l173 971h278z" />
    <glyph glyph-name="j" unicode="j" horiz-adv-x="509" 
d="M324 27q-31 -174 -122 -265.5t-268 -91.5q-46 0 -108 8l49 240q30 -6 64 -6q84 0 104 106l168 951h278zM518 1108h-289l35 201h291z" />
    <glyph glyph-name="k" unicode="k" horiz-adv-x="1030" 
d="M526 1315l-127 -723h70l303 379h336l-4 -23l-428 -456l285 -469l-5 -23h-305l-209 389h-80l-67 -389h-279l232 1315h278z" />
    <glyph glyph-name="l" unicode="l" horiz-adv-x="483" 
d="M526 1315l-231 -1315h-279l232 1315h278z" />
    <glyph glyph-name="m" unicode="m" horiz-adv-x="1710" 
d="M387 541l-94 -541h-281l172 971h271l-45 -260h20q66 141 159.5 213.5t207.5 72.5q125 0 181.5 -75.5t45.5 -214.5h23q128 290 364 290q141 0 202.5 -95.5t31.5 -262.5l-113 -639h-279l101 580q14 76 -16 120.5t-105 44.5q-87 0 -148.5 -56.5t-76.5 -147.5h-2l-95 -541
h-278l102 580q12 77 -17.5 121t-103.5 44q-87 0 -148.5 -56t-78.5 -148z" />
    <glyph glyph-name="n" unicode="n" horiz-adv-x="1087" 
d="M387 541l-94 -541h-281l172 971h271l-45 -260h20q64 140 158 213t209 73q138 0 198 -95t29 -261l-113 -641h-278l102 580q12 77 -17.5 121t-103.5 44q-88 0 -148.5 -56t-78.5 -148z" />
    <glyph glyph-name="o" unicode="o" horiz-adv-x="1101" 
d="M492 -29q-247 0 -362.5 151.5t-70.5 409.5q39 222 186.5 343.5t366.5 121.5q243 0 358.5 -150t71.5 -409q-38 -219 -184.5 -343t-365.5 -124zM590 764q-211 0 -256 -262q-25 -140 18 -216.5t160 -76.5q213 0 258 264q25 139 -19.5 215t-160.5 76z" />
    <glyph glyph-name="p" unicode="p" 
d="M530 217q97 0 155 64t81 194q25 137 -10.5 203.5t-134.5 66.5q-91 0 -155 -61.5t-83 -165.5v2l-14 -86l2 8q-19 -101 25 -163t134 -62zM1038 459q-42 -237 -150 -362.5t-263 -125.5q-118 0 -188 75.5t-85 207.5h-16l-98 -565h-279l225 1282h279l-43 -246h16
q131 272 350 272q163 0 229.5 -140t22.5 -398z" />
    <glyph glyph-name="q" unicode="q" 
d="M479 217q79 0 139.5 53.5t83.5 143.5l19 100q19 107 -25.5 169t-138.5 62q-96 0 -152 -63.5t-81 -198.5q-23 -134 15 -200t140 -66zM57 516q43 235 146 358t256 123q125 0 195.5 -74.5t88.5 -211.5l13 8l45 252h278l-225 -1290h-281l103 573h-14q-61 -132 -151.5 -207.5
t-203.5 -75.5q-159 0 -227 143t-23 402z" />
    <glyph glyph-name="r" unicode="r" horiz-adv-x="718" 
d="M293 0h-281l172 971h265l-56 -316h21q50 131 103.5 204.5t104 97.5t119.5 24h31l-55 -319h-60q-144 0 -204 -49.5t-84 -180.5z" />
    <glyph glyph-name="s" unicode="s" horiz-adv-x="960" 
d="M428 -29q-93 0 -165 16t-118.5 42.5t-77 67t-45 84t-18.5 98.5l258 51q11 -82 55.5 -122t135.5 -40q137 0 149 80q6 35 -6.5 58t-56 44t-127.5 39q-185 43 -253 127t-44 217q24 128 132.5 196t299.5 68q83 0 147 -14.5t105 -39t69 -61.5t42 -76.5t20 -88.5l-258 -51
q-6 74 -41 107.5t-111 33.5q-127 0 -143 -80q-8 -48 27.5 -80.5t148.5 -56.5q104 -22 174 -57.5t102.5 -79.5t43.5 -98t-3 -113q-49 -271 -442 -271z" />
    <glyph glyph-name="t" unicode="t" horiz-adv-x="739" 
d="M123 340l72 410h-117l39 221h116l46 250h280l-45 -250h256l-39 -221h-256l-69 -400q-22 -117 90 -117q50 0 131 25l-11 -250q-49 -14 -73 -20.5t-62.5 -11.5t-83.5 -5q-85 0 -146 29t-91.5 79.5t-41.5 117.5t5 143z" />
    <glyph glyph-name="u" unicode="u" horiz-adv-x="1091" 
d="M635 0l45 258h-21q-64 -140 -157.5 -213.5t-206.5 -73.5q-137 0 -197.5 96t-31.5 263l114 641h279l-103 -580q-14 -78 16.5 -123t104.5 -45q88 0 149.5 56.5t78.5 150.5l94 541h278l-170 -971h-272z" />
    <glyph glyph-name="v" unicode="v" horiz-adv-x="997" 
d="M600 0h-373l-157 971h295l34 -381q27 -267 31 -344h41q11 25 68.5 150t87.5 194l170 381h301z" />
    <glyph glyph-name="w" unicode="w" horiz-adv-x="1531" 
d="M1014 971l12 -383q7 -201 4 -375h37q25 69 73 195.5t68 181.5l140 381h280l-438 -971h-365l-8 418q-2 138 8 342h-34q-66 -204 -115 -342l-150 -418h-354l-98 971h278l19 -381q14 -233 14 -377h37q66 208 131 375l147 383h314z" />
    <glyph glyph-name="x" unicode="x" horiz-adv-x="1028" 
d="M612 0l-102 383h-37l-221 -383h-322l4 23l365 485l-199 440l4 23h308l102 -375h37l221 375h307l-4 -23l-350 -483l199 -442l-4 -23h-308z" />
    <glyph glyph-name="y" unicode="y" horiz-adv-x="1005" 
d="M39 -344q-76 0 -148 10l56 240q77 -15 125 -15q78 0 123.5 24.5t91.5 98.5l-195 957h295l37 -357q27 -299 31 -352h34q24 54 150 346l154 363h309l-555 -975q-70 -120 -137 -191.5t-158.5 -110t-212.5 -38.5z" />
    <glyph glyph-name="z" unicode="z" horiz-adv-x="1024" 
d="M641 236h258l-41 -236h-872l41 240l639 503l-4 21q-208 -29 -332 -29h-199l41 236h852l-43 -240l-643 -506l6 -18q188 29 297 29z" />
    <glyph glyph-name="uni00A0" unicode="&#xa0;" horiz-adv-x="348" 
 />
  </font>
</defs>
</svg>
